<svg width="77" height="76" viewBox="0 0 77 76" fill="none" xmlns="http://www.w3.org/2000/svg">
<g clip-path="url(#clip0_1329_775)">
<path d="M17.1704 1.59766H59.5224C67.9008 1.59766 74.6928 8.3897 74.6928 16.7681V59.1201C74.6928 67.4985 67.9008 74.2905 59.5224 74.2905H17.1704C8.79204 74.2905 2 67.4985 2 59.1201V16.7681C2 8.38971 8.79204 1.59766 17.1704 1.59766Z" stroke="#102856" stroke-width="3"/>
<path d="M38.3464 18.2212C32.5501 18.2212 26.9912 20.1541 22.8927 23.5945C18.7941 27.035 16.4915 31.7013 16.4914 36.5668C16.4967 39.7316 17.4772 42.8415 19.3377 45.5941C21.1982 48.3467 23.8753 50.6485 27.1089 52.2759C26.2476 54.219 24.956 56.0411 23.2874 57.6668C26.5232 57.0943 29.5608 55.8917 32.1636 54.1525C34.1705 54.6531 36.2528 54.9091 38.3464 54.9125C44.1427 54.9124 49.7016 52.9796 53.8002 49.5391C57.8988 46.0987 60.2014 41.4324 60.2014 36.5668C60.2014 31.7013 57.8988 27.035 53.8002 23.5945C49.7016 20.1541 44.1427 18.2212 38.3464 18.2212Z" fill="#102856"/>
</g>
<defs>
<clipPath id="clip0_1329_775">
<rect width="75.6928" height="75.6928" fill="white" transform="translate(0.5 0.0976562)"/>
</clipPath>
</defs>
</svg>
