<svg width="48" height="50" viewBox="0 0 48 50" fill="none" xmlns="http://www.w3.org/2000/svg">
<path d="M10.5864 13.3265C7.68564 12.9496 6.77608 11.039 6.40706 9.98837C5.13183 6.35105 6.78075 1.90805 12.3768 1.52642C20.2804 0.9893 22.6487 8.7775 23.4942 12.6174" stroke="#D8242A" stroke-width="2.3" stroke-miterlimit="10" stroke-linecap="round" stroke-linejoin="round"/>
<path d="M24.9146 12.6175C25.76 8.78225 28.1283 0.99405 36.0319 1.52646C41.628 1.90809 43.2769 6.35109 42.0017 9.9884C41.6326 11.0391 40.4872 12.9496 37.5864 13.3265" stroke="#D8242A" stroke-width="2.3" stroke-miterlimit="10" stroke-linecap="round" stroke-linejoin="round"/>
<path fill-rule="evenodd" clip-rule="evenodd" d="M4.15 24.1602C3.51487 24.1602 3 24.675 3 25.3102V43.4119C3 46.748 5.66014 49.4997 8.98932 49.4997H23.5166C23.5167 49.4997 23.5167 49.4997 23.5167 49.4997H38.5064C41.8896 49.4997 44.6546 46.7829 44.6546 43.4119V25.3102C44.6546 24.675 44.1397 24.1602 43.5046 24.1602H23.5167C23.5167 24.1602 23.5167 24.1602 23.5166 24.1602H4.15ZM22.3666 26.4602V47.1997H8.98932C6.9747 47.1997 5.3 45.5225 5.3 43.4119V26.4602H22.3666ZM38.5064 47.1997H24.6667V26.4602H42.3546V43.4119C42.3546 45.4875 40.6446 47.1997 38.5064 47.1997Z" fill="black"/>
<rect x="2" y="13.3267" width="44" height="12.1038" rx="4" stroke="black" stroke-width="2.5"/>
</svg>
