<svg width="33" height="48" viewBox="0 0 33 48" fill="none" xmlns="http://www.w3.org/2000/svg">
<g clip-path="url(#clip0_135_1258)">
<path d="M16.6591 31.6138C18.1375 31.6138 19.3389 30.4096 19.3389 28.9277C19.3389 27.4459 18.1375 26.2417 16.6591 26.2417C15.1807 26.2417 13.9792 27.4459 13.9792 28.9277C13.9792 30.4096 15.1807 31.6138 16.6591 31.6138V31.6138ZM16.0939 28.9277C16.0939 28.6164 16.3484 28.3613 16.6591 28.3613C16.9697 28.3613 17.2242 28.6164 17.2242 28.9277C17.2242 29.2391 16.9697 29.4942 16.6591 29.4942C16.3484 29.4942 16.0939 29.2391 16.0939 28.9277Z" fill="#D8242A"/>
<path d="M19.9901 40.5572C19.7169 40.4934 19.4324 40.5421 19.1929 40.6922C17.6771 41.6488 15.6373 41.6488 14.1215 40.6922C13.6274 40.3808 12.9724 40.5309 12.6655 41.0261C12.5158 41.2662 12.4672 41.5513 12.5308 41.8251C12.5944 42.1028 12.7591 42.3353 12.9986 42.4854C14.1027 43.1794 15.3678 43.5471 16.6591 43.5471C17.9503 43.5471 19.2191 43.1794 20.3195 42.4854C20.559 42.3353 20.7237 42.099 20.7873 41.8251C20.851 41.5513 20.8023 41.2662 20.6526 41.0261C20.5029 40.786 20.2671 40.6209 19.9901 40.5572V40.5572Z" fill="black"/>
<path d="M13.8258 34.5172C13.8258 33.932 13.3504 33.4556 12.7703 33.4556H9.34568C8.76181 33.4556 8.29022 33.932 8.29022 34.5172C8.29022 35.1025 8.76555 35.5789 9.34568 35.5789H12.7703C13.3542 35.5789 13.8258 35.1025 13.8258 34.5172Z" fill="black"/>
<path d="M20.5441 35.575H23.965C24.5488 35.575 25.0242 35.0986 25.0242 34.5133C25.0242 33.9281 24.5488 33.4517 23.965 33.4517H20.5441C19.9602 33.4517 19.4849 33.9281 19.4849 34.5133C19.4849 35.0986 19.9602 35.575 20.5441 35.575Z" fill="black"/>
<path d="M32.375 29.554C32.2028 29.389 32.0044 29.2652 31.7836 29.1751C32.0306 28.0535 32.1504 26.9468 32.1504 25.8026C32.1504 20.1116 29.0402 15.5311 23.7853 13.389C23.9163 13.2989 24.0361 13.2052 24.1409 13.1001C24.5788 12.6649 24.8033 12.1097 24.8033 11.457C24.8033 9.61125 22.6849 6.88394 19.5822 5.67597C20.0126 5.07198 20.2446 4.3517 20.2446 3.59766C20.2446 1.61313 18.6353 0 16.6553 0C14.6754 0 13.066 1.61313 13.066 3.59766C13.066 4.30293 13.2793 4.98945 13.6723 5.57843C10.4199 6.72638 8.19292 9.51747 8.19292 11.457C8.19292 12.1097 8.41749 12.6612 8.85539 13.1001C8.97516 13.2202 9.11365 13.329 9.2671 13.4265C4.17693 15.5836 1.164 20.1491 1.164 25.8026C1.164 26.9018 1.2688 27.9822 1.48962 29.0851C1.16775 29.1601 0.87581 29.3177 0.628787 29.5503C-0.0112264 30.158 -0.179651 31.0921 0.209597 31.88C1.05921 33.5906 1.49337 35.4288 1.49337 37.3458C1.49337 37.8298 1.46342 38.3212 1.40728 38.7977C1.31371 39.5817 1.69173 40.3207 2.3542 40.7147C1.4784 41.0823 0.864582 41.9489 0.864582 42.958C0.864582 44.3011 1.95373 45.3927 3.29364 45.3927C4.63355 45.3927 5.7227 44.3011 5.7227 42.958C5.7227 41.9751 5.13882 41.1311 4.30044 40.7447C4.5063 40.6321 4.69718 40.4896 4.85063 40.3057C4.93297 40.212 5.01157 40.1107 5.08643 40.0094C6.6771 44.7475 11.1198 47.9925 16.1538 47.9925H16.8462C21.884 47.9925 26.3229 44.7475 27.9136 40.0094C27.9922 40.1107 28.0708 40.212 28.1494 40.3057C28.3066 40.4896 28.4937 40.6359 28.7033 40.7447C27.8649 41.1311 27.281 41.9751 27.281 42.958C27.281 44.3011 28.3702 45.3927 29.7101 45.3927C31.05 45.3927 32.1392 44.3011 32.1392 42.958C32.1392 41.9489 31.5216 41.0823 30.6495 40.7109C31.312 40.317 31.69 39.578 31.5965 38.7939C31.5403 38.31 31.5104 37.8223 31.5104 37.3383C31.5104 35.4251 31.9408 33.5869 32.7904 31.8724C33.1797 31.0884 33.015 30.1505 32.375 29.5428V29.554ZM30.0282 42.9655C30.0282 43.1381 29.886 43.2807 29.7138 43.2807C29.5417 43.2807 29.3995 43.1381 29.3995 42.9655C29.3995 42.793 29.5417 42.6504 29.7138 42.6504C29.886 42.6504 30.0282 42.793 30.0282 42.9655ZM3.2899 42.6504C3.46206 42.6504 3.60429 42.793 3.60429 42.9655C3.60429 43.1381 3.46206 43.2807 3.2899 43.2807C3.11773 43.2807 2.9755 43.1381 2.9755 42.9655C2.9755 42.793 3.11773 42.6504 3.2899 42.6504ZM2.33549 31.4223C3.66043 32.3864 4.46513 33.9433 4.46513 35.6052C4.46513 36.6518 4.14699 37.6685 3.55938 38.52C3.58932 38.1299 3.60803 37.7397 3.60803 37.3496C3.60803 35.2825 3.18136 33.2905 2.33549 31.426V31.4223ZM16.6591 5.07198C15.8469 5.07198 15.1844 4.40797 15.1844 3.5939C15.1844 2.77984 15.8469 2.11583 16.6591 2.11583C17.4713 2.11583 18.1337 2.77984 18.1337 3.5939C18.1337 4.40797 17.4713 5.07198 16.6591 5.07198ZM29.4444 38.52C28.8568 37.6647 28.5386 36.6481 28.5386 35.6052C28.5386 33.9433 29.3396 32.3902 30.6683 31.426C29.8224 33.2943 29.3957 35.2863 29.3957 37.3496C29.3957 37.7397 29.4107 38.1299 29.4444 38.52V38.52ZM21.9925 22.0436C20.7424 22.0436 19.5298 22.3962 18.4818 23.064C17.2991 23.8181 15.7084 23.8181 14.5219 23.064C13.474 22.3962 12.2613 22.0399 11.0112 22.0399C7.39946 22.0399 4.46513 24.9848 4.46513 28.6012V30.4732C4.27424 30.2818 4.07588 30.1018 3.87003 29.9329C3.47329 28.5224 3.28241 27.1681 3.28241 25.7988C3.28241 18.7348 8.46989 14.1693 16.4981 14.1693C23.2389 14.1693 30.0395 17.7669 30.0395 25.7988C30.0395 27.1043 29.8523 28.3798 29.4631 29.6928C29.13 29.9329 28.8231 30.1955 28.5386 30.4769V28.6012C28.5386 24.981 25.6005 22.0399 21.9925 22.0399V22.0436ZM6.57979 28.6049C6.57979 26.1552 8.5672 24.1632 11.0112 24.1632C11.8571 24.1632 12.6768 24.4033 13.3879 24.8535C15.248 26.0427 17.752 26.0427 19.6159 24.8535C20.3232 24.4033 21.1467 24.1632 21.9925 24.1632C24.4365 24.1632 26.424 26.1552 26.424 28.6049V36.2804C26.424 41.5737 22.1273 45.8804 16.8462 45.8804H16.1538C10.8727 45.8804 6.57605 41.5737 6.57605 36.2804V28.6049H6.57979ZM22.6512 11.592C22.1609 12.076 19.8966 12.061 17.8755 12.046C16.9847 12.0385 16.0153 12.0385 15.1058 12.046C13.1072 12.061 10.8391 12.0797 10.3488 11.592C10.3338 11.577 10.3113 11.5583 10.3113 11.457C10.3113 10.2227 12.9912 7.19531 16.4981 7.19531C20.0051 7.19531 22.6849 10.2227 22.6849 11.457C22.6849 11.5583 22.6662 11.577 22.6475 11.592H22.6512Z" fill="black"/>
</g>
<defs>
<clipPath id="clip0_135_1258">
<rect width="33" height="48" fill="white"/>
</clipPath>
</defs>
</svg>
