<svg width="132" height="132" viewBox="0 0 132 132" fill="none" xmlns="http://www.w3.org/2000/svg">
<circle cx="66" cy="66" r="64.5" stroke="black" stroke-width="3"/>
<g clip-path="url(#clip0_1403_119)">
<path d="M66.4031 82.2206C57.4605 82.2206 50.1859 74.946 50.1859 66.0034C50.1859 57.0607 57.4605 49.7861 66.4031 49.7861C75.3457 49.7861 82.6203 57.0607 82.6203 66.0034C82.6203 74.946 75.3457 82.2206 66.4031 82.2206ZM66.4031 54.2257C59.9086 54.2257 54.6255 59.5089 54.6255 66.0034C54.6255 72.4979 59.9086 77.781 66.4031 77.781C72.8976 77.781 78.1807 72.4979 78.1807 66.0034C78.1807 59.5089 72.8976 54.2257 66.4031 54.2257Z" fill="#D8242A"/>
<path d="M66.4031 46.5577C65.179 46.5577 64.1833 45.562 64.1833 44.3379V36.2198C64.1833 34.9957 65.179 34 66.4031 34C67.6271 34 68.6229 34.9957 68.6229 36.2198V44.3379C68.6229 45.562 67.6271 46.5577 66.4031 46.5577Z" fill="#D8242A"/>
<path d="M66.4031 98.0001C65.179 98.0001 64.1833 97.0044 64.1833 95.7803V87.6622C64.1833 86.4381 65.179 85.4424 66.4031 85.4424C67.6271 85.4424 68.6229 86.4381 68.6229 87.6622V95.7803C68.6229 97.0044 67.6271 98.0001 66.4031 98.0001Z" fill="#D8242A"/>
<path d="M44.7378 68.2228H36.6197C35.3956 68.2228 34.3999 67.2271 34.3999 66.003C34.3999 64.7789 35.3956 63.7832 36.6197 63.7832H44.7378C45.9619 63.7832 46.9576 64.7789 46.9576 66.003C46.9576 67.2271 45.9619 68.2228 44.7378 68.2228Z" fill="#D8242A"/>
<path d="M96.1801 68.2228H88.062C86.8379 68.2228 85.8422 67.2271 85.8422 66.003C85.8422 64.7789 86.8379 63.7832 88.062 63.7832H96.1801C97.4042 63.7832 98.3999 64.7789 98.3999 66.003C98.3999 67.2271 97.4042 68.2228 96.1801 68.2228Z" fill="#D8242A"/>
<path d="M45.3403 89.2793C44.7695 89.2793 44.2051 89.0637 43.7738 88.6261C42.9049 87.7572 42.9049 86.3555 43.7738 85.4867L49.5136 79.7469C50.3825 78.878 51.7841 78.878 52.653 79.7469C53.5219 80.6158 53.5219 82.0174 52.653 82.8863L46.9132 88.6261C46.482 89.0574 45.9112 89.2793 45.3467 89.2793H45.3403Z" fill="#D8242A"/>
<path d="M81.7197 52.8999C81.1489 52.8999 80.5844 52.6843 80.1531 52.2467C79.2843 51.3778 79.2843 49.9762 80.1531 49.1073L85.8929 43.3675C86.7618 42.4986 88.1635 42.4986 89.0323 43.3675C89.9012 44.2364 89.9012 45.638 89.0323 46.5069L83.2926 52.2467C82.8613 52.678 82.2905 52.8999 81.726 52.8999H81.7197Z" fill="#D8242A"/>
<path d="M87.4595 89.2793C86.8887 89.2793 86.3242 89.0637 85.8929 88.6261L80.1531 82.8863C79.2843 82.0174 79.2843 80.6158 80.1531 79.7469C81.022 78.878 82.4237 78.878 83.2926 79.7469L89.0323 85.4867C89.9012 86.3555 89.9012 87.7572 89.0323 88.6261C88.6011 89.0574 88.0303 89.2793 87.4658 89.2793H87.4595Z" fill="#D8242A"/>
<path d="M51.0801 52.8999C50.5093 52.8999 49.9448 52.6843 49.5136 52.2467L43.7738 46.5069C42.9049 45.638 42.9049 44.2364 43.7738 43.3675C44.6427 42.4986 46.0443 42.4986 46.9132 43.3675L52.653 49.1073C53.5219 49.9762 53.5219 51.3778 52.653 52.2467C52.2217 52.678 51.6509 52.8999 51.0865 52.8999H51.0801Z" fill="#D8242A"/>
</g>
<defs>
<clipPath id="clip0_1403_119">
<rect width="64" height="64" fill="white" transform="translate(34.3999 34)"/>
</clipPath>
</defs>
</svg>
