<svg width="72" height="50" viewBox="0 0 72 50" fill="none" xmlns="http://www.w3.org/2000/svg">
<path d="M38.201 33.9395C38.9416 36.4589 47.1014 39.7813 50.4137 40.8027" stroke="black" stroke-width="2" stroke-miterlimit="10" stroke-linecap="round" stroke-linejoin="round"/>
<path d="M64.081 41.2659C52.649 39.3731 47.1014 41.7292 41.4192 42.2057C34.8751 42.8588 32.7476 41.063 25.611 42.8455C23.6587 43.3353 22.6757 43.6905 21.0732 44.6987C16.3469 48.7557 29.489 48.3476 34.121 46.8496C42.3347 49.7087 68.5649 49.8455 69.1707 46.4812C74.3145 41.716 67.3529 39.0466 63.704 36.5824C57.4427 33.1364 54.6419 29.7324 50.562 28.3161" stroke="black" stroke-width="2" stroke-miterlimit="10" stroke-linecap="round" stroke-linejoin="round"/>
<path d="M56.8099 24.7882C60.1896 25.5913 69.3594 26.0832 70.0597 25.92" stroke="black" stroke-width="2" stroke-miterlimit="10" stroke-linecap="round" stroke-linejoin="round"/>
<path d="M28.8829 42.2324C36.3024 39.9601 30.6064 35.4795 30.1488 33.9396C27.6443 30.8776 26.6882 30.6592 25.4225 29.8561" stroke="black" stroke-width="2" stroke-miterlimit="10" stroke-linecap="round" stroke-linejoin="round"/>
<path d="M18.6226 45.8283C17.2492 46.7261 13.7617 46.4813 8.99487 45.5282C8.05249 37.4671 12.7249 35.3845 11.257 31.4885C13.6943 31.7489 16.1181 31.9518 17.5454 27.7977C12.1054 26.302 16.1181 21.5346 21.8138 27.5131C27.7115 28.0161 45.1087 17.3672 65.4141 28.3161" stroke="black" stroke-width="2" stroke-miterlimit="10" stroke-linecap="round" stroke-linejoin="round"/>
<path d="M20.7906 38.6782C21.7868 37.8068 21.8948 35.711 20.9926 34.7977" stroke="black" stroke-width="2" stroke-miterlimit="10" stroke-linecap="round" stroke-linejoin="round"/>
<path d="M18.0973 43.9086C17.9224 44.8462 17.4647 45.4331 16.9126 45.9912" stroke="black" stroke-width="2" stroke-miterlimit="10" stroke-linecap="round" stroke-linejoin="round"/>
<path d="M38.3491 3.32728C37.4065 10.4508 36.4639 12.8334 35.5213 17.0824L29.314 23.4272C24.4261 27.7291 32.6398 26.9547 36.2483 24.5435C38.4298 23.072 40.9343 21.4659 41.0691 19.4915C42.9946 14.8608 44.92 10.1089 46.859 4.21193" fill="#FAFAFA"/>
<path d="M38.3491 3.32728C37.4065 10.4508 36.4639 12.8334 35.5213 17.0824L29.314 23.4272C24.4261 27.7291 32.6398 26.9547 36.2483 24.5435C38.4298 23.072 40.9343 21.4659 41.0691 19.4915C42.9946 14.8608 44.92 10.1089 46.859 4.21193" stroke="#D8242A" stroke-width="2" stroke-miterlimit="10" stroke-linecap="round" stroke-linejoin="round"/>
<path d="M54.588 0.999912C53.0529 9.34563 49.3905 14.466 47.3437 19.218L37.8507 22.7191L35.2655 24.4751C30.2834 32.02 37.9853 31.1751 44.3006 29.8956C48.1381 29.1058 49.9695 26.8864 51.2218 24.2589L65.8044 8.96398" fill="#FAFAFA"/>
<path d="M54.588 0.999912C53.0529 9.34563 49.3905 14.466 47.3437 19.218L37.8507 22.7191L35.2655 24.4751C30.2834 32.02 37.9853 31.1751 44.3006 29.8956C48.1381 29.1058 49.9695 26.8864 51.2218 24.2589L65.8044 8.96398" stroke="#D8242A" stroke-width="2" stroke-miterlimit="10" stroke-linecap="round" stroke-linejoin="round"/>
<path d="M32.734 25.8232C32.7611 24.1223 34.4846 22.7325 34.7807 22.0795Z" fill="white"/>
<path d="M32.734 25.8232C32.7611 24.1223 34.4846 22.7325 34.7807 22.0795" stroke="#D8242A" stroke-width="2" stroke-miterlimit="10" stroke-linecap="round" stroke-linejoin="round"/>
<path d="M8.1603 45.5967C4.53804 45.365 -2.94862 36.406 3.58192 30.2488C1.40071 30.8223 4.05333 21.5898 14.8254 25.0335" stroke="black" stroke-width="2" stroke-miterlimit="10" stroke-linecap="round" stroke-linejoin="round"/>
<path d="M4.68614 29.5404C6.31545 28.9006 9.30467 29.5559 11.2167 31.5171" stroke="black" stroke-width="2" stroke-miterlimit="10" stroke-linecap="round" stroke-linejoin="round"/>
<path d="M19.5517 25.0335C22.9449 24.6253 25.813 23.0325 26.3516 25.8784" stroke="black" stroke-width="2" stroke-miterlimit="10" stroke-linecap="round" stroke-linejoin="round"/>
<path d="M7.5272 44.2202C6.31542 42.0163 5.45353 41.703 5.69611 35.9826" stroke="black" stroke-width="2" stroke-miterlimit="10" stroke-linecap="round" stroke-linejoin="round"/>
</svg>
