<svg width="132" height="132" viewBox="0 0 132 132" fill="none" xmlns="http://www.w3.org/2000/svg">
<circle cx="66" cy="66" r="64.5" stroke="black" stroke-width="3"/>
<g clip-path="url(#clip0_1403_118)">
<path d="M61.283 61.1434C62.1317 60.0083 63.2919 59.8476 64.3717 59.6567C65.8885 59.3905 67.4304 59.27 68.9622 59.1294C72.7441 58.7828 76.531 58.8682 80.3129 59.1495C81.7795 59.26 83.241 59.4508 84.6975 59.6718C85.3152 59.7622 85.923 59.9731 86.5106 60.2042C87.2891 60.5055 87.7662 61.0379 87.731 61.957C87.6909 63.077 87.716 64.202 87.731 65.322C87.7411 65.9398 87.7863 66.5575 87.8114 67.11C88.3187 67.4013 88.5698 67.1452 88.8109 66.889C89.1474 66.5324 89.4387 66.1256 89.8103 65.8092C91.081 64.7243 92.5124 64.3477 94.1045 65.0357C95.6614 65.7087 96.5303 66.884 96.6006 68.6017C96.6207 69.0235 96.6006 69.4454 96.6157 69.8623C96.7764 73.6643 95.1391 76.4718 91.9197 78.4155C91.3221 78.7771 90.7545 79.199 90.1468 79.5455C89.4688 79.9322 89.1423 80.4646 89.1624 81.2531C89.1825 81.8809 89.1474 82.5138 89.1072 83.1466C89.072 83.7041 88.7255 84.0356 88.2132 84.1862C87.947 84.2666 87.6607 84.2817 87.3845 84.3269C81.6891 85.2309 75.9786 85.703 70.2028 85.2861C67.1893 85.0702 64.196 84.7939 61.2227 84.2817C60.0324 84.0757 59.7762 83.8196 59.7561 82.6293C59.721 80.2436 59.7411 77.863 59.7411 75.4774C59.7411 73.4433 59.7662 71.4092 59.7361 69.3751C59.721 68.3706 59.9018 67.5419 61.1725 67.341C61.2126 65.1864 61.2528 63.0971 61.288 61.1434H61.283ZM61.5943 69.5057C61.524 70.1687 61.4587 70.5102 61.4587 70.8517C61.4487 74.3574 61.4487 77.863 61.4638 81.3687C61.4638 81.7654 61.6094 82.1672 61.6797 82.5138C67.2295 84.1511 82.6232 84.0757 87.3041 82.4535C87.3544 82.2325 87.4699 81.9663 87.4699 81.7052C87.4799 77.9182 87.4799 74.1313 87.4598 70.3444C87.4598 70.0933 87.2891 69.8422 87.1635 69.5057C82.9346 70.0029 78.756 70.4147 74.5422 70.4248C70.2681 70.4348 66.0291 69.9878 61.5943 69.5057ZM85.9832 67.8885C86.1239 66.2512 86.3248 64.8248 85.8828 63.4286C83.2862 63.6596 80.785 63.976 78.2738 64.0815C75.6822 64.192 73.0806 64.1869 70.4891 64.0765C68.003 63.966 65.5269 63.6546 62.9353 63.4235C62.85 64.9755 62.6189 66.4119 63.1161 67.9136C70.69 69.0637 78.2186 69.0687 85.9832 67.8885ZM89.4537 77.8278C90.4331 77.4461 91.1714 76.9238 91.8946 76.4065C94.677 74.4126 95.335 71.5699 94.9282 68.3957C94.7273 66.8087 92.8891 65.8695 91.5531 66.6781C90.2925 67.4415 89.1725 68.456 89.1674 70.1486C89.1624 72.3233 89.1624 74.498 89.1825 76.6727C89.1825 76.9941 89.3282 77.3206 89.4537 77.8278ZM84.0546 61.4447C80.5289 60.3348 68.9874 60.3147 64.7334 61.4146C64.874 62.0725 65.4315 62.0022 65.8935 62.0625C70.4288 62.6903 74.9841 62.5999 79.5395 62.4291C80.7951 62.3839 82.0457 62.173 83.3013 62.0223C83.6528 61.9821 83.9893 61.8766 84.0546 61.4447Z" fill="black"/>
<path d="M74.5622 85.944C73.0655 85.944 71.609 85.8938 70.1626 85.7883C67.4505 85.5924 64.2562 85.3212 61.1323 84.7788C59.6958 84.5277 59.274 84.0505 59.2489 82.6392C59.2237 80.9065 59.2237 79.1487 59.2288 77.4461C59.2288 76.7881 59.2288 76.1352 59.2288 75.4773C59.2288 74.8444 59.2288 74.2166 59.2288 73.5838C59.2288 72.2077 59.2388 70.7813 59.2187 69.3851C59.2087 68.7673 59.1886 67.3912 60.6652 66.9442L60.7757 60.9775L60.8711 60.847C61.8002 59.5964 63.0458 59.3804 64.1407 59.1896L64.2763 59.1644C65.6324 58.9284 67.0236 58.8028 68.3645 58.6823L68.907 58.6321C72.3373 58.3207 75.9685 58.3257 80.338 58.6522C81.9452 58.7727 83.5423 58.9937 84.7577 59.1745C85.4508 59.28 86.1188 59.516 86.6763 59.732C87.9972 60.2493 88.2433 61.2337 88.2182 61.972C88.183 62.9313 88.1981 63.9157 88.2182 64.8699V65.3119C88.2282 65.7338 88.2533 66.1607 88.2734 66.5625V66.6931C88.3186 66.6629 88.3638 66.6127 88.4291 66.5424C88.5396 66.4218 88.6501 66.2963 88.7556 66.1707C88.9715 65.9196 89.1975 65.6534 89.4688 65.4274C90.9855 64.1366 92.6078 63.8453 94.2903 64.5736C96.0682 65.342 97.0074 66.688 97.0878 68.5815C97.0978 68.8025 97.0978 69.0184 97.0978 69.2394C97.0978 69.4403 97.0978 69.6412 97.1028 69.8421C97.2686 73.7395 95.6062 76.768 92.1658 78.8473C91.9097 79.003 91.6585 79.1688 91.4074 79.3345C91.0759 79.5555 90.7394 79.7815 90.3778 79.9824C89.8454 80.2837 89.6295 80.6504 89.6496 81.238C89.6697 81.916 89.6295 82.594 89.5943 83.1766C89.5491 83.9049 89.0921 84.4473 88.3387 84.6683C88.1177 84.7336 87.8967 84.7637 87.6908 84.7888C87.6105 84.7989 87.5301 84.8089 87.4497 84.824C82.7036 85.5774 78.5048 85.944 74.5471 85.944H74.5622ZM61.7802 61.3241L61.6596 67.7729L61.2428 67.8382C60.4392 67.9637 60.2132 68.3103 60.2282 69.37C60.2483 70.7763 60.2433 72.2077 60.2383 73.5888C60.2383 74.2166 60.2383 74.8495 60.2383 75.4773C60.2383 76.1352 60.2383 76.7931 60.2383 77.4461C60.2383 79.1436 60.2282 80.8965 60.2584 82.6192C60.2734 83.5483 60.3337 83.6136 61.308 83.7844C64.3918 84.3167 67.5509 84.5879 70.2429 84.7838C75.421 85.1605 80.8453 84.8541 87.3141 83.8296C87.4045 83.8145 87.4949 83.8044 87.5854 83.7894C87.7662 83.7643 87.9319 83.7442 88.0776 83.704C88.5245 83.5734 88.5999 83.3223 88.6099 83.1164C88.6451 82.5589 88.6802 81.906 88.6602 81.2732C88.635 80.3239 89.0519 79.5957 89.9007 79.1135C90.2271 78.9277 90.5385 78.7218 90.865 78.5058C91.1262 78.33 91.3923 78.1542 91.6585 77.9935C94.8076 76.095 96.2641 73.4432 96.1134 69.8923C96.1034 69.6764 96.1034 69.4604 96.1034 69.2394C96.1034 69.0335 96.1034 68.8326 96.0984 68.6267C96.0331 67.135 95.3149 66.1105 93.9036 65.4977C92.5827 64.9252 91.3522 65.1562 90.1367 66.1908C89.9258 66.3716 89.735 66.5926 89.5341 66.8236C89.4185 66.9592 89.298 67.0999 89.1775 67.2305C88.9515 67.4715 88.4241 68.034 87.5653 67.5418L87.3242 67.4062L87.284 66.6177C87.2589 66.2009 87.2388 65.7639 87.2288 65.327V64.885C87.2087 63.9207 87.1936 62.9212 87.2288 61.9368C87.2489 61.304 86.9827 60.9223 86.3297 60.6712C85.8225 60.4703 85.2198 60.2593 84.6271 60.1689C83.4318 59.9881 81.8548 59.7722 80.2828 59.6516C75.9685 59.3302 72.3875 59.3252 69.0175 59.6315L68.47 59.6818C67.1491 59.8023 65.778 59.9228 64.4671 60.1539L64.3315 60.179C63.3773 60.3447 62.4732 60.5004 61.7902 61.3241H61.7802ZM74.5371 84.2113C69.4343 84.2113 64.2813 83.8095 61.5341 82.9958L61.2428 82.9105L61.1825 82.6141C61.1624 82.5137 61.1373 82.4132 61.1122 82.3078C61.0419 82.0315 60.9615 81.7151 60.9615 81.3736C60.9414 77.7575 60.9464 74.0459 60.9565 70.8516C60.9565 70.6005 60.9866 70.3695 61.0268 70.048C61.0469 69.8823 61.072 69.6864 61.0971 69.4554L61.1473 68.9531L61.6496 69.0084C65.8433 69.4654 70.1877 69.9375 74.5421 69.9225C78.8212 69.9124 83.1104 69.4755 87.1032 69.0034L87.5 68.9582L87.6356 69.3298C87.6758 69.4353 87.7159 69.5257 87.7561 69.6161C87.8566 69.8371 87.962 70.0681 87.962 70.3444C87.9771 73.7747 87.9821 77.3858 87.9721 81.7101C87.9721 81.9662 87.9018 82.2023 87.8465 82.3881C87.8264 82.4534 87.8063 82.5137 87.7963 82.5689L87.736 82.8401L87.4749 82.9305C85.0189 83.7793 79.8106 84.2113 74.5471 84.2113H74.5371ZM62.1016 82.1119C67.576 83.5784 82.0908 83.5533 86.8923 82.0617C86.9324 81.9361 86.9676 81.8055 86.9676 81.7051C86.9776 77.3858 86.9726 73.7797 86.9576 70.3494C86.9576 70.2941 86.9023 70.1636 86.8471 70.048C82.9296 70.5051 78.7409 70.9169 74.5421 70.927H74.3965C70.2078 70.927 66.0593 70.495 62.0363 70.0581C62.0363 70.0983 62.0263 70.1334 62.0212 70.1686C61.9861 70.4549 61.961 70.6608 61.961 70.8466C61.9559 74.0409 61.9509 77.7474 61.966 81.3636C61.966 81.5795 62.0263 81.8206 62.0865 82.0566L62.1016 82.1119ZM89.1021 78.5058L88.9665 77.9483C88.9263 77.7826 88.8811 77.6319 88.846 77.5013C88.7606 77.21 88.6853 76.9589 88.6853 76.6827C88.6602 74.3723 88.6652 72.0821 88.6702 70.1485C88.6752 68.0792 90.1719 66.9341 91.3019 66.2511C92.0553 65.794 93.0096 65.7639 93.8433 66.1657C94.7172 66.5876 95.3149 67.4012 95.4354 68.3354C95.9226 72.1374 94.8628 74.9097 92.1909 76.8183C91.4978 77.3155 90.7093 77.883 89.6445 78.2999L89.1071 78.5108L89.1021 78.5058ZM92.6228 66.8839C92.3366 66.8839 92.0603 66.9592 91.8142 67.1099C90.3125 68.019 89.6747 68.928 89.6697 70.1535C89.6646 72.0821 89.6646 74.3673 89.6847 76.6726C89.6847 76.7982 89.7249 76.9488 89.7802 77.1397C90.4883 76.7982 91.0709 76.3813 91.5983 76.0046C93.9387 74.3322 94.8628 71.8611 94.4259 68.466C94.3506 67.8683 93.9638 67.351 93.3963 67.0748C93.1402 66.9542 92.879 66.8889 92.6178 66.8889L92.6228 66.8839ZM74.4266 69.2846C70.6397 69.2846 66.8578 68.9933 63.0408 68.4158L62.7344 68.3705L62.639 68.0792C62.197 66.7433 62.2874 65.4475 62.3828 64.1969C62.4029 63.9357 62.423 63.6696 62.4381 63.4034L62.4682 62.8861L62.9855 62.9313C63.7891 63.0016 64.5776 63.0819 65.3611 63.1623C67.1341 63.3431 68.8115 63.5088 70.5141 63.5842C73.1007 63.6947 75.7073 63.6997 78.2537 63.5892C79.9764 63.5139 81.6639 63.3481 83.4519 63.1673C84.2404 63.087 85.034 63.0066 85.8376 62.9363L86.2393 62.9011L86.3599 63.2828C86.7818 64.6138 86.6612 65.9598 86.5306 67.3862L86.4503 68.3354L86.0585 68.3957C82.131 68.9933 78.2738 69.2947 74.4266 69.2947V69.2846ZM63.5028 67.4665C70.8607 68.5514 78.0679 68.5463 85.5161 67.4514L85.5312 67.2857C85.6417 66.0653 85.7421 64.9905 85.5061 63.9659C84.8481 64.0262 84.2002 64.0914 83.5523 64.1567C81.7493 64.3375 80.0467 64.5083 78.2939 64.5836C75.7174 64.6941 73.0806 64.6941 70.4639 64.5786C68.7312 64.5033 67.0436 64.3325 65.2506 64.1517C64.6379 64.0914 64.0202 64.0262 63.3974 63.9709C63.3923 64.0663 63.3823 64.1668 63.3773 64.2622C63.2969 65.3671 63.2216 66.4168 63.5028 67.4665ZM73.9897 63.0618C71.2926 63.0618 68.5454 62.9413 65.8132 62.5646C65.7479 62.5546 65.6826 62.5496 65.6123 62.5445C65.1954 62.5094 64.427 62.4391 64.2261 61.525L64.1256 61.0529L64.5927 60.9323C68.8969 59.8224 80.6193 59.8475 84.1902 60.9725L84.602 61.1031L84.5367 61.53C84.4463 62.1126 84.0445 62.4491 83.3464 62.5345C82.9999 62.5747 82.6584 62.6199 82.3118 62.6651C81.4078 62.7856 80.4786 62.9062 79.5445 62.9413C77.7314 63.0066 75.8731 63.0669 73.9846 63.0669L73.9897 63.0618ZM66.2903 61.6154C70.7351 62.198 75.2553 62.0925 79.5143 61.9318C80.3983 61.8966 81.3073 61.7761 82.1862 61.6606C82.3018 61.6455 82.4223 61.6305 82.5378 61.6154C78.5802 60.9323 70.6347 60.9273 66.2903 61.6154Z" fill="black"/>
<path d="M42.1124 69.0183C41.7256 70.5853 41.7909 70.8163 42.8306 71.2784C44.4428 71.9966 46.1604 72.3833 47.9032 72.5892C50.8313 72.9358 53.7694 73.1417 56.7226 72.8504C57.0641 72.8153 57.4408 72.8052 57.7522 72.9157C57.9631 72.991 58.1941 73.2823 58.2293 73.5083C58.2594 73.7293 58.1188 74.0859 57.938 74.2065C57.6618 74.3923 57.2901 74.5078 56.9536 74.5078C54.4324 74.5028 51.9011 74.543 49.3848 74.4074C47.3558 74.2969 45.3468 73.9403 43.4031 73.2974C41.9416 72.8102 41.4695 72.5491 40.2691 71.4994C40.2691 69.5356 40.0833 67.4865 40.3093 65.4875C40.7211 61.8011 42.5895 58.9132 45.7486 56.9143C46.281 56.5778 46.8535 56.3015 47.3859 55.965C49.9574 54.3528 51.5595 52.0727 52.1271 49.0793C52.4184 47.5575 52.5088 46.0257 52.4284 44.4788C52.0015 44.082 51.5495 43.7354 51.1929 43.3085C50.1985 42.1182 50.319 40.3604 51.4239 39.3057C52.4686 38.3162 54.1662 38.2309 55.2811 39.1148C56.4815 40.064 56.7778 41.8118 55.8889 43.0725C55.5323 43.5797 55.03 43.9866 54.4776 44.5641C54.3319 46.3722 54.5077 48.3209 55.0602 50.2043C55.8236 52.8009 57.4559 54.7697 59.8013 56.1358C60.4643 56.5225 61.1423 56.9042 61.7701 57.3412C62.2975 57.7128 62.3628 58.2 62.0363 58.5918C61.6998 58.9936 61.3382 58.9283 60.9163 58.7123C57.9229 57.1704 55.3113 55.2368 53.915 52.0275C53.8397 51.8466 53.6438 51.7211 53.4178 51.475C53.1667 51.8517 52.9156 52.1631 52.7398 52.5096C51.66 54.6291 50.1281 56.3367 48.0489 57.4868C47.19 57.964 46.6878 58.6319 46.3161 59.5008C45.7034 60.9473 45.3819 62.4389 45.5025 64.0059C45.5477 64.5584 45.608 65.136 45.7988 65.6533C46.8585 68.496 47.5868 68.6868 49.877 68.8375C50.3592 68.8676 50.8463 68.8375 51.3034 68.8375C51.5394 68.1243 50.9819 67.8933 50.6806 67.5668C49.3647 66.1505 48.4054 64.5333 48.0288 62.6298C47.868 61.8111 47.863 60.9623 47.8128 60.1286C47.8028 59.9277 47.8329 59.6666 47.9585 59.5309C48.1292 59.3451 48.4004 59.1492 48.6315 59.1492C48.8575 59.1492 49.1889 59.3451 49.2743 59.541C49.4049 59.8474 49.3748 60.224 49.3949 60.5706C49.6108 64.2922 51.6198 66.7934 54.7839 68.5361C55.5222 68.943 56.2655 68.8526 57.034 68.8475C57.933 68.8425 58.2795 69.0786 58.2494 69.626C58.2142 70.2789 57.7271 70.3593 57.2248 70.4497C55.1355 70.8113 53.0361 70.8515 50.9367 70.6305C48.3552 70.3593 45.7938 69.9625 43.3077 69.179C42.926 69.0585 42.5041 69.0585 42.1124 69.0032V69.0183ZM44.5834 67.4714C43.83 65.6131 43.7949 63.6544 43.8401 61.5701C42.8356 62.444 42.695 62.5394 42.3986 63.6795C42.1274 64.7292 41.5599 65.7839 42.0822 67.0043C42.8054 67.1851 43.4433 67.7075 44.5834 67.4714ZM54.6734 41.4201C54.6684 40.7672 54.136 40.2097 53.4932 40.1846C52.8553 40.1595 52.2878 40.6918 52.2476 41.3448C52.2024 42.0981 52.8001 42.7209 53.5283 42.6757C54.1863 42.6355 54.6835 42.0931 54.6734 41.4201Z" fill="#D8242A"/>
<path d="M54.357 75.01C52.7047 75.01 51.0171 74.9949 49.3547 74.9045C47.2151 74.789 45.156 74.4073 43.2424 73.7695C41.7005 73.2572 41.1782 72.9558 39.9377 71.871L39.7669 71.7203V71.4943C39.7669 70.8916 39.7468 70.2839 39.7317 69.6712C39.6916 68.285 39.6514 66.8486 39.8121 65.4272C40.244 61.6052 42.1475 58.5967 45.4824 56.4823C45.7637 56.3065 46.055 56.1408 46.3463 55.9801C46.6074 55.8344 46.8686 55.6888 47.1197 55.5331C49.6159 53.9711 51.0925 51.8265 51.6349 48.9788C51.9011 47.5926 52.0015 46.1512 51.9362 44.6997C51.8508 44.6244 51.7705 44.554 51.6851 44.4787C51.3838 44.2175 51.0724 43.9413 50.8062 43.6199C49.651 42.2337 49.7716 40.1745 51.0774 38.934C52.2978 37.7688 54.2817 37.6733 55.5925 38.718C57.0189 39.8531 57.3303 41.8922 56.3007 43.3587C56.0345 43.7354 55.703 44.0568 55.3565 44.3984C55.2309 44.5189 55.1003 44.6444 54.9698 44.7801C54.8492 46.5379 55.0501 48.361 55.5473 50.0636C56.2555 52.4744 57.7723 54.3729 60.0575 55.6988L60.2885 55.8294C60.8761 56.1709 61.4889 56.5225 62.0614 56.9293C62.5486 57.2708 62.6943 57.6626 62.7294 57.9338C62.7746 58.2753 62.6691 58.6269 62.423 58.9131C61.9811 59.4405 61.3985 59.5209 60.6903 59.1592C58.1741 57.8635 55.0803 55.9047 53.4781 52.2735C53.3676 52.4342 53.2672 52.5849 53.1918 52.7406C52.0266 55.0308 50.3793 56.7786 48.3 57.9288C47.6019 58.3155 47.1499 58.8479 46.7882 59.6966C46.1604 61.1833 45.9043 62.5795 46.0148 63.9707C46.055 64.4579 46.1052 65.0154 46.281 65.4775C47.2855 68.1594 47.8429 68.1996 49.9222 68.3402C50.2035 68.3603 50.4998 68.3553 50.7911 68.3503C50.7459 68.3001 50.6756 68.2348 50.5802 68.1544C50.4898 68.074 50.3994 67.9987 50.324 67.9133C48.8223 66.2961 47.9133 64.6036 47.5466 62.7302C47.416 62.0572 47.3809 61.3741 47.3508 60.7112C47.3407 60.5253 47.3357 60.3445 47.3206 60.1587C47.3106 59.9729 47.3156 59.5058 47.5918 59.1944C47.7124 59.0638 48.1292 58.647 48.6315 58.647C49.0232 58.647 49.5556 58.9282 49.7364 59.3451C49.872 59.6665 49.8821 60.003 49.8871 60.3044C49.8871 60.3847 49.8871 60.4651 49.8971 60.5454C50.088 63.8301 51.7655 66.3011 55.03 68.0992C55.5423 68.3804 56.0797 68.3704 56.6975 68.3553C56.808 68.3553 56.9185 68.3553 57.034 68.3503C57.7271 68.3503 58.1791 68.4758 58.4654 68.7722C58.6813 68.9982 58.7768 69.2945 58.7567 69.6561C58.7014 70.7058 57.8376 70.8565 57.3253 70.9469C55.2661 71.3035 53.1014 71.3688 50.8865 71.1327C48.747 70.9067 45.9344 70.535 43.1621 69.6611C42.9662 69.6009 42.7402 69.5757 42.4991 69.5506C42.2831 70.4697 42.3635 70.5049 43.0365 70.8062C44.4578 71.4391 46.07 71.8559 47.9635 72.0769C50.5199 72.3783 53.5534 72.6445 56.6724 72.3381C57.034 72.3029 57.5011 72.2828 57.9179 72.4285C58.3047 72.5641 58.6663 73.0111 58.7215 73.4229C58.7818 73.8398 58.5457 74.3822 58.2092 74.6082C57.8526 74.8493 57.3805 74.9949 56.9536 74.9949C56.7678 74.9849 56.6021 74.9949 56.4212 74.9949C55.7332 74.9949 55.0501 74.9949 54.352 74.9949L54.357 75.01ZM40.7714 71.2683C41.7809 72.1372 42.2229 72.3732 43.5638 72.8202C45.392 73.4279 47.3608 73.7946 49.415 73.9051C51.3988 74.0105 53.4279 74.0105 55.3866 74.0055C55.909 74.0055 56.4313 74.0055 56.9536 74.0055C57.1796 74.0055 57.4609 73.9201 57.6517 73.7896C57.6769 73.7594 57.7321 73.6288 57.7271 73.5736C57.717 73.5284 57.6266 73.4129 57.5714 73.3878C57.3403 73.3074 57.0038 73.3275 56.7678 73.3526C53.5534 73.669 50.4496 73.3978 47.8429 73.0914C45.849 72.8554 44.1414 72.4134 42.6247 71.7404C41.2184 71.1126 41.2284 70.4999 41.6252 68.9027L41.7307 68.4608L42.1777 68.521C42.2932 68.5361 42.4137 68.5462 42.5342 68.5612C42.8356 68.5914 43.142 68.6165 43.4584 68.7169C46.1454 69.5657 48.8926 69.9273 50.987 70.1483C53.1064 70.3743 55.1757 70.314 57.1395 69.9725C57.7321 69.8671 57.7371 69.8218 57.7472 69.6159C57.7472 69.5356 57.7421 69.4904 57.7321 69.4803C57.7321 69.4803 57.6266 69.3749 57.039 69.3648H56.7176C56.0144 69.3849 55.2912 69.405 54.5429 68.9881C50.9569 67.0143 49.1086 64.2721 48.8926 60.6157C48.8876 60.5253 48.8826 60.4299 48.8826 60.3395C48.8826 60.1085 48.8725 59.8925 48.8123 59.7519C48.7922 59.7368 48.6767 59.6715 48.6214 59.6665C48.5963 59.6715 48.4557 59.7469 48.3301 59.8875C48.3301 59.8875 48.31 59.993 48.3151 60.1135C48.3251 60.2993 48.3351 60.4902 48.3452 60.676C48.3753 61.3289 48.4055 61.9467 48.526 62.5494C48.8575 64.2319 49.6862 65.7688 51.0573 67.2403C51.1075 67.2956 51.1728 67.3458 51.2331 67.401C51.5294 67.6572 52.0819 68.1293 51.7906 69.0082L51.6751 69.3548H51.3134C51.1728 69.3548 51.0272 69.3548 50.8865 69.3598C50.55 69.3648 50.2085 69.3698 49.8569 69.3497C47.3759 69.184 46.4769 68.8726 45.3418 65.8391C45.1208 65.2514 45.0605 64.6136 45.0153 64.0561C44.8948 62.5042 45.176 60.9523 45.8691 59.3149C46.3111 58.2653 46.9339 57.5521 47.8178 57.0599C49.7213 56.0052 51.2281 54.403 52.3029 52.2936C52.4385 52.0274 52.5992 51.7964 52.775 51.5503C52.8503 51.4398 52.9307 51.3293 53.011 51.2088L53.3676 50.6714L53.7995 51.1435C53.8699 51.2238 53.9402 51.2841 54.0004 51.3444C54.1461 51.485 54.2968 51.6306 54.3922 51.8366C55.8638 55.2116 58.7818 57.0498 61.1624 58.2753C61.519 58.4561 61.5642 58.3958 61.6647 58.2753C61.7249 58.205 61.75 58.1347 61.745 58.0694C61.7299 57.974 61.6395 57.8584 61.4939 57.758C60.9565 57.3813 60.3638 57.0398 59.7913 56.7083L59.5603 56.5727C57.044 55.1062 55.3716 53.0168 54.5881 50.3499C54.0406 48.4766 53.8297 46.4626 53.9854 44.5289L54.0004 44.3531L54.126 44.2226C54.3118 44.0267 54.4926 43.8509 54.6634 43.6852C54.9899 43.3637 55.2761 43.0875 55.4871 42.7862C56.2153 41.7515 55.9893 40.3151 54.9748 39.5065C54.0507 38.7732 52.6444 38.8385 51.7755 39.6672C50.8514 40.5462 50.766 42.0027 51.5796 42.982C51.7956 43.2432 52.0668 43.4792 52.3481 43.7253C52.4887 43.8509 52.6293 43.9714 52.7699 44.102L52.9156 44.2427L52.9256 44.4436C53.011 46.0457 52.9056 47.6328 52.6143 49.1646C52.0266 52.2584 50.3542 54.6893 47.6471 56.3869C47.3809 56.5526 47.1047 56.7083 46.8234 56.864C46.5472 57.0147 46.276 57.1653 46.0098 57.3361C42.9461 59.2798 41.1983 62.0371 40.8015 65.5427C40.6508 66.8888 40.691 68.29 40.7312 69.6461C40.7463 70.1935 40.7613 70.7359 40.7664 71.2683H40.7714ZM44.0209 68.0339C43.3981 68.0339 42.916 67.843 42.5091 67.6823C42.3183 67.607 42.1375 67.5366 41.9667 67.4914L41.7256 67.4312L41.6252 67.2001C41.138 66.0601 41.4544 65.0556 41.7357 64.1716C41.801 63.9657 41.8663 63.7598 41.9215 63.5539C42.2379 62.3284 42.4388 62.1275 43.4433 61.2586L44.3775 60.445L44.3524 61.5801C44.3072 63.5539 44.3273 65.4724 45.0555 67.2805L45.2815 67.838L44.6889 67.9585C44.4478 68.0088 44.2268 68.0288 44.0209 68.0288V68.0339ZM42.469 66.5975C42.6096 66.6427 42.7452 66.6979 42.8758 66.7481C43.2022 66.8787 43.5136 66.9992 43.8903 67.0244C43.4383 65.6231 43.3328 64.1666 43.3278 62.7402C43.1118 63.0014 43.0365 63.2525 42.8908 63.81C42.8306 64.031 42.7653 64.257 42.6899 64.478C42.4639 65.1962 42.248 65.8742 42.469 66.5924V66.5975ZM53.453 43.1829C53.006 43.1829 52.5741 43.0021 52.2526 42.6807C51.896 42.3241 51.7102 41.8269 51.7403 41.3146C51.8006 40.3804 52.5942 39.6371 53.5082 39.6823C54.4173 39.7175 55.1606 40.4909 55.1707 41.41C55.1807 42.3442 54.4675 43.1176 53.5534 43.1729C53.5183 43.1729 53.4831 43.1729 53.453 43.1729V43.1829ZM53.453 40.6868C53.0964 40.6868 52.7699 41.0032 52.7448 41.3799C52.7298 41.6009 52.8101 41.8168 52.9658 41.9725C53.1115 42.1182 53.2973 42.1885 53.4932 42.1784C53.8849 42.1533 54.1712 41.8319 54.1712 41.4251C54.1712 41.0384 53.8498 40.7018 53.4731 40.6868C53.4681 40.6868 53.458 40.6868 53.453 40.6868Z" fill="#D8242A"/>
<path d="M51.9312 86.0345C52.3029 86.8682 53.001 87.0892 53.6489 87.2851C55.1205 87.727 56.5971 88.1991 58.1088 88.4704C62.8801 89.3292 67.7067 89.6205 72.5432 89.7511C76.5461 89.8616 80.5389 89.6456 84.5167 89.3091C87.7963 89.0329 91.071 88.626 94.2351 87.6567C95.2195 87.3554 96.2742 87.1243 97.0577 86.1148C96.6559 85.8034 96.3294 85.4217 95.9176 85.261C94.878 84.8542 93.7981 84.5478 92.7334 84.2063C92.2713 84.0556 91.7841 83.9552 91.3422 83.7593C91.0006 83.6086 90.7746 83.242 90.9806 82.9055C91.1363 82.6443 91.5029 82.5087 91.7791 82.333C91.8293 82.3028 91.9198 82.3179 91.985 82.333C93.6876 82.7347 95.4154 83.0662 96.9773 83.905C97.8613 84.3771 98.705 84.9195 98.7502 86.0646C98.8005 87.3252 97.9266 87.9832 96.9371 88.39C95.6514 88.9224 94.3054 89.3191 92.9644 89.7059C92.0855 89.962 91.2819 90.2282 90.5436 90.851C89.1624 92.0212 87.3745 92.2824 85.6568 92.6038C80.8754 93.5028 76.0439 93.5982 71.2023 93.4325C68.0482 93.327 64.9092 93.0307 61.8304 92.2824C60.394 91.9308 59.0128 91.5139 57.8677 90.4743C57.4358 90.0826 56.7477 89.952 56.1551 89.7661C55.0903 89.4296 53.9904 89.1936 52.9357 88.8219C52.2828 88.5909 51.645 88.2544 51.0925 87.8425C49.8118 86.8782 49.8118 85.482 51.0473 84.4826C51.3185 84.2666 51.6198 84.0808 51.9312 83.92C53.5635 83.0612 55.3465 82.6946 57.1294 82.3229C57.3153 82.2827 57.5965 82.3279 57.7221 82.4485C57.9079 82.6243 58.0586 82.8904 58.1038 83.1416C58.1339 83.2973 57.9832 83.5936 57.8426 83.6589C57.3354 83.8799 56.798 84.0356 56.2706 84.2063C55.2058 84.5478 54.126 84.8442 53.0814 85.2409C52.6545 85.4017 52.3079 85.7783 51.9363 86.0495L51.9312 86.0345ZM71.4433 91.5943C71.4433 91.6244 71.4534 91.6546 71.4534 91.6897H77.8871C76.0037 91.4939 74.1203 91.4888 72.2369 91.4989C71.9707 91.4989 71.7095 91.5642 71.4433 91.5943Z" fill="black"/>
<path d="M74.8435 93.9998C73.5427 93.9998 72.3122 93.9697 71.1872 93.9346C67.4806 93.809 64.4722 93.4373 61.7149 92.7694C60.2935 92.4228 58.7969 91.9909 57.5312 90.8458C57.27 90.6097 56.813 90.4791 56.371 90.3485C56.2455 90.3134 56.1249 90.2782 56.0044 90.2381C55.5624 90.1024 55.1204 89.9769 54.6735 89.8563C54.0457 89.6856 53.3978 89.5098 52.7649 89.2838C52.0467 89.0276 51.3637 88.666 50.7861 88.2291C50.0478 87.6716 49.6309 86.9433 49.6209 86.1799C49.6058 85.4115 50.0026 84.6632 50.7258 84.0755C50.992 83.8596 51.3034 83.6587 51.6901 83.4578C53.3726 82.5688 55.2109 82.1871 56.9888 81.8205C57.3353 81.7502 57.7924 81.8154 58.0636 82.0666C58.3348 82.3227 58.5307 82.6843 58.596 83.0359C58.6663 83.4276 58.4001 83.945 58.0435 84.1007C57.6065 84.2915 57.1596 84.4321 56.7276 84.5677L56.4263 84.6632C56.0898 84.7737 55.7483 84.8741 55.4067 84.9796C54.6935 85.1955 53.9552 85.4215 53.2571 85.6877C53.0412 85.7681 52.8252 85.9489 52.5942 86.1398C52.5942 86.1398 52.5891 86.1448 52.5841 86.1498C52.8604 86.4913 53.2622 86.637 53.7945 86.7977L54.2867 86.9484C55.5624 87.3351 56.8833 87.7369 58.1992 87.9729C63.2668 88.887 68.2993 89.1281 72.5583 89.2486C76.0238 89.3441 79.8107 89.2034 84.4765 88.8067C87.4046 88.5606 90.8399 88.1688 94.0894 87.1744L94.3807 87.089C95.0989 86.878 95.782 86.6721 96.3395 86.1598C96.1285 85.974 95.9327 85.8033 95.7418 85.7279C95.0035 85.4366 94.22 85.1955 93.4616 84.9595C93.1703 84.8691 92.879 84.7787 92.5877 84.6833C92.4421 84.638 92.2914 84.5928 92.1457 84.5527C91.8193 84.4572 91.4778 84.3618 91.1513 84.2162C90.8198 84.0705 90.5587 83.7943 90.4582 83.4779C90.3678 83.1966 90.403 82.9003 90.5587 82.6441C90.7395 82.3428 91.0408 82.1771 91.302 82.0314C91.3773 81.9912 91.4476 81.9511 91.5179 81.9059C91.754 81.7552 92.0101 81.8155 92.1106 81.8406L92.7083 81.9762C94.22 82.3227 95.787 82.6843 97.2234 83.4578C97.9617 83.8546 99.2022 84.5175 99.2625 86.0393C99.3127 87.305 98.5945 88.2492 97.138 88.8468C95.8623 89.3742 94.5615 89.7609 93.11 90.1828C92.2813 90.4239 91.538 90.665 90.8751 91.2275C89.4889 92.3977 87.7712 92.7191 86.1138 93.0255L85.7522 93.0908C81.9352 93.809 78.1483 93.9948 74.8435 93.9948V93.9998ZM57.2801 82.7998C57.2801 82.7998 57.2449 82.7998 57.2349 82.7998C55.4117 83.1765 53.7242 83.5281 52.1673 84.3518C51.8408 84.5225 51.5796 84.6883 51.3687 84.8641C50.8865 85.2508 50.6304 85.7179 50.6354 86.1699C50.6455 86.6219 50.9066 87.0589 51.4039 87.4305C51.9011 87.8072 52.4937 88.1186 53.1115 88.3396C53.7041 88.5505 54.337 88.7213 54.9447 88.887C55.4017 89.0126 55.8587 89.1381 56.3108 89.2788C56.4213 89.3139 56.5368 89.3491 56.6523 89.3792C57.1796 89.5299 57.7723 89.7007 58.2092 90.0974C59.2991 91.0818 60.6552 91.4736 61.956 91.79C64.648 92.4429 67.5911 92.8045 71.2223 92.9301C75.1599 93.0607 80.3481 93.0908 85.5714 92.1064L85.933 92.0411C87.5301 91.7448 89.0419 91.4685 90.2272 90.4641C91.0408 89.776 91.9248 89.4797 92.8338 89.2185C94.2552 88.8067 95.5258 88.425 96.7563 87.9227C97.8311 87.4807 98.2932 86.9132 98.2631 86.0795C98.2329 85.2859 97.7106 84.854 96.7563 84.3417C95.4354 83.6336 94.004 83.3071 92.4873 82.9555L91.9348 82.83C91.8896 82.8551 91.8394 82.8802 91.7942 82.9103C91.6535 82.9857 91.4677 83.0911 91.4225 83.1615C91.4225 83.1916 91.4627 83.2569 91.5581 83.2971C91.8243 83.4126 92.1156 83.498 92.422 83.5833C92.5827 83.6285 92.7384 83.6737 92.8991 83.724C93.1904 83.8194 93.4767 83.9098 93.768 83.9952C94.5414 84.2363 95.34 84.4874 96.1135 84.7887C96.4801 84.9294 96.7614 85.1855 97.0376 85.4266C97.1481 85.522 97.2586 85.6224 97.3791 85.7128L97.7759 86.0192L97.4645 86.416C96.6559 87.4556 95.6012 87.767 94.672 88.0433L94.3908 88.1286C91.0509 89.1532 87.5502 89.55 84.5669 89.8011C79.8609 90.1979 76.0388 90.3385 72.5382 90.2431C68.244 90.1225 63.1613 89.8815 58.0284 88.9523C56.6573 88.7062 55.3113 88.2944 54.0055 87.9026L53.5183 87.757C52.8553 87.5561 51.9513 87.2849 51.4842 86.2251L51.3185 85.8535L51.6449 85.6174C51.7504 85.5371 51.8559 85.4517 51.9613 85.3663C52.2326 85.1453 52.5339 84.8892 52.9056 84.7485C53.6338 84.4723 54.3872 84.2413 55.1154 84.0203C55.4519 83.9198 55.7834 83.8144 56.1199 83.7089L56.4313 83.6085C56.8381 83.4829 57.2198 83.3624 57.5865 83.2067C57.5915 83.1966 57.6015 83.1815 57.6065 83.1715C57.5714 83.0409 57.481 82.8902 57.3856 82.7998C57.3805 82.7998 57.3303 82.7998 57.2851 82.7998H57.2801ZM77.8871 92.1817H71.0114L70.8959 91.2476L71.378 91.0919C71.4534 91.0818 71.5337 91.0667 71.6091 91.0567C71.8049 91.0266 72.0109 90.9914 72.2318 90.9914C74.2408 90.9814 76.0589 90.9914 77.9373 91.1823L77.8871 92.1867V92.1817Z" fill="black"/>
<path d="M33.7802 73.3778C34.398 74.2768 35.2819 74.5983 36.1357 74.8394C37.8785 75.3366 39.6464 75.8288 41.4344 76.1C45.9395 76.778 50.4848 77.0241 55.0451 76.8885C55.7382 76.8684 56.4464 76.7278 57.1495 77.1446C57.1495 77.451 57.1646 77.7875 57.1445 78.119C57.1294 78.3802 57.0039 78.6463 57.034 78.8975C57.1897 80.3489 57.1144 80.5498 55.8286 80.5699C53.3777 80.6101 50.9217 80.6453 48.4808 80.4846C46.3262 80.3439 44.1565 80.1129 42.0622 79.4851C40.7764 79.0984 39.556 78.6514 38.5666 77.672C38.1949 77.3054 37.6224 77.1095 37.1151 76.9086C36.2713 76.5821 35.3673 76.3863 34.5486 75.9995C33.8656 75.6781 33.1976 75.2462 32.6502 74.7238C31.8164 73.9303 31.8014 72.7098 32.5799 71.8912C33.73 70.6758 35.2367 70.1283 36.8489 69.8571C37.2507 69.7918 37.5772 70.0932 37.5922 70.4347C37.6023 70.721 37.4064 71.1378 37.1703 71.2835C36.6982 71.5647 36.1207 71.6652 35.6184 71.9063C34.9404 72.2327 34.1468 72.4336 33.7852 73.3678L33.7802 73.3778ZM54.6484 78.8975C54.6484 78.8422 54.6484 78.792 54.6484 78.7368C53.2572 78.7368 51.871 78.7368 50.4798 78.7418C50.4597 78.7418 50.4396 78.8322 50.4094 78.8975H54.6484Z" fill="black"/>
<path d="M52.6193 81.1075C51.2381 81.1075 49.8419 81.0774 48.4457 80.9869C46.4668 80.8564 44.1414 80.6354 41.9165 79.9674C40.7011 79.6008 39.3149 79.1236 38.21 78.0338C37.9438 77.7726 37.4968 77.6018 37.0649 77.4361L36.9242 77.3809C36.5927 77.2503 36.2512 77.1448 35.8896 77.0293C35.3723 76.8686 34.8399 76.6978 34.3276 76.4567C33.5542 76.0951 32.851 75.623 32.2936 75.0906C31.2589 74.1062 31.2238 72.5844 32.2031 71.5498C33.298 70.3947 34.7445 69.7016 36.7535 69.3651C37.0799 69.3098 37.4114 69.3952 37.6675 69.6011C37.9187 69.802 38.0693 70.1034 38.0794 70.4148C38.0995 70.8969 37.7981 71.4795 37.4114 71.7105C37.1 71.9014 36.7685 72.0119 36.4471 72.1174C36.2211 72.1927 36.0101 72.263 35.8193 72.3534C35.7038 72.4087 35.5832 72.4639 35.4627 72.5191C34.9906 72.7301 34.5988 72.9009 34.3527 73.3077C34.8701 73.9104 35.5782 74.1514 36.2613 74.3473C38.1949 74.8998 39.8071 75.3417 41.4946 75.5929C45.8692 76.2508 50.4144 76.517 55.015 76.3764C55.1305 76.3764 55.251 76.3663 55.3666 76.3563C55.9793 76.3211 56.6774 76.2759 57.3906 76.6978L57.6367 76.8434V77.4009C57.6417 77.642 57.6467 77.8881 57.6317 78.1392C57.6216 78.2899 57.5915 78.4255 57.5614 78.5461C57.5362 78.6565 57.5111 78.767 57.5162 78.8323C57.6066 79.6962 57.6417 80.2487 57.2952 80.6404C56.9637 81.0171 56.4313 81.0522 55.8186 81.0623C54.7588 81.0774 53.6891 81.0974 52.6042 81.0974L52.6193 81.1075ZM36.9594 70.3595C36.9594 70.3595 36.9393 70.3595 36.9292 70.3595C35.1463 70.6558 33.8756 71.2535 32.9414 72.2429C32.3438 72.8757 32.3639 73.7697 32.9967 74.3674C33.4788 74.8244 34.0866 75.2363 34.7596 75.5527C35.2116 75.7636 35.6887 75.9143 36.196 76.075C36.5576 76.1905 36.9292 76.3061 37.2909 76.4467L37.4265 76.4969C37.9287 76.6878 38.5013 76.9087 38.9131 77.3156C39.8573 78.2447 41.0527 78.6616 42.2028 79.0031C44.3323 79.6409 46.5874 79.8569 48.5059 79.9825C50.9569 80.1432 53.4279 80.103 55.8136 80.0678C56.371 80.0578 56.5167 80.0076 56.5569 79.9825C56.6272 79.8669 56.5569 79.2241 56.5267 78.9529C56.5016 78.7218 56.5468 78.5159 56.592 78.3351C56.6121 78.2548 56.6322 78.1694 56.6372 78.089C56.6523 77.8781 56.6473 77.6671 56.6473 77.4612C56.2756 77.3206 55.8839 77.3457 55.4419 77.3708C55.3113 77.3809 55.1857 77.3859 55.0602 77.3909C50.4044 77.5315 45.7938 77.2603 41.359 76.5923C39.6112 76.3312 37.9689 75.8791 36.0001 75.3217C35.1011 75.0655 34.0815 74.7039 33.3684 73.6592L33.2177 73.4433L33.3131 73.1972C33.6898 72.2178 34.4532 71.8813 35.071 71.6101C35.1814 71.5599 35.2919 71.5147 35.3974 71.4644C35.6435 71.3439 35.8997 71.2585 36.1407 71.1782C36.422 71.0827 36.6882 70.9923 36.9092 70.8617C36.9795 70.8115 37.095 70.5805 37.09 70.465C37.09 70.4399 37.0699 70.4097 37.0448 70.3896C37.0197 70.3695 36.9945 70.3595 36.9594 70.3595ZM55.1506 79.3999H49.641L49.9474 78.6967C50.083 78.315 50.309 78.2397 50.4797 78.2397C51.7755 78.2347 53.0713 78.2347 54.3721 78.2347H55.1506V79.3999Z" fill="black"/>
<path d="M70.9762 53.1024C71.1068 52.7508 71.2726 51.9874 71.6492 51.3446C72.4026 50.0538 72.3725 48.8685 71.6141 47.5978C70.6799 46.0359 70.7251 44.4237 71.5639 42.8014C71.8803 42.1887 72.0561 41.5107 72.2871 40.8577C72.4478 40.4007 72.8094 40.1194 73.2012 40.1948C73.7185 40.3002 73.8641 40.702 73.8189 41.134C73.7587 41.6814 73.6331 42.2289 73.4724 42.7562C73.3719 43.0827 73.166 43.384 72.9953 43.6854C72.4378 44.6848 72.4729 45.6692 72.9953 46.6837C73.3117 47.2965 73.6381 47.9444 73.7737 48.6124C73.9796 49.652 73.8692 50.6866 73.3719 51.671C73.0304 52.349 72.8044 53.0823 72.5382 53.7955C72.3675 54.2576 72.0058 54.5388 71.6191 54.4534C71.1169 54.3429 70.9863 53.9663 70.9863 53.1024H70.9762Z" fill="black"/>
<path d="M71.7547 54.9706C71.6743 54.9706 71.589 54.9605 71.5086 54.9455C70.479 54.7245 70.479 53.71 70.479 53.1023V53.0118L70.5091 52.9265C70.5393 52.8411 70.5744 52.7306 70.6146 52.6C70.7402 52.1831 70.9109 51.6106 71.2173 51.0883C71.8702 49.9783 71.8551 48.9788 71.1821 47.8538C70.1877 46.1914 70.1626 44.4135 71.1168 42.5702C71.3278 42.1634 71.4734 41.7164 71.6241 41.2443C71.6844 41.0585 71.7446 40.8727 71.8099 40.6868C72.056 39.9787 72.6688 39.5718 73.2966 39.6974C74.0098 39.838 74.4015 40.4106 74.3161 41.184C74.2559 41.7214 74.1353 42.2789 73.9495 42.8967C73.8591 43.2031 73.7034 43.4642 73.5527 43.7204C73.5125 43.7907 73.4724 43.861 73.4322 43.9313C72.9751 44.755 72.9751 45.5536 73.4372 46.4526C73.7385 47.0352 74.1102 47.7584 74.2609 48.5118C74.4969 49.692 74.3463 50.8321 73.8139 51.8969C73.5728 52.379 73.392 52.8863 73.2011 53.4287C73.1359 53.6095 73.0706 53.7953 73.0053 53.9762C72.7742 54.5989 72.2921 54.9756 71.7547 54.9756V54.9706ZM71.4835 53.1826C71.4935 53.9109 71.604 53.936 71.7195 53.9611C71.83 53.9862 71.9807 53.8405 72.0611 53.6196C72.1264 53.4438 72.1916 53.263 72.2519 53.0872C72.4478 52.5397 72.6437 51.9772 72.9149 51.4449C73.3468 50.586 73.4673 49.6669 73.2715 48.7076C73.1459 48.0899 72.8245 47.4671 72.5432 46.9096C71.9305 45.7193 71.9305 44.5491 72.5533 43.4391C72.5985 43.3638 72.6437 43.2834 72.6889 43.2081C72.8144 42.9971 72.9299 42.7962 72.9902 42.6054C73.1559 42.0529 73.2664 41.5507 73.3167 41.0736C73.3568 40.732 73.2062 40.7019 73.1007 40.6818C72.9601 40.6517 72.8245 40.8275 72.7592 41.0183C72.6989 41.1941 72.6386 41.3749 72.5834 41.5507C72.4227 42.0429 72.2569 42.5501 72.0108 43.0273C71.2223 44.5641 71.2324 45.9704 72.046 47.3365C72.9048 48.7779 72.9199 50.1692 72.0862 51.5955C71.8401 52.0174 71.6894 52.5197 71.5739 52.8913C71.5387 53.0018 71.5086 53.1023 71.4835 53.1826Z" fill="black"/>
<path d="M78.0478 54.4282C78.1934 54.1269 78.4094 53.5342 78.7509 53.0219C79.3335 52.148 79.3185 51.3695 78.7158 50.5107C77.7264 49.0994 77.7565 47.658 78.6756 46.1914C79.0071 45.6641 79.1728 45.0363 79.4942 44.5039C79.6098 44.313 79.9613 44.1423 80.1773 44.1724C80.4033 44.2026 80.6645 44.4486 80.775 44.6696C80.8905 44.9007 80.9055 45.2221 80.8503 45.4782C80.7549 45.88 80.6494 46.3321 80.3933 46.6384C79.434 47.7986 79.5244 48.8533 80.3832 50.0587C81.1868 51.1887 81.0462 52.4293 80.3631 53.6246C80.0568 54.162 79.8257 54.7496 79.5545 55.3071C79.3637 55.6989 79.1226 56.0806 78.6153 55.945C78.1382 55.8194 78.0377 55.3875 78.0227 54.9455C78.0227 54.8752 78.0277 54.8049 78.0528 54.4282H78.0478Z" fill="black"/>
<path d="M78.8162 56.4725C78.7107 56.4725 78.6003 56.4574 78.4847 56.4273C77.877 56.2666 77.5506 55.7744 77.5204 54.9658C77.5204 54.9105 77.5204 54.8603 77.5305 54.7247L77.5556 54.2978L77.6008 54.2074C77.636 54.1321 77.6761 54.0366 77.7264 53.9312C77.867 53.6047 78.0629 53.1527 78.3391 52.7409C78.8012 52.0478 78.7911 51.4852 78.309 50.7922C77.2191 49.2402 77.199 47.5979 78.2537 45.9204C78.4044 45.6793 78.5199 45.4031 78.6455 45.1168C78.766 44.8305 78.8966 44.5292 79.0673 44.2429C79.2833 43.8813 79.8307 43.6151 80.2476 43.6704C80.6695 43.7256 81.0612 44.0973 81.227 44.4388C81.3877 44.7602 81.4329 45.1972 81.3375 45.5889C81.237 46.0209 81.1115 46.5532 80.78 46.955C80.0116 47.8842 80.0116 48.6727 80.79 49.7626C81.6438 50.9629 81.6489 52.3843 80.7951 53.8709C80.6092 54.1974 80.4535 54.5439 80.2878 54.9105C80.1974 55.1165 80.102 55.3224 80.0015 55.5283C79.881 55.7794 79.5394 56.4775 78.8162 56.4775V56.4725ZM78.545 54.5539L78.5299 54.79C78.5299 54.8653 78.5199 54.8955 78.5199 54.9256C78.54 55.4027 78.6555 55.4329 78.7409 55.458C78.8263 55.4781 78.8966 55.4982 79.0975 55.0863C79.1929 54.8904 79.2783 54.6946 79.3687 54.4987C79.5344 54.127 79.7102 53.7403 79.9212 53.3737C80.5741 52.2336 80.5891 51.2191 79.9664 50.3452C78.9267 48.8836 78.9368 47.6029 80.0015 46.3172C80.1823 46.0962 80.2777 45.6894 80.3531 45.3629C80.3882 45.2072 80.3732 45.0013 80.3179 44.8908C80.2677 44.7904 80.1421 44.6799 80.0869 44.6648C80.0668 44.6698 79.9412 44.7301 79.9061 44.7703C79.7805 44.9862 79.67 45.2424 79.5545 45.5086C79.4189 45.82 79.2833 46.1464 79.0874 46.4528C78.2587 47.7787 78.2638 49.0092 79.1125 50.2146C79.8358 51.2442 79.8508 52.2537 79.1577 53.2933C78.9317 53.6298 78.766 54.0165 78.6304 54.3229C78.5952 54.4033 78.5601 54.4786 78.5299 54.5489L78.545 54.5539Z" fill="black"/>
<path d="M53.5283 56.0607C53.8146 56.121 54.0456 56.1159 54.2063 56.2164C56.2957 57.5724 57.8627 59.3906 58.9475 61.6255C59.0028 61.741 59.0429 61.9168 58.9927 62.0273C58.8923 62.2634 58.7767 62.5748 58.5758 62.6752C58.375 62.7757 58.0435 62.7204 57.8074 62.625C57.6367 62.5597 57.5061 62.3437 57.4106 62.1629C56.4212 60.3699 55.0752 58.8883 53.463 57.6377C53.3023 57.5122 53.1466 57.3514 53.0612 57.1706C52.9809 56.9999 52.9206 56.7387 53.001 56.5931C53.1165 56.3721 53.3576 56.2214 53.5233 56.0557L53.5283 56.0607Z" fill="#D8242A"/>
<path d="M58.3147 63.2328C58.0134 63.2328 57.7371 63.1374 57.6317 63.0972C57.3203 62.9766 57.1244 62.6803 56.9737 62.4091C56.0596 60.7517 54.8141 59.3203 53.1617 58.0396C52.9859 57.904 52.7448 57.678 52.6092 57.3817C52.5439 57.241 52.3531 56.7589 52.559 56.3621C52.6846 56.121 52.8804 55.9503 53.0412 55.8197C53.0914 55.7795 53.1366 55.7393 53.1818 55.6992L53.3726 55.5083L53.6388 55.5686C53.7242 55.5887 53.8046 55.5987 53.8749 55.6087C54.0657 55.6339 54.2867 55.669 54.4826 55.7946C56.6121 57.1757 58.2645 59.0642 59.4046 61.4096C59.51 61.6256 59.5804 61.9521 59.4598 62.2283L59.4297 62.2986C59.3142 62.5748 59.1535 62.9515 58.8069 63.1273C58.6512 63.2077 58.4754 63.2328 58.3147 63.2328ZM53.4731 56.794C53.4731 56.8342 53.4932 56.9045 53.5233 56.9698C53.5585 57.0502 53.6539 57.1557 53.7744 57.2511C55.5373 58.6172 56.8733 60.149 57.8526 61.927C57.9581 62.1128 58.0033 62.163 58.0234 62.1781C58.1691 62.2333 58.3298 62.2383 58.3649 62.2283C58.38 62.2032 58.4604 62.0123 58.5056 61.9119V61.8918C58.5056 61.8918 58.5056 61.8617 58.5005 61.8516C57.4458 59.6769 55.909 57.9241 53.9352 56.6434C53.9151 56.6333 53.8096 56.6183 53.7343 56.6082C53.7192 56.6082 53.6991 56.6082 53.684 56.6032C53.6037 56.6685 53.5233 56.7438 53.4781 56.8041L53.4731 56.794Z" fill="#D8242A"/>
<path d="M52.4385 60.3997C52.7549 60.5102 53.0111 60.5253 53.1266 60.6558C53.3526 60.912 53.5183 61.2234 53.669 61.5297C54.2215 62.6698 54.9296 63.6944 55.8387 64.5783C56.0345 64.7742 56.2304 64.9751 56.3962 65.1961C56.6624 65.5577 56.6021 66.0449 56.2806 66.3211C55.9642 66.5923 55.6378 66.5371 55.3314 66.3111C54.0808 65.3719 53.1517 64.1615 52.4536 62.7803C52.2125 62.2982 52.0467 61.7457 51.9865 61.2083C51.9614 60.9572 52.2728 60.6659 52.4335 60.3896L52.4385 60.3997Z" fill="#D8242A"/>
<path d="M55.8286 67.0094C55.5624 67.0094 55.2862 66.9139 55.0301 66.7181C53.7945 65.7939 52.78 64.5433 52.0066 63.0115C51.7354 62.4691 51.5545 61.8614 51.4893 61.2687C51.4491 60.8971 51.6751 60.6007 51.8559 60.3597C51.9111 60.2894 51.9664 60.214 52.0066 60.1437L52.2175 59.7871L52.6093 59.9227C52.7047 59.9579 52.7951 59.978 52.8704 59.9981C53.0964 60.0583 53.3275 60.1186 53.5083 60.3245C53.7795 60.6359 53.9703 60.9975 54.126 61.3139C54.6785 62.454 55.3565 63.4033 56.1953 64.2219C56.3761 64.3977 56.6071 64.6337 56.803 64.8999C57.2198 65.4624 57.1395 66.261 56.6121 66.708C56.3761 66.9089 56.1099 67.0094 55.8387 67.0094H55.8286ZM52.4937 61.2034C52.549 61.6605 52.6946 62.1426 52.9056 62.5645C53.6188 63.9808 54.5077 65.0757 55.6327 65.9195C55.8236 66.0601 55.8788 66.0099 55.9542 65.9496C56.0797 65.8442 56.0998 65.6483 55.9944 65.5026C55.8387 65.2917 55.6428 65.0908 55.4921 64.9451C54.5831 64.0562 53.8197 62.9814 53.222 61.7559C53.1065 61.5148 52.9608 61.2386 52.78 61.0226C52.7499 61.0126 52.6946 60.9975 52.6494 60.9824C52.5942 61.0578 52.5239 61.1482 52.4988 61.2034H52.4937Z" fill="#D8242A"/>
<path d="M85.9832 67.8936C78.2186 69.0739 70.69 69.0689 63.1162 67.9188C62.6189 66.4171 62.85 64.9806 62.9354 63.4287C65.5269 63.6597 68.003 63.9762 70.4891 64.0816C73.0806 64.1921 75.6823 64.1971 78.2738 64.0866C80.78 63.9812 83.2812 63.6648 85.8828 63.4337C86.3248 64.83 86.1239 66.2563 85.9832 67.8936Z" fill="white"/>
<path d="M74.4317 69.2848C70.6448 69.2848 66.8629 68.9935 63.0458 68.4159L62.7395 68.3707L62.644 68.0794C62.2021 66.7435 62.2925 65.4477 62.3879 64.1971C62.408 63.9359 62.4281 63.6697 62.4432 63.4035L62.4733 62.8862L62.9906 62.9314C63.7942 63.0017 64.5827 63.0821 65.3662 63.1625C67.1391 63.3433 68.8166 63.509 70.5192 63.5843C73.1058 63.6948 75.7124 63.6999 78.2588 63.5894C79.9814 63.514 81.669 63.3483 83.457 63.1675C84.2455 63.0871 85.039 63.0068 85.8426 62.9365L86.2444 62.9013L86.3649 63.283C86.7868 64.6139 86.6663 65.96 86.5357 67.3863L86.4553 68.3356L86.0636 68.3958C82.1361 68.9935 78.2788 69.2948 74.4317 69.2948V69.2848ZM63.5079 67.4667C70.8658 68.5515 78.0729 68.5465 85.5212 67.4516L85.5362 67.2859C85.6467 66.0654 85.7472 64.9906 85.5111 63.9661C84.8532 64.0263 84.2053 64.0916 83.5574 64.1569C81.7544 64.3377 80.0518 64.5085 78.2989 64.5838C75.7224 64.6943 73.0857 64.6943 70.469 64.5788C68.7362 64.5034 67.0487 64.3327 65.2557 64.1519C64.643 64.0916 64.0252 64.0263 63.4024 63.9711C63.3974 64.0665 63.3874 64.1669 63.3823 64.2624C63.302 65.3673 63.2267 66.417 63.5079 67.4667Z" fill="black"/>
<path d="M89.4537 77.8329C89.3282 77.3257 89.1876 77.0042 89.1825 76.6778C89.1574 74.5031 89.1574 72.3283 89.1675 70.1536C89.1675 68.4611 90.2925 67.4466 91.5531 66.6831C92.8891 65.8745 94.7273 66.8137 94.9282 68.4008C95.335 71.575 94.6771 74.4227 91.8946 76.4116C91.1714 76.9289 90.4331 77.4512 89.4537 77.8329Z" fill="white"/>
<path d="M89.1022 78.5111L88.9666 77.9536C88.9264 77.7878 88.8812 77.6372 88.846 77.5066C88.7606 77.2153 88.6853 76.9641 88.6853 76.6879C88.6602 74.3776 88.6652 72.0874 88.6702 70.1537C88.6753 68.0845 90.1719 66.9394 91.302 66.2563C92.0554 65.7993 93.0096 65.7692 93.8433 66.171C94.7172 66.5928 95.3149 67.4065 95.4354 68.3407C95.9226 72.1426 94.8629 74.915 92.191 76.8235C91.4979 77.3207 90.7093 77.8883 89.6446 78.3051L89.1072 78.5161L89.1022 78.5111ZM92.6229 66.8892C92.3366 66.8892 92.0604 66.9645 91.8143 67.1152C90.3126 68.0242 89.6747 68.9333 89.6697 70.1588C89.6647 72.0874 89.6647 74.3726 89.6848 76.6779C89.6848 76.8034 89.7249 76.9541 89.7802 77.145C90.4884 76.8034 91.071 76.3866 91.5983 76.0099C93.9388 74.3374 94.8629 71.8664 94.4259 68.4712C94.3506 67.8736 93.9639 67.3563 93.3963 67.08C93.1402 66.9595 92.879 66.8942 92.6179 66.8942L92.6229 66.8892Z" fill="black"/>
<path d="M84.0546 61.4499C83.9893 61.8818 83.6528 61.9873 83.3012 62.0274C82.0506 62.1731 80.795 62.389 79.5394 62.4342C74.9841 62.605 70.4288 62.6954 65.8935 62.0676C65.4315 62.0023 64.874 62.0726 64.7333 61.4197C68.9873 60.3248 80.5339 60.3449 84.0546 61.4549V61.4499Z" fill="white"/>
<path d="M73.9997 63.062C71.3027 63.062 68.5554 62.9414 65.8232 62.5647C65.7579 62.5547 65.6926 62.5497 65.6223 62.5447C65.2055 62.5095 64.437 62.4392 64.2361 61.5251L64.1357 61.053L64.6028 60.9325C68.907 59.8225 80.6293 59.8476 84.2003 60.9726L84.6121 61.1032L84.5468 61.5301C84.4564 62.1127 84.0546 62.4492 83.3515 62.5296C83.0049 62.5698 82.6634 62.615 82.3168 62.6602C81.4128 62.7807 80.4837 62.9013 79.5495 62.9364C77.7364 63.0017 75.8781 63.062 73.9897 63.062H73.9997ZM66.3003 61.6155C70.7452 62.1981 75.2654 62.0926 79.5244 61.9319C80.4083 61.8968 81.3174 61.7762 82.1963 61.6607C82.3118 61.6456 82.4324 61.6306 82.5479 61.6155C78.5902 60.9325 70.6447 60.9274 66.3003 61.6155Z" fill="black"/>
<path d="M44.5834 67.4717C43.4433 67.7077 42.8105 67.1854 42.0822 67.0046C41.5599 65.7841 42.1274 64.7344 42.3986 63.6797C42.6949 62.5396 42.8356 62.4392 43.8401 61.5703C43.7898 63.6546 43.83 65.6134 44.5834 67.4717Z" fill="white"/>
<path d="M44.0209 68.0342C43.3981 68.0342 42.9159 67.8433 42.5091 67.6826C42.3183 67.6073 42.1375 67.537 41.9667 67.4918L41.7256 67.4315L41.6252 67.2005C41.138 66.0604 41.4544 65.0559 41.7357 64.172C41.801 63.966 41.8663 63.7601 41.9215 63.5542C42.2379 62.3287 42.4388 62.1278 43.4433 61.2589L44.3775 60.4453L44.3524 61.5804C44.3072 63.5542 44.3272 65.4728 45.0555 67.2808L45.2815 67.8383L44.6889 67.9589C44.4478 68.0091 44.2268 68.0292 44.0209 68.0292V68.0342ZM42.469 66.5978C42.6096 66.643 42.7452 66.6982 42.8758 66.7485C43.2022 66.879 43.5136 66.9996 43.8903 67.0247C43.4383 65.6234 43.3328 64.1669 43.3278 62.7406C43.1118 63.0017 43.0365 63.2528 42.8908 63.8103C42.8306 64.0313 42.7653 64.2573 42.6899 64.4783C42.4639 65.1965 42.248 65.8746 42.469 66.5928V66.5978Z" fill="#D8242A"/>
<path d="M54.6735 41.4205C54.6785 42.0935 54.1863 42.6359 53.5284 42.6761C52.8001 42.7213 52.2024 42.0985 52.2476 41.3451C52.2878 40.6922 52.8554 40.1598 53.4932 40.1849C54.1361 40.21 54.6685 40.7625 54.6735 41.4205Z" fill="white"/>
<path d="M53.453 43.1832C53.006 43.1832 52.5741 43.0024 52.2526 42.681C51.896 42.3244 51.7102 41.8272 51.7404 41.3149C51.8006 40.3807 52.5942 39.6374 53.5082 39.6826C54.4173 39.7178 55.1606 40.4912 55.1707 41.4154C55.1807 42.3495 54.4675 43.123 53.5534 43.1782C53.5183 43.1782 53.4831 43.1782 53.453 43.1782V43.1832ZM53.453 40.6871C53.0964 40.6871 52.7699 41.0035 52.7448 41.3802C52.7298 41.6012 52.8101 41.8172 52.9658 41.9728C53.1115 42.1185 53.2973 42.1888 53.4932 42.1788C53.8849 42.1537 54.1712 41.8322 54.1712 41.4254C54.1712 41.0387 53.8498 40.7022 53.4731 40.6871C53.4681 40.6871 53.458 40.6871 53.453 40.6871Z" fill="#D8242A"/>
<path d="M55.6528 77.8931H51.4139C51.444 77.8278 51.4641 77.7374 51.4842 77.7374C52.8754 77.7324 54.2616 77.7324 55.6528 77.7324C55.6528 77.7877 55.6528 77.8379 55.6528 77.8931Z" fill="white"/>
<path d="M56.15 78.3952H50.6454L50.9518 77.692C51.0874 77.3103 51.3134 77.235 51.4842 77.235C52.7197 77.23 53.9502 77.23 55.1907 77.23H56.155V78.3952H56.15Z" fill="black"/>
<path d="M72.7291 77.5617C72.7291 76.743 72.7542 75.9244 72.724 75.1057C72.6839 74.1765 73.5778 73.2976 74.4769 73.3127C75.4311 73.3328 76.1845 74.0309 76.2146 75.1157C76.2648 76.8033 76.2297 78.4958 76.2196 80.1884C76.2196 80.3441 76.1996 80.545 76.1041 80.6504C75.9685 80.7961 75.7576 80.9618 75.5818 80.9568C75.406 80.9568 75.1398 80.781 75.0896 80.6203C74.9891 80.319 74.9942 79.9774 74.9891 79.651C74.9791 78.3401 74.9891 77.0343 74.9741 75.7235C74.9741 75.3468 75.0092 74.9299 74.5371 74.7692C74.2207 74.6637 73.9746 75.0504 73.9696 75.7335C73.9545 77.0443 73.9696 78.3502 73.9545 79.661C73.9545 79.9825 73.9495 80.324 73.844 80.6253C73.7888 80.781 73.5226 80.9518 73.3468 80.9568C73.1761 80.9568 72.9149 80.8011 72.8396 80.6404C72.7291 80.4094 72.719 80.1181 72.714 79.8469C72.6989 79.0835 72.709 78.32 72.709 77.5566H72.719L72.7291 77.5617Z" fill="black"/>
<path d="M73.3519 81.4641C72.9852 81.4641 72.5583 81.1979 72.3976 80.8614C72.2369 80.5249 72.2318 80.1432 72.2268 79.862C72.2168 79.3095 72.2168 78.752 72.2218 78.1995L72.2318 77.0594V76.8033C72.2419 76.2508 72.2469 75.6783 72.2218 75.1258C72.1967 74.5533 72.4378 73.9606 72.8797 73.5086C73.3267 73.0516 73.8993 72.7954 74.4869 72.8055C75.7425 72.8306 76.6817 73.7949 76.7169 75.0957C76.7571 76.3864 76.742 77.6973 76.7319 78.9629L76.7219 80.1834C76.7219 80.54 76.6415 80.7961 76.4808 80.9769C76.3452 81.1226 76.0037 81.439 75.5718 81.4541C75.2202 81.444 74.7431 81.1628 74.6175 80.776C74.497 80.4194 74.497 80.0428 74.4919 79.7113V79.656C74.4869 78.9981 74.4869 78.3452 74.4869 77.6873C74.4869 77.0343 74.4869 76.3814 74.4819 75.7285V75.6733C74.4819 75.6733 74.4819 75.7185 74.4819 75.7436C74.4719 76.4367 74.4718 77.1348 74.4718 77.8279C74.4718 78.4406 74.4719 79.0584 74.4668 79.6711C74.4668 80.0227 74.4618 80.4194 74.3312 80.7961C74.2006 81.1829 73.7185 81.4591 73.3669 81.4641H73.3519ZM73.3066 80.4295C73.3066 80.4295 73.3318 80.4395 73.3519 80.4496C73.3669 80.4395 73.382 80.4295 73.3971 80.4245C73.4573 80.2085 73.4623 79.9323 73.4623 79.6661C73.4674 79.0534 73.4674 78.4456 73.4674 77.8329C73.4674 77.1348 73.4674 76.4367 73.4774 75.7386C73.4875 75.1007 73.6632 74.6437 73.9847 74.4126C74.1956 74.262 74.4518 74.2218 74.7029 74.3072C75.4864 74.5683 75.4864 75.2966 75.4864 75.6481V75.7335C75.4914 76.3915 75.4914 77.0444 75.4914 77.7023C75.4914 78.3552 75.4914 79.0081 75.4964 79.6611V79.7163C75.4964 79.9674 75.4964 80.2236 75.5567 80.4295C75.5667 80.4345 75.5768 80.4446 75.5868 80.4496C75.617 80.4295 75.6622 80.3943 75.7074 80.3542C75.7124 80.329 75.7174 80.2838 75.7224 80.1985L75.7325 78.973C75.7425 77.7174 75.7526 76.4166 75.7174 75.1459C75.6923 74.3725 75.1951 73.8451 74.4668 73.83C74.1755 73.83 73.8491 73.9757 73.5979 74.2268C73.3468 74.4829 73.2112 74.7994 73.2263 75.0957C73.2514 75.6733 73.2464 76.2609 73.2414 76.8234C73.2414 77.0745 73.2414 77.3206 73.2414 77.5717L73.2313 78.2146C73.2313 78.7621 73.2313 79.3095 73.2363 79.8519C73.2363 80.0428 73.2464 80.2989 73.3117 80.4395L73.3066 80.4295Z" fill="black"/>
<path d="M81.9201 74.3723C81.4932 74.5179 81.4631 74.8846 81.4631 75.2512C81.458 76.4315 81.4631 77.6117 81.453 78.792C81.453 79.1486 81.4731 79.5253 81.3727 79.8568C81.3174 80.0476 81.0362 80.2887 80.8553 80.2887C80.6796 80.2887 80.4887 80.0275 80.328 79.8517C80.2727 79.7915 80.2928 79.6559 80.2928 79.5504C80.2928 77.9583 80.2677 76.3662 80.2928 74.7741C80.3079 73.9152 80.7599 73.3176 81.4279 73.1267C82.4525 72.8404 83.4168 73.4833 83.5423 74.5531C83.5675 74.754 83.5574 74.9649 83.5574 75.1708C83.5574 76.3511 83.5574 77.5314 83.5574 78.7116C83.5574 78.9678 83.5976 79.2591 83.4871 79.465C83.3917 79.6508 83.1355 79.8166 82.9246 79.8568C82.794 79.8819 82.5278 79.681 82.4826 79.5353C82.3922 79.249 82.3972 78.9326 82.3922 78.6263C82.3822 77.4962 82.3922 76.3662 82.3822 75.2361C82.3822 74.8695 82.352 74.5079 81.9201 74.3622V74.3723Z" fill="black"/>
<path d="M80.8553 80.7959C80.4786 80.7959 80.2225 80.4995 80.0317 80.2785L79.9563 80.1932C79.7755 79.9923 79.7856 79.7512 79.7906 79.6005V78.2897C79.7805 77.1395 79.7755 75.9442 79.7906 74.774C79.8056 73.7243 80.3832 72.9107 81.2923 72.6545C81.9201 72.4787 82.578 72.5741 83.0953 72.9207C83.6177 73.2723 83.9642 73.8498 84.0395 74.5078C84.0647 74.7037 84.0596 74.8845 84.0596 75.0602V75.1808V75.7383C84.0596 76.7327 84.0596 77.7272 84.0596 78.7266C84.0596 78.7768 84.0596 78.8271 84.0596 78.8773C84.0647 79.1234 84.0747 79.4298 83.9341 79.706C83.7482 80.0726 83.3264 80.3037 83.015 80.3589C82.6132 80.4342 82.116 80.0576 82.0004 79.6959C81.9753 79.6156 81.9552 79.5352 81.9402 79.4498C81.9301 79.6306 81.9 79.8165 81.8498 79.9973C81.7393 80.3689 81.2873 80.7908 80.8553 80.7908V80.7959ZM80.7951 79.6256C80.8202 79.6507 80.8503 79.6909 80.8804 79.7211C80.8905 79.711 80.8955 79.701 80.9005 79.6959C80.9558 79.5101 80.9558 79.254 80.9508 78.9777V78.7919C80.9558 78.1289 80.9558 77.461 80.9558 76.798C80.9558 76.2807 80.9558 75.7684 80.9558 75.2511C80.9558 74.9297 80.9608 74.1763 81.7493 73.9001L81.91 73.8448L82.0708 73.9001C82.8693 74.1663 82.8693 74.9246 82.8743 75.2461C82.8743 75.7333 82.8743 76.2204 82.8743 76.7076C82.8743 77.3505 82.8743 77.9883 82.8844 78.6312V78.6915C82.8844 78.9225 82.8844 79.1485 82.9346 79.3293C82.9798 79.3042 83.02 79.269 83.0351 79.2489C83.0602 79.1987 83.0551 79.0179 83.0501 78.9074C83.0501 78.8472 83.0501 78.7819 83.0501 78.7216C83.0501 77.7272 83.0501 76.7327 83.0501 75.7383V75.1808V75.0552C83.0501 74.9096 83.0501 74.7689 83.0351 74.6233C82.9899 74.2516 82.8091 73.9453 82.5278 73.7544C82.2516 73.5686 81.905 73.5184 81.5534 73.6188C81.0813 73.7494 80.7951 74.1863 80.785 74.789C80.7649 75.9542 80.7699 77.1395 80.78 78.2846V79.5553V79.6206L80.7951 79.6256ZM80.7047 79.5202L80.7147 79.5302L80.7047 79.5202Z" fill="black"/>
<path d="M68.8769 77.1597C68.8769 77.8478 68.8819 78.5359 68.8769 79.224C68.8769 79.4851 68.8618 79.7563 68.7966 80.0125C68.7313 80.2787 68.5404 80.5398 68.2441 80.4394C68.0331 80.3691 67.7921 80.1531 67.7218 79.9472C67.6213 79.6609 67.6615 79.3194 67.6565 79.003C67.6514 77.9985 67.6565 76.989 67.6565 75.9845C67.6565 75.6128 67.6565 75.2412 67.6263 74.8745C67.6062 74.5883 67.4556 74.2919 67.1743 74.3522C66.9985 74.3874 66.8127 74.7138 66.7625 74.9348C66.6871 75.2914 66.7173 75.6731 66.7122 76.0448C66.7072 76.9438 66.7173 77.8478 66.7022 78.7468C66.6972 79.0632 66.6821 79.3897 66.5766 79.681C66.5214 79.8266 66.2602 79.9823 66.0945 79.9823C65.9237 79.9823 65.6977 79.8266 65.5973 79.676C65.4918 79.5153 65.4667 79.2742 65.4667 79.0683C65.4566 77.6921 65.4416 76.316 65.4667 74.9398C65.4717 74.5832 65.5621 74.2015 65.7128 73.8751C66.0192 73.2071 66.6721 72.9058 67.4204 72.9962C68.1336 73.0815 68.7413 73.5788 68.8016 74.317C68.8769 75.2613 68.8217 76.2205 68.8217 77.1748C68.8418 77.1748 68.8568 77.1748 68.8769 77.1748V77.1597Z" fill="black"/>
<path d="M68.3696 80.9617C68.2742 80.9617 68.1788 80.9466 68.0884 80.9165C67.7217 80.7959 67.3702 80.4544 67.2496 80.1079C67.1743 79.8869 67.1542 79.6659 67.1542 79.4549C67.1341 79.5855 67.0989 79.7211 67.0487 79.8517C66.9131 80.2284 66.4259 80.4896 66.0894 80.4845C65.7228 80.4795 65.3511 80.2133 65.1804 79.9522C64.9895 79.6709 64.9694 79.3143 64.9644 79.0732V78.9728C64.9544 77.6469 64.9443 76.2757 64.9644 74.9297C64.9745 74.5028 65.0749 74.0508 65.2557 73.6641C65.6424 72.8253 66.5013 72.3733 67.4807 72.4939C68.4801 72.6144 69.2285 73.3477 69.3038 74.2718C69.359 74.9599 69.344 75.6479 69.3339 76.3159C69.3339 76.4314 69.3339 76.547 69.3289 76.6625H69.3791V77.7473C69.3791 78.2445 69.3791 78.7418 69.3791 79.239C69.3791 79.5102 69.3641 79.8266 69.2837 80.138C69.2033 80.4695 69.0225 80.7256 68.7714 80.8612C68.6459 80.9315 68.5103 80.9667 68.3696 80.9667V80.9617ZM67.2446 73.8399C67.4204 73.8399 67.5861 73.8951 67.7268 74.0056C67.9578 74.1814 68.1034 74.4878 68.1285 74.8444C68.1537 75.221 68.1537 75.6027 68.1587 75.9844C68.1587 76.4365 68.1587 76.8935 68.1587 77.3455C68.1587 77.898 68.1587 78.4505 68.1587 79.0029C68.1587 79.0783 68.1587 79.1536 68.1587 79.2289C68.1587 79.4449 68.1486 79.6458 68.1989 79.7864C68.2139 79.8166 68.2591 79.8668 68.3043 79.907C68.3043 79.907 68.3043 79.8969 68.3043 79.8919C68.3596 79.681 68.3646 79.4349 68.3696 79.2189C68.3746 78.7267 68.3746 78.2345 68.3696 77.7473V77.6619H68.3144V77.1597C68.3144 76.8684 68.3194 76.5821 68.3244 76.2908C68.3345 75.6178 68.3495 74.98 68.2993 74.3471C68.2591 73.8248 67.7971 73.5385 67.3601 73.4883C67.0387 73.4531 66.4511 73.4732 66.1698 74.0809C66.0493 74.3421 65.9789 74.6585 65.9739 74.9448C65.9488 76.2808 65.9589 77.6418 65.9689 78.9627V79.0632C65.9689 79.3193 66.0141 79.3896 66.0191 79.3947C66.0342 79.4148 66.0744 79.4499 66.1045 79.465C66.1095 79.465 66.1196 79.4549 66.1246 79.4499C66.1899 79.234 66.1999 78.9678 66.205 78.7367C66.215 78.1893 66.215 77.6368 66.215 77.0894C66.215 76.7378 66.215 76.3913 66.215 76.0447V75.7986C66.21 75.4872 66.205 75.1658 66.2753 74.8343C66.3456 74.5079 66.6218 73.9604 67.0738 73.865C67.1341 73.8549 67.1944 73.8449 67.2496 73.8449L67.2446 73.8399Z" fill="black"/>
</g>
<defs>
<clipPath id="clip0_1403_118">
<rect width="67.7625" height="56" fill="white" transform="translate(31.5 38)"/>
</clipPath>
</defs>
</svg>
