<svg width="59" height="48" viewBox="0 0 59 48" fill="none" xmlns="http://www.w3.org/2000/svg">
<path d="M56.9097 38.5676L49.0978 46.2927C48.9796 46.4111 48.8377 46.5053 48.6804 46.5696C48.5232 46.634 48.354 46.6672 48.183 46.6672C48.012 46.6672 47.8428 46.634 47.6856 46.5696C47.5283 46.5053 47.3863 46.4111 47.2682 46.2927L39.4445 38.5676C38.9007 38.0243 38.478 37.3808 38.2021 36.6762C37.9261 35.9715 37.8027 35.2205 37.8393 34.4688C37.876 33.717 38.0719 32.9803 38.4152 32.3034C38.7585 31.6264 39.242 31.0234 39.8363 30.531C42.0498 28.7226 45.3446 29.0303 47.3701 31.0563L48.1536 31.8404L48.9371 31.0563C50.9665 29.049 54.2574 28.7226 56.4709 30.531C57.0684 31.0202 57.5558 31.6208 57.9032 32.296C58.2507 32.9713 58.4511 33.7073 58.4921 34.4591C58.5332 35.2109 58.4141 35.9628 58.142 36.6691C57.87 37.3754 57.4507 38.0214 56.9097 38.5676V38.5676Z" fill="#D8242A"/>
<path d="M56.9097 38.5676L49.0978 46.2927C48.9796 46.4111 48.8377 46.5053 48.6804 46.5696C48.5232 46.634 48.354 46.6672 48.183 46.6672C48.012 46.6672 47.8428 46.634 47.6856 46.5696C47.5283 46.5053 47.3863 46.4111 47.2682 46.2927L39.4445 38.5676C38.9007 38.0243 38.478 37.3808 38.2021 36.6762C37.9261 35.9715 37.8027 35.2205 37.8393 34.4688C37.876 33.717 38.0719 32.9803 38.4152 32.3034C38.7585 31.6264 39.242 31.0234 39.8363 30.531C42.0498 28.7226 45.3446 29.0303 47.3701 31.0563L48.1536 31.8404L48.9371 31.0563C50.9665 29.049 54.2574 28.7226 56.4709 30.531C57.0684 31.0202 57.5558 31.6208 57.9032 32.296C58.2507 32.9713 58.4511 33.7073 58.4921 34.4591C58.5332 35.2109 58.4141 35.9628 58.142 36.6691C57.87 37.3754 57.4507 38.0214 56.9097 38.5676V38.5676Z" fill="#D8242A"/>
<path d="M39.8062 41.7589L34.6553 44.9577L29.9761 28.6899C29.912 28.4637 29.7957 28.2555 29.6364 28.082C29.4771 27.9084 29.2793 27.7743 29.0586 27.6903C28.8832 27.6219 28.6966 27.5865 28.5081 27.586C28.2223 27.5857 27.9422 27.6655 27.6999 27.8163L19.3771 32.9709C19.176 33.0961 19.007 33.2662 18.8834 33.4676C18.7598 33.669 18.685 33.8962 18.6649 34.1313L18.0708 40.9288L14.8465 42.9367L11.963 32.7101C11.887 32.4342 11.7358 32.1845 11.5261 31.9887L3.57467 24.9131L6.80332 22.9138L13.1994 25.3825C13.4202 25.4679 13.6579 25.501 13.8938 25.4791C14.1296 25.4572 14.3571 25.381 14.5582 25.2564L22.8592 20.0975C23.0598 19.9739 23.2286 19.8054 23.3522 19.6055C23.4758 19.4055 23.5508 19.1796 23.5712 18.9458C23.5929 18.7113 23.5597 18.4751 23.474 18.2556C23.3883 18.0362 23.2527 17.8395 23.0776 17.681L10.4645 6.33752L15.7596 3.05181L33.528 12.5873C33.7652 12.7145 34.032 12.777 34.3012 12.7686C34.5705 12.7602 34.8328 12.6812 35.0615 12.5395L44.315 6.83298C45.8894 5.98259 47.6483 5.52615 49.4397 5.50305C51.2878 5.45959 52.7076 5.9029 53.197 6.68521C54.1494 8.21072 52.144 12.6916 49.147 14.5518L39.9023 20.2801C39.6728 20.4209 39.4852 20.6199 39.3585 20.8566C39.2318 21.0934 39.1707 21.3594 39.1815 21.6274L39.4043 27.4991C40.3402 27.0056 41.3739 26.7237 42.4319 26.6733L42.2703 22.3967L50.7635 17.1334C53.8742 15.2037 58.2562 9.01042 55.7921 5.07713C54.6955 3.33866 52.4062 2.38684 49.3698 2.46942C47.03 2.49898 44.7356 3.11483 42.6984 4.26004L34.1921 9.4885L17.2057 0.361519C16.7324 0.108886 16.2006 -0.0152833 15.6637 0.00150174C15.1268 0.0182868 14.6039 0.175435 14.1475 0.457136L8.85234 3.75154C8.45111 4.00021 8.1133 4.33802 7.86542 4.73844C7.61753 5.13887 7.46633 5.59101 7.4237 6.05936C7.38121 6.52597 7.44872 6.99601 7.62089 7.4321C7.79305 7.86819 8.06513 8.25831 8.41545 8.57145L19.5257 18.5677L13.5752 22.2532L7.89555 20.0584C7.45329 19.8875 6.97714 19.8213 6.50474 19.8651C6.03234 19.9088 5.57665 20.0613 5.17371 20.3105L1.9407 22.3141C1.54632 22.5584 1.21309 22.8889 0.966301 23.2805C0.719515 23.6721 0.565661 24.1145 0.516422 24.5741C0.468395 25.0333 0.526045 25.4973 0.685003 25.931C0.843961 26.3648 1.10007 26.7568 1.43391 27.0775L1.47322 27.1166L9.14068 33.9445L11.9193 43.7972V43.8494C12.062 44.2888 12.3033 44.6901 12.625 45.0229C12.9467 45.3557 13.3404 45.6114 13.7761 45.7704C14.2116 45.9316 14.6786 45.9907 15.1408 45.9432C15.603 45.8957 16.048 45.7429 16.4412 45.4966L19.6742 43.493C20.0765 43.2435 20.415 42.9043 20.663 42.5023C20.9109 42.1002 21.0615 41.6464 21.1028 41.1765L21.6315 35.1353L27.5819 31.4497L31.7019 45.7921C31.8304 46.245 32.0637 46.6617 32.3831 47.0088C32.7024 47.356 33.0991 47.624 33.5412 47.7914C33.8921 47.9278 34.2654 47.9985 34.6421 48C35.2129 47.9997 35.7719 47.8385 36.2542 47.535L41.5538 44.2536C41.6892 44.1664 41.8177 44.069 41.9382 43.9624L39.8062 41.7589Z" fill="black"/>
</svg>
