<svg width="42" height="48" viewBox="0 0 42 48" fill="none" xmlns="http://www.w3.org/2000/svg">
<path d="M41.4545 13.1902C41.4747 13.1295 41.4949 13.0638 41.5 12.9929C41.5 12.9778 41.5 12.9626 41.5 12.9424C41.5 12.9272 41.5 12.912 41.5 12.8968C41.5 12.8108 41.4848 12.7299 41.4595 12.649C41.4595 12.6389 41.4545 12.6338 41.4494 12.6288C41.4191 12.5428 41.3736 12.4669 41.3179 12.391V12.3809C41.1359 12.1533 37.7323 8.17765 30.5559 9.74565C29.8884 9.89234 29.236 10.1402 28.5937 10.4791C29.2107 7.96521 29.2157 4.60664 27.3698 0.489369C27.3698 0.484311 27.3647 0.479253 27.3597 0.474195C27.3445 0.438788 27.3243 0.40844 27.3041 0.378091C27.2939 0.362917 27.2838 0.347743 27.2737 0.332569C27.2484 0.30222 27.2231 0.271872 27.1928 0.241523C27.1827 0.231407 27.1726 0.216233 27.1574 0.206117C27.1271 0.180826 27.0967 0.160594 27.0664 0.140362C27.0512 0.130246 27.036 0.120129 27.0208 0.110013H27.0158C26.9146 0.0493163 26.8084 0.0189678 26.6972 0.00379356C26.6415 -0.00126452 26.591 -0.00126452 26.5353 0.00379356C26.5202 0.00379356 26.4999 0.00885164 26.4848 0.0139097C26.4494 0.0189678 26.419 0.0240259 26.3836 0.034142C26.3836 0.034142 26.3735 0.034142 26.3685 0.0392001C26.3482 0.0442582 26.328 0.0543743 26.3078 0.0644905C26.2774 0.0746067 26.242 0.0897809 26.2117 0.104955C26.2117 0.104955 26.2016 0.104955 26.1965 0.110013C25.9942 0.226349 21.2353 2.97794 20.2946 7.87416C20.0164 9.33089 20.1075 10.8078 20.5576 12.3C19.8394 11.8549 19.0252 11.4553 18.0845 11.172C14.7619 10.1806 10.979 10.8837 6.84208 13.261C6.83196 13.2661 6.82185 13.2762 6.81679 13.2812C6.78644 13.3015 6.76116 13.3167 6.73587 13.3419C6.71564 13.3571 6.69541 13.3723 6.67518 13.3925C6.65495 13.4128 6.63472 13.438 6.6145 13.4633C6.59932 13.4836 6.57909 13.5038 6.56392 13.524C6.53863 13.5594 6.51841 13.5999 6.50323 13.6353C6.49818 13.6454 6.48806 13.6606 6.483 13.6707C6.46277 13.7264 6.4476 13.782 6.43749 13.8376V13.8478C6.43749 13.8478 6.43749 13.8832 6.43749 13.8983C6.43749 13.9337 6.42737 13.9641 6.42737 13.9995C6.42737 14.0046 6.42737 14.0096 6.42737 14.0197C6.42737 14.045 6.43243 14.0703 6.43749 14.0956C6.43749 14.1259 6.4476 14.1614 6.45266 14.1917C6.45772 14.2221 6.47289 14.2473 6.483 14.2777C6.49312 14.303 6.49818 14.3232 6.51335 14.3485C6.52852 14.3789 6.54875 14.4143 6.56898 14.4446C6.57909 14.4598 6.58921 14.475 6.59932 14.4901C6.6145 14.5104 6.62461 14.5255 6.63472 14.5458C6.71564 14.6368 8.63743 16.827 11.7376 18.2837C13.3559 19.0424 15.0097 19.4572 16.6584 19.528C15.8037 19.7455 14.9288 20.1198 14.1702 20.7723C13.6594 21.2073 13.2497 21.7333 12.9159 22.3352C12.6884 21.7586 12.3849 21.187 11.9854 20.6408C10.6604 18.8401 8.60203 17.7576 5.86095 17.4289C5.63843 17.4036 5.41591 17.4693 5.24396 17.6059C5.07201 17.7425 4.95569 17.9499 4.93546 18.1724C4.93546 18.223 4.62696 21.7232 7.50964 24.9199C7.12529 24.8895 6.7207 24.8693 6.28071 24.8592H6.09359C1.00591 24.8339 0.515347 28.8753 0.505232 28.9208C0.469831 29.2344 0.616494 29.5379 0.879475 29.7099C1.02108 29.806 2.35622 30.6254 4.76857 30.6254C5.60809 30.6254 6.47289 30.5192 7.36298 30.327C6.93311 30.9289 6.58415 31.5207 6.35151 32.0063C5.28442 34.2166 6.99885 36.4017 7.07471 36.4928C7.23149 36.69 7.46918 36.8064 7.72711 36.8064C7.78274 36.8064 7.83331 36.8013 7.88894 36.7912C9.28477 36.513 10.3114 35.7037 11.0599 34.6719C11.0194 34.8236 10.984 34.9703 10.9385 35.122C9.72476 39.1027 10.008 42.4664 11.6819 44.6211C8.81444 45.2483 6.91794 46.3914 6.81173 46.4572C6.53358 46.6292 6.38186 46.9478 6.41726 47.2665L6.23519 47.3474H6.43243C6.43243 47.3474 6.44255 47.3778 6.44255 47.3929C6.54369 47.7521 6.87242 47.9999 7.24666 47.9999H32.771C33.1251 47.9999 33.4386 47.7773 33.5549 47.4435C33.565 47.4081 33.5752 47.3778 33.5853 47.3423H33.6207L33.5903 47.3272C33.651 47.0287 33.5398 46.7151 33.297 46.5179C33.1706 46.4167 30.4952 44.3126 25.1749 43.8523C26.2066 41.4952 27.2484 38.2327 27.2484 34.6971C27.2484 33.1898 27.0158 31.8646 26.682 30.6305C27.9362 31.9253 29.0134 32.5677 29.0438 32.5879C29.0539 32.593 29.0691 32.598 29.0792 32.6031C29.1196 32.6233 29.1652 32.6436 29.2107 32.6587C29.2309 32.6638 29.2461 32.6689 29.2663 32.6739C29.327 32.6891 29.3927 32.6992 29.4585 32.6992H29.5192C29.5192 32.6992 29.5445 32.6891 29.5596 32.6891C29.59 32.6891 29.6153 32.679 29.6456 32.6739C29.6709 32.6689 29.6962 32.6587 29.7215 32.6537C29.7366 32.6537 29.7468 32.6486 29.7619 32.6436C29.772 32.6436 29.7822 32.6335 29.7923 32.6284C29.8277 32.6132 29.858 32.598 29.8934 32.5778C29.9136 32.5677 29.9339 32.5525 29.949 32.5424C29.9743 32.5222 29.9996 32.4969 30.0249 32.4767C30.0451 32.4615 30.0603 32.4412 30.0805 32.4261L30.0907 32.416C30.1159 32.3856 30.1362 32.3553 30.1564 32.3249C30.1665 32.3097 30.1766 32.2996 30.1817 32.2844C30.212 32.2339 30.2373 32.1782 30.2525 32.1175C31.1881 29.0776 31.4561 26.407 31.0819 24.1258C32.3209 24.6113 33.6662 24.9249 35.0974 24.9249C36.1291 24.9249 37.1558 24.7631 38.1622 24.4444C38.5566 24.318 38.7943 23.9285 38.7336 23.5239C38.7084 23.3671 38.1065 19.7354 34.8547 17.444C37.1709 16.8017 39.4973 15.613 41.3028 13.4836C41.3584 13.4128 41.4039 13.3369 41.4393 13.2509C41.4393 13.2408 41.4494 13.2307 41.4545 13.2155V13.1902ZM29.5546 27.1758C29.0994 25.3448 28.5026 23.7262 27.8755 22.3453C28.2852 22.6336 28.7151 22.9118 29.1652 23.1748C29.5343 24.3483 29.6709 25.6837 29.5596 27.1808L29.5546 27.1758ZM25.1648 31.3791C25.4177 32.4058 25.5795 33.4782 25.5795 34.682C25.5795 38.3086 24.3051 41.7279 23.3695 43.7511C23.2734 43.7511 23.1874 43.7461 23.0913 43.7461C22.8435 43.7461 22.6159 43.7562 22.3833 43.7663C23.7791 41.5053 25.448 38.1063 25.448 34.8084C25.448 34.2773 25.3823 33.0179 25.1597 31.3791H25.1648ZM11.8539 39.7704C12.1978 41.6115 13.0424 43.1441 13.8768 44.2721C13.8161 44.2771 13.7504 44.2822 13.6897 44.2873C12.4861 43.3212 11.8691 41.7633 11.859 39.7704H11.8539ZM8.0963 34.9905C7.81308 34.4695 7.45907 33.549 7.8586 32.7245C8.36939 31.6724 9.51235 29.9577 10.9891 29.0675C11.1054 29.0119 11.2268 28.9562 11.3431 28.9006C11.1004 30.7569 10.3569 34.1104 8.0963 34.9956V34.9905ZM10.6199 21.6018C11.6921 23.0585 11.8944 24.839 11.8842 26.0124C11.596 25.8455 11.247 25.6786 10.807 25.5218C7.45907 23.3873 6.72576 20.6408 6.58415 19.2144C8.37445 19.5937 9.72476 20.3929 10.6148 21.6018H10.6199ZM17.5889 12.7653C19.1213 13.2206 20.2946 14.0551 21.1392 14.8644C17.5485 13.8174 13.5279 13.4026 10.7362 13.2458C13.2396 12.3202 15.5356 12.1533 17.5889 12.7653ZM30.8998 11.3744C34.1011 10.6763 36.4174 11.2378 37.9245 11.956C33.2667 11.9763 29.504 13.1194 27.0057 14.1816C27.1625 13.9337 27.3192 13.6707 27.471 13.3925C28.4015 12.477 29.5596 11.6677 30.8998 11.3744ZM26.2167 12.1735C25.7767 13.089 25.2558 13.8326 24.7754 14.4143C24.9777 11.5362 25.4733 6.39215 26.5606 3.05381C27.648 6.37697 27.5316 9.43711 26.2117 12.1735H26.2167ZM23.1267 14.0298C21.9736 12.0167 21.564 10.0593 21.9231 8.18271C22.3175 6.11901 23.5768 4.47008 24.745 3.33201C23.7842 6.74621 23.329 11.2681 23.1318 14.0248L23.1267 14.0298ZM21.6398 16.7663C18.6661 18.228 15.5761 18.2281 12.4456 16.7612C11.2167 16.1846 10.1799 15.4663 9.4112 14.8442C12.2737 14.9504 17.4473 15.3449 21.6398 16.7663ZM15.4547 30.1145V30.1398L15.4851 30.1499C15.7733 30.4686 16.011 30.8176 16.183 31.197C16.805 32.5475 16.5926 34.0244 16.3448 34.9399C13.8566 33.3871 13.3762 30.3219 13.3054 28.6932C14.2005 29.0625 14.9186 29.5379 15.4497 30.1095L15.4547 30.1145ZM16.4409 28.7337C15.9554 28.2633 15.3738 27.8586 14.7012 27.5147C15.2019 27.2972 15.7784 27.024 16.3802 26.6902C17.2197 26.4727 18.039 26.4323 18.833 26.5688C20.2845 26.8268 21.3667 27.6462 21.9989 28.2582C20.0872 29.1282 18.2261 29.2799 16.4409 28.7286V28.7337ZM20.2137 44.0091C19.5158 44.1558 18.9392 44.353 18.4487 44.5756C17.7153 44.3682 16.8859 44.2519 15.9807 44.2114C14.7012 42.8103 12.7288 39.9626 13.5582 36.3107C13.6644 35.8504 13.7504 35.3952 13.8313 34.9501C14.4989 35.729 15.3687 36.4118 16.4965 36.8873C16.5977 36.9328 16.7089 36.9531 16.8253 36.9531C17.1489 36.9531 17.4473 36.7608 17.5839 36.4675C17.6395 36.341 18.9443 33.4377 17.771 30.6608C18.0441 30.6861 18.3222 30.7063 18.5953 30.7063C20.1125 30.7063 21.65 30.3118 23.1722 29.543C23.6223 31.8899 23.7842 33.9384 23.7842 34.7983C23.7842 38.1872 21.7056 41.8341 20.2238 44.0091H20.2137ZM18.7572 20.9189C19.0657 20.9189 19.3489 20.9341 19.5916 20.9594C19.1567 22.8006 17.3411 24.2118 15.6924 25.1424C15.0147 25.3397 14.337 25.6331 13.6493 26.0124C13.715 24.2016 14.241 22.8562 15.2271 22.0165C16.2892 21.1112 17.7356 20.9189 18.7572 20.9189ZM10.625 27.3478C10.4834 27.4186 10.3418 27.4944 10.2052 27.5754C6.08853 29.462 3.37274 28.9057 2.3107 28.5263C2.63437 27.7069 3.53963 26.4929 6.07336 26.4929H6.23014C8.05584 26.5284 9.28477 26.7661 10.0939 27.0342C10.2659 27.1404 10.4429 27.2466 10.63 27.3478H10.625ZM15.3435 45.8603C15.7733 45.8603 16.183 45.8856 16.5724 45.9261C16.4561 46.0627 16.3549 46.1942 16.2791 46.3156H11.6718C12.7592 46.0525 14.0033 45.8654 15.3435 45.8654V45.8603ZM18.742 46.3105C19.5562 45.8452 20.9015 45.4051 23.0761 45.4051C25.6351 45.4051 27.6581 45.8249 29.1399 46.3105H18.742ZM24.4315 19.5381C25.7009 21.4753 27.6682 25.1273 28.3964 29.978C26.5809 28.324 23.9258 24.93 24.4315 19.5381ZM26.1206 18.6732C29.0084 19.533 33.6611 21.1263 36.2758 23.1243C34.1972 23.3873 30.2727 23.0889 26.1206 18.6732ZM29.7063 18.0763C30.5104 18.0763 31.3752 18.0257 32.2805 17.9144C32.771 18.1067 33.2313 18.3343 33.651 18.6074C34.6423 19.2498 35.3553 20.0591 35.8661 20.8481C34.0202 19.7404 31.7596 18.8097 29.7114 18.0814L29.7063 18.0763ZM26.5404 16.2149C28.8718 15.0819 33.1756 13.4886 38.7336 13.6303C34.9457 16.7309 29.5091 16.5943 26.5404 16.2149ZM22.4187 26.4171C21.6146 25.7949 20.5121 25.1728 19.1314 24.9249C19.0657 24.9148 18.9999 24.9098 18.9342 24.8997C20.2592 23.711 21.301 22.1784 21.3566 20.2715C21.3667 19.877 21.0987 19.5229 20.7093 19.4319C20.6537 19.4167 20.153 19.3105 19.4197 19.265C20.2491 19.093 21.0734 18.83 21.8826 18.4759C21.5033 20.6711 21.7814 24.2168 22.4187 26.412V26.4171Z" fill="black"/>
<path fill-rule="evenodd" clip-rule="evenodd" d="M23.2304 43.7486C23.2759 43.7498 23.3214 43.7511 23.3694 43.7511C24.2581 43.7461 25.1749 43.8523 25.1749 43.8523C30.4952 44.3126 33.1706 46.4167 33.297 46.5179C33.5397 46.7151 33.651 47.0287 33.5903 47.3272L33.6207 47.3423H33.5853C33.5802 47.36 33.5752 47.3765 33.5701 47.3929C33.565 47.4094 33.56 47.4258 33.5549 47.4435C33.4386 47.7773 33.125 47.9999 32.771 47.9999H7.24665C6.87241 47.9999 6.54368 47.7521 6.44254 47.3929C6.44254 47.3778 6.43242 47.3474 6.43242 47.3474H6.23519L6.41725 47.2665C6.38185 46.9478 6.53357 46.6292 6.81172 46.4572L6.81729 46.4537C6.9714 46.358 8.8448 45.1939 11.6718 44.5756C11.6718 44.5756 12.3801 44.3964 13.6897 44.2873L13.7833 44.2797L13.8768 44.2721L13.8971 44.2701C14.0071 44.2589 14.4736 44.2114 15.9807 44.2114C16.8859 44.2519 17.7153 44.3682 18.4487 44.5756C18.9392 44.353 19.5158 44.1558 20.2137 44.0091H20.2238C21.6403 43.7511 22.3833 43.7663 22.3833 43.7663L22.3969 43.7657C22.6248 43.7558 22.8483 43.7461 23.0913 43.7461C23.1393 43.7461 23.1849 43.7473 23.2304 43.7486ZM15.3435 45.8603C15.7733 45.8603 16.183 45.8856 16.5724 45.9261C16.4561 46.0627 16.3549 46.1942 16.2791 46.3156H11.6718C12.7592 46.0525 14.0033 45.8654 15.3435 45.8654V45.8603ZM18.742 46.3105C19.5562 45.8452 20.9015 45.4051 23.0761 45.4051C25.6351 45.4051 27.6581 45.8249 29.1399 46.3105H18.742Z" fill="#D8242A"/>
</svg>
