<svg width="52" height="52" viewBox="0 0 52 52" fill="none" xmlns="http://www.w3.org/2000/svg">
<path d="M13.3777 45.9693C13.9069 45.9014 11.711 47.7008 16.7792 48.9984C18.38 49.406 20.3037 49.9474 24.7636 50C31.2833 49.9868 37.0037 48.7419 36.5821 45.9693" fill="#FAFAFA"/>
<path d="M13.3777 45.9693C13.9069 45.9014 11.711 47.7008 16.7792 48.9984C18.38 49.406 20.3037 49.9474 24.7636 50C31.2833 49.9868 37.0037 48.7419 36.5821 45.9693" stroke="black" stroke-width="2.062" stroke-miterlimit="10" stroke-linecap="round" stroke-linejoin="round"/>
<path d="M3.06241 27.014C4.07976 26.7181 -0.0974223 35.7695 9.50112 42.2902C12.5105 44.3457 16.1554 47.0512 24.5884 47.3628C36.8797 47.253 47.6842 41.0057 46.9116 27.014" fill="#FAFAFA"/>
<path d="M3.06241 27.014C4.07976 26.7181 -0.0974223 35.7695 9.50112 42.2902C12.5105 44.3457 16.1554 47.0512 24.5884 47.3628C36.8797 47.253 47.6842 41.0057 46.9116 27.014" stroke="black" stroke-width="2.062" stroke-miterlimit="10" stroke-linecap="round" stroke-linejoin="round"/>
<path d="M46.9003 27.0137C46.9003 31.9256 37.087 35.8892 24.9835 35.8892C12.8642 35.8892 3.04865 31.9256 3.04865 27.0137C3.04865 22.1018 12.8642 18.1383 24.9835 18.1383C37.087 18.1383 46.9003 22.1018 46.9003 27.0137Z" fill="#FAFAFA"/>
<path d="M46.9003 27.0137C46.9003 31.9256 37.087 35.8892 24.9835 35.8892C12.8642 35.8892 3.04865 31.9256 3.04865 27.0137C3.04865 22.1018 12.8642 18.1383 24.9835 18.1383C37.087 18.1383 46.9003 22.1018 46.9003 27.0137Z" stroke="black" stroke-width="2.06202" stroke-miterlimit="10" stroke-linecap="round" stroke-linejoin="round"/>
<path d="M20.1676 11.5649C19.0564 10.1315 19.612 8.65645 20.1676 8.00769C21.2655 6.57207 20.71 5.09699 20.1676 4.44823" fill="#FAFAFA"/>
<path d="M20.1676 11.5649C19.0564 10.1315 19.612 8.65645 20.1676 8.00769C21.2655 6.57207 20.71 5.09699 20.1676 4.44823" stroke="black" stroke-width="2.062" stroke-miterlimit="10" stroke-linecap="round" stroke-linejoin="round"/>
<path d="M25.754 12.9722C23.4219 10.7672 24.588 8.49216 25.754 7.47955C28.0707 5.28777 26.9179 2.99955 25.754 2.0001" fill="#FAFAFA"/>
<path d="M25.754 12.9722C23.4219 10.7672 24.588 8.49216 25.754 7.47955C28.0707 5.28777 26.9179 2.99955 25.754 2.0001" stroke="black" stroke-width="2.062" stroke-miterlimit="10" stroke-linecap="round" stroke-linejoin="round"/>
<path d="M31.3383 11.6855C30.2403 10.2521 30.7827 8.77706 31.3383 8.12829C32.4362 6.69487 31.8806 5.2198 31.3383 4.57104" fill="#FAFAFA"/>
<path d="M31.3383 11.6855C30.2403 10.2521 30.7827 8.77706 31.3383 8.12829C32.4362 6.69487 31.8806 5.2198 31.3383 4.57104" stroke="black" stroke-width="2.062" stroke-miterlimit="10" stroke-linecap="round" stroke-linejoin="round"/>
<path d="M8.75534 23.9023C5.86769 20.6695 5.70517 17.0837 6.75044 13.3511C8.63455 16.9895 10.2464 19.7774 16.9549 21.5352" fill="#FAFAFA"/>
<path d="M8.75534 23.9023C5.86769 20.6695 5.70517 17.0837 6.75044 13.3511C8.63455 16.9895 10.2464 19.7774 16.9549 21.5352" stroke="#D8242A" stroke-width="2.062" stroke-miterlimit="10" stroke-linecap="round" stroke-linejoin="round"/>
<path d="M7.29071 13.0664C0.689743 12.7837 2.12808 8.6412 2.14125 5.19353C6.89764 6.51736 6.32889 10.1163 7.29071 13.0664Z" fill="#FAFAFA"/>
<path d="M7.29071 13.0664C0.689743 12.7837 2.12808 8.6412 2.14125 5.19353C6.89764 6.51736 6.32889 10.1163 7.29071 13.0664Z" stroke="#D8242A" stroke-width="2.062" stroke-miterlimit="10" stroke-linecap="round" stroke-linejoin="round"/>
<path d="M6.0983 13.1475C12.7124 12.9305 11.3026 8.79021 11.318 5.32719C6.55943 6.61158 7.10184 10.2258 6.0983 13.1475Z" fill="#FAFAFA"/>
<path d="M6.0983 13.1475C12.7124 12.9305 11.3026 8.79021 11.318 5.32719C6.55943 6.61158 7.10184 10.2258 6.0983 13.1475Z" stroke="#D8242A" stroke-width="2.062" stroke-miterlimit="10" stroke-linecap="round" stroke-linejoin="round"/>
<path d="M7.11502 19.6546C7.81991 20.4393 11.4388 17.9362 9.93458 18.7888Z" fill="#FAFAFA"/>
<path d="M7.11502 19.6546C7.81991 20.4393 11.4388 17.9362 9.93458 18.7888" stroke="#D8242A" stroke-width="2.062" stroke-miterlimit="10" stroke-linecap="round" stroke-linejoin="round"/>
<path d="M7.6991 22.388C8.98591 24.3628 15.0181 18.5853 12.484 20.5469Z" fill="#FAFAFA"/>
<path d="M7.6991 22.388C8.98591 24.3628 15.0181 18.5853 12.484 20.5469" stroke="#D8242A" stroke-width="2.062" stroke-miterlimit="10" stroke-linecap="round" stroke-linejoin="round"/>
<path d="M17.5258 31.8039C16.3466 31.142 15.7098 30.0329 16.1161 29.314C16.5223 28.5973 17.796 28.5579 18.9884 29.2198C20.1676 29.8839 20.8066 31.0061 20.3981 31.7228C19.9919 32.4395 18.7051 32.4812 17.5258 31.8039" fill="#FAFAFA"/>
<path d="M17.5258 31.8039C16.3466 31.142 15.7098 30.0329 16.1161 29.314C16.5223 28.5973 17.796 28.5579 18.9884 29.2198C20.1676 29.8839 20.8066 31.0061 20.3981 31.7228C19.9919 32.4395 18.7051 32.4812 17.5258 31.8039V31.8039Z" stroke="black" stroke-width="2.062" stroke-miterlimit="10" stroke-linecap="round" stroke-linejoin="round"/>
<path d="M37.8976 25.8366C39.2003 25.4582 40.4479 25.7838 40.6771 26.5671C40.9085 27.3525 40.0401 28.3007 38.7396 28.6791C37.4369 29.0707 36.1893 28.7451 35.9601 27.9619C35.7308 27.1633 36.5971 26.2172 37.8976 25.8366Z" fill="#FAFAFA"/>
<path d="M37.8976 25.8366C39.2003 25.4582 40.4479 25.7838 40.6771 26.5671C40.9085 27.3525 40.0401 28.3007 38.7396 28.6791C37.4369 29.0707 36.1893 28.7451 35.9601 27.9619C35.7308 27.1633 36.5971 26.2172 37.8976 25.8366Z" stroke="black" stroke-width="2.06201" stroke-miterlimit="10" stroke-linecap="round" stroke-linejoin="round"/>
<path d="M28.0158 24.7968C26.6609 24.9721 25.4817 24.4571 25.3741 23.6461C25.2643 22.8352 26.2679 22.0373 27.6096 21.8598C28.9645 21.6713 30.1437 22.1842 30.2535 22.9973C30.3611 23.8083 29.3575 24.6215 28.0158 24.7968Z" fill="#FAFAFA"/>
<path d="M28.0158 24.7968C26.6609 24.9721 25.4817 24.4571 25.3741 23.6461C25.2643 22.8352 26.2679 22.0373 27.6096 21.8598C28.9645 21.6713 30.1437 22.1842 30.2535 22.9973C30.3611 23.8083 29.3575 24.6215 28.0158 24.7968Z" stroke="black" stroke-width="2.062" stroke-miterlimit="10" stroke-linecap="round" stroke-linejoin="round"/>
<path d="M31.202 30.0042C30.0228 29.3423 29.386 28.2179 29.7923 27.5165C30.1985 26.7976 31.4875 26.7582 32.6667 27.4201C33.8459 28.0842 34.4828 29.2064 34.0743 29.9231C33.6813 30.6266 32.3944 30.6683 31.202 30.0042" fill="#FAFAFA"/>
<path d="M31.202 30.0042C30.0228 29.3423 29.386 28.2179 29.7923 27.5165C30.1985 26.7976 31.4875 26.7582 32.6667 27.4201C33.8459 28.0842 34.4828 29.2064 34.0743 29.9231C33.6813 30.6266 32.3944 30.6683 31.202 30.0042V30.0042Z" stroke="black" stroke-width="2.062" stroke-miterlimit="10" stroke-linecap="round" stroke-linejoin="round"/>
<path d="M32.6511 20.4538L42.195 5.80034L45.8553 7.16757L35.1874 21.6426" fill="#FAFAFA"/>
<path d="M32.6511 20.4538L42.195 5.80034L45.8553 7.16757L35.1874 21.6426" stroke="black" stroke-width="2.062" stroke-miterlimit="10" stroke-linecap="round" stroke-linejoin="round"/>
<path d="M33.615 22.2674L46.8699 10.8353L50 13.1745L35.7145 24.1216" fill="#FAFAFA"/>
<path d="M33.615 22.2674L46.8699 10.8353L50 13.1745L35.7145 24.1216" stroke="black" stroke-width="2.062" stroke-miterlimit="10" stroke-linecap="round" stroke-linejoin="round"/>
<path d="M25.6047 30.4383C26.784 29.7742 27.4208 28.652 27.0145 27.9353C26.6061 27.2186 25.3193 27.177 24.14 27.8542C22.9608 28.5162 22.324 29.6252 22.7303 30.3419C23.1233 31.0608 24.4101 31.1002 25.6047 30.4383" fill="#FAFAFA"/>
<path d="M25.6047 30.4383C26.784 29.7742 27.4208 28.652 27.0145 27.9353C26.6061 27.2186 25.3193 27.177 24.14 27.8542C22.9608 28.5162 22.324 29.6252 22.7303 30.3419C23.1233 31.0608 24.4101 31.1002 25.6047 30.4383V30.4383Z" stroke="black" stroke-width="2.062" stroke-miterlimit="10" stroke-linecap="round" stroke-linejoin="round"/>
<path d="M20.5475 26.0396C19.2057 26.2719 18.0133 25.7963 17.8772 24.9985C17.7279 24.1876 18.7051 23.3481 20.0468 23.118C21.3753 22.8747 22.5809 23.3481 22.717 24.1591C22.8664 24.9591 21.8892 25.8095 20.5475 26.0396Z" fill="#FAFAFA"/>
<path d="M20.5475 26.0396C19.2057 26.2719 18.0133 25.7963 17.8772 24.9985C17.7279 24.1876 18.7051 23.3481 20.0468 23.118C21.3753 22.8747 22.5809 23.3481 22.717 24.1591C22.8664 24.9591 21.8892 25.8095 20.5475 26.0396Z" stroke="black" stroke-width="2.062" stroke-miterlimit="10" stroke-linecap="round" stroke-linejoin="round"/>
<path d="M12.8771 25.2835C14.232 25.323 15.3168 26.0134 15.3014 26.8397C15.275 27.6638 14.1639 28.2862 12.7936 28.2599C11.4387 28.2183 10.354 27.5301 10.3825 26.7038C10.4089 25.8906 11.52 25.2572 12.8771 25.2835Z" fill="#FAFAFA"/>
<path d="M12.8771 25.2835C14.232 25.323 15.3168 26.0134 15.3014 26.8397C15.275 27.6638 14.1639 28.2862 12.7936 28.2599C11.4387 28.2183 10.354 27.5301 10.3825 26.7038C10.4089 25.8906 11.52 25.2572 12.8771 25.2835Z" stroke="black" stroke-width="2.062" stroke-miterlimit="10" stroke-linecap="round" stroke-linejoin="round"/>
</svg>
