<svg width="54" height="48" viewBox="0 0 54 48" fill="none" xmlns="http://www.w3.org/2000/svg">
<path d="M53.4711 46.3919C52.2444 40.0289 44.181 35.2254 34.7114 35.2254C29.5032 35.2254 24.6034 36.6533 21.0452 39.1694L24.6608 19.9209C26.3252 19.6921 28.2693 19.7476 30.1847 20.0872C32.5162 20.4962 34.6541 21.2656 36.1964 22.2429C36.3686 22.3538 36.5623 22.4162 36.7919 22.4439C36.9282 22.4855 37.0573 22.5063 37.208 22.5063C37.4088 22.5063 37.6025 22.4508 37.7962 22.3538C39.5323 22.0627 41.6199 22.1043 43.6788 22.4647C44.1236 22.5409 44.5899 22.638 45.1351 22.7766C45.2499 22.7974 45.3575 22.8113 45.4866 22.8113C46.2542 22.8113 46.8783 22.2082 46.8783 21.4666C46.8783 21.3279 46.8568 21.1893 46.8138 21.0576C45.7018 11.1318 38.1908 2.93199 28.1258 0.644621C28.0541 0.623827 27.9823 0.609964 27.9106 0.596101L27.6237 0.533718C27.3869 0.478267 27.1574 0.422816 26.9134 0.381227C26.6767 0.339639 26.44 0.311913 26.2032 0.284188L25.9019 0.249531C25.7871 0.221805 25.6867 0.214874 25.6437 0.214874C24.46 0.0693141 23.47 0 22.5445 0C13.3118 0 4.71747 5.19162 0.649878 13.2251C0.449009 13.6202 0.463357 14.0846 0.678573 14.4658C0.89379 14.8471 1.28835 15.1035 1.74031 15.159C2.32856 15.2214 2.78052 15.2838 3.20378 15.36C5.24833 15.7135 7.19963 16.3789 8.71331 17.2384C8.85679 17.4048 9.02896 17.5226 9.22266 17.5988C9.37331 17.6543 9.53114 17.689 9.68179 17.6959C9.88983 17.7444 10.0835 17.7444 10.2772 17.7028C12.0492 17.3147 14.3879 17.3285 16.6907 17.7305C18.6133 18.0702 20.4498 18.6801 21.9204 19.4565L18.19 39.2872C17.0565 39.1001 15.9302 39.003 14.8255 39.003C8.47657 39.003 2.90965 41.7617 0.649878 46.0384C0.434661 46.4543 0.449009 46.9534 0.707269 47.3554C0.958354 47.7505 1.41748 48 1.89813 48H52.1081C52.5242 48 52.9116 47.8198 53.177 47.5148C53.4424 47.2098 53.55 46.8078 53.4783 46.4127L53.4711 46.3919ZM25.1845 17.1622L27.7456 3.52809C33.3699 7.3265 35.0701 14.8887 35.5867 18.8881C34.0945 18.2365 32.4158 17.7375 30.6869 17.4325C29.3884 17.2038 28.0828 17.0859 26.813 17.0859C26.2606 17.0859 25.7154 17.1067 25.1845 17.1552V17.1622ZM33.7645 5.73921C38.9512 8.81675 42.6673 13.9529 43.8007 19.7406C42.5812 19.5466 41.376 19.4495 40.2066 19.4495C39.6399 19.4495 39.066 19.4773 38.4706 19.5396C38.2195 16.9126 37.2653 10.716 33.7645 5.73921ZM50.2142 45.2898H4.63138C6.94137 43.0371 10.722 41.6786 14.8326 41.6786C16.6835 41.6786 18.4841 41.9558 20.1915 42.5103C20.6722 42.6697 21.203 42.5588 21.5761 42.2261C24.6321 39.5229 29.5463 37.9079 34.7186 37.9079C41.9068 37.9079 48.2485 40.9716 50.2285 45.2829L50.2142 45.2898ZM18.563 3.06368C13.4624 6.53632 10.3131 12.0191 9.12223 14.3965C7.60136 13.6757 5.87963 13.1212 4.07182 12.7746C7.24984 7.72159 12.5944 4.17271 18.563 3.06368ZM17.1928 15.0758C15.8944 14.8471 14.5887 14.7362 13.3261 14.7362C12.8957 14.7362 12.4724 14.75 12.0563 14.7778C13.9933 11.2081 18.3478 4.69256 25.0124 3.04982L22.4513 16.6908C20.873 15.963 19.0724 15.4085 17.2 15.0827L17.1928 15.0758Z" fill="black"/>
<path fill-rule="evenodd" clip-rule="evenodd" d="M53.4711 46.3921C52.2444 40.029 44.181 35.2256 34.7114 35.2256C29.5032 35.2256 24 36.7347 20.1915 39.6736C19 39.1837 15.9302 39.0032 14.8255 39.0032C8.47657 39.0032 2.90965 41.7619 0.649878 46.0386C0.434661 46.4545 0.449009 46.9535 0.707269 47.3555C0.958354 47.7506 1.41748 48.0002 1.89813 48.0002H52.1081C52.5242 48.0002 52.9116 47.82 53.177 47.515C53.4424 47.21 53.55 46.808 53.4783 46.4129L53.4711 46.3921ZM4.63138 45.29H50.2142L50.2285 45.2831C48.2485 40.9717 41.9068 37.908 34.7186 37.908C29.5463 37.908 24.6321 39.5231 21.5761 42.2263C21.203 42.559 20.6722 42.6699 20.1915 42.5105C18.4841 41.956 16.6835 41.6787 14.8326 41.6787C10.722 41.6787 6.94137 43.0373 4.63138 45.29Z" fill="#D8242A"/>
</svg>
