<svg width="132" height="132" viewBox="0 0 132 132" fill="none" xmlns="http://www.w3.org/2000/svg">
<circle cx="66" cy="66" r="64.5" stroke="black" stroke-width="3"/>
<g clip-path="url(#clip0_1403_117)">
<path d="M56.5702 71.371V73.0043C56.5702 74.2922 55.5241 75.3383 54.2362 75.3383H52.6819V88.5722C52.6819 89.8601 51.6358 90.9062 50.348 90.9062H44.1208C42.8329 90.9062 41.7869 89.8601 41.7869 88.5722V75.3383H40.2325C38.9447 75.3383 37.8986 74.2922 37.8986 73.0043V59.7704C37.8986 57.1897 39.9907 55.1025 42.5665 55.1025H43.6718C44.8116 55.6255 46.0304 55.8821 47.2344 55.8821C48.4384 55.8821 49.6868 55.6157 50.8019 55.1025H51.9072C54.3941 55.1025 56.4222 57.0515 56.5652 59.5039C57.2265 60.1651 57.8926 60.8313 58.5538 61.4925C58.8449 61.7688 59.1311 62.055 59.4124 62.351C59.4963 62.4349 59.5851 62.5237 59.669 62.6076V59.7704C59.669 56.5532 57.7002 53.785 54.9024 52.6106C55.9435 51.1056 56.5554 49.2799 56.5554 47.3161C56.5504 42.1794 52.371 38 47.2294 38C42.0878 38 37.9134 42.1794 37.9134 47.321C37.9134 49.2849 38.5252 51.1106 39.5664 52.6156C36.7686 53.785 34.7998 56.5532 34.7998 59.7704V73.0043C34.7998 75.4616 36.4429 77.5439 38.693 78.2101V88.5722C38.693 91.5624 41.1256 94 44.1208 94H50.348C53.3382 94 55.7758 91.5674 55.7758 88.5722V78.2101C56.6047 77.9633 57.3498 77.5242 57.9617 76.9469V72.7576C57.4978 72.2938 57.0389 71.8349 56.5751 71.371H56.5702ZM47.2294 41.0938C50.6687 41.0938 53.4566 43.8818 53.4566 47.321C53.4566 50.7602 50.6687 53.5482 47.2294 53.5482C43.7902 53.5482 41.0023 50.7602 41.0023 47.321C41.0023 43.8818 43.7902 41.0938 47.2294 41.0938Z" fill="black"/>
<path d="M99.0895 74.8005L94.4216 56.119C94.0663 54.7028 93.1781 53.5383 92.0087 52.813C93.1387 51.2685 93.8097 49.3688 93.8097 47.3161C93.8097 42.1795 89.6303 37.9951 84.4887 37.9951C79.3471 37.9951 75.1677 42.1745 75.1677 47.3161C75.1677 49.3688 75.8339 51.2735 76.9688 52.813C75.7944 53.5383 74.9062 54.7028 74.5559 56.1141L72.8634 62.884C74.2796 61.4678 75.6957 60.0517 77.1119 58.6355L77.556 56.869C77.8076 55.8525 78.7304 55.1025 79.8208 55.1025H80.9261C82.066 55.6256 83.2848 55.8822 84.4887 55.8822C85.6927 55.8822 86.9411 55.6157 88.0563 55.1025H89.1616C90.257 55.1025 91.1748 55.8575 91.4265 56.869L96.0944 75.5505C96.4644 77.0259 95.3443 78.4519 93.8295 78.4519H88.382V88.5723C88.382 89.8601 87.3359 90.9062 86.048 90.9062H82.9344C81.6466 90.9062 80.6005 89.8601 80.6005 88.5723V78.4519H75.1529C75.0493 78.4519 74.9506 78.4371 74.8519 78.4272V81.5309C74.9506 81.5359 75.0493 81.5457 75.1529 81.5457H77.5116V88.5723C77.5116 91.5625 79.9442 94 82.9394 94H86.0529C89.0432 94 91.4807 91.5674 91.4807 88.5723V81.5457H93.8394C95.522 81.5457 97.0812 80.7858 98.1174 79.4585C99.1537 78.1312 99.5139 76.4337 99.1043 74.8054L99.0895 74.8005ZM84.4838 53.5433C81.0446 53.5433 78.2567 50.7554 78.2567 47.3161C78.2567 43.8769 81.0446 41.089 84.4838 41.089C87.9231 41.089 90.711 43.8769 90.711 47.3161C90.711 50.7554 87.9231 53.5433 84.4838 53.5433Z" fill="black"/>
<path d="M79.3669 65.1389L72.5625 71.9433V91.1232C72.5625 92.3963 71.5312 93.4226 70.263 93.4226H69.1133C67.8452 93.4226 66.8139 92.3913 66.8139 91.1232V83.0703H65.6642V91.1232C65.6642 92.3963 64.6329 93.4226 63.3648 93.4226H62.2151C60.947 93.4226 59.9157 92.3913 59.9157 91.1232V71.9433L53.1112 65.1389C52.2132 64.2408 52.2132 62.7852 53.1112 61.8871C54.0093 60.9891 55.4649 60.9891 56.363 61.8871L62.5901 68.1143H69.888L76.1152 61.8871C77.0132 60.9891 78.4689 60.9891 79.3669 61.8871C80.265 62.7852 80.265 64.2408 79.3669 65.1389ZM66.2366 56.6123C69.0985 56.6123 71.4127 58.9315 71.4127 61.7884C71.4127 64.6454 69.0936 66.9646 66.2366 66.9646C63.3796 66.9646 61.0605 64.6454 61.0605 61.7884C61.0605 58.9315 63.3796 56.6123 66.2366 56.6123Z" fill="#D8242A"/>
</g>
<defs>
<clipPath id="clip0_1403_117">
<rect width="64.4526" height="56" fill="white" transform="translate(34.7998 38)"/>
</clipPath>
</defs>
</svg>
