<svg width="77" height="77" viewBox="0 0 77 77" fill="none" xmlns="http://www.w3.org/2000/svg">
<circle cx="38.5543" cy="38.152" r="36.5543" stroke="#102856" stroke-width="3"/>
<path d="M55.1575 25.6718C54.5709 31.8874 52.0645 46.9621 50.7889 53.9353C50.2503 56.8798 49.1873 57.8687 48.1506 57.9654C45.9158 58.1746 44.2196 56.4567 42.0546 55.0066C38.6668 52.7403 36.7532 51.3282 33.4647 49.1159C29.6656 46.558 32.1285 45.1538 34.2934 42.8559C34.8599 42.2537 44.7084 33.1077 44.8993 32.2773C44.9226 32.1743 44.9459 31.786 44.7193 31.5832C44.4927 31.3803 44.1621 31.4484 43.9231 31.5039C43.5827 31.5821 38.1712 35.2345 27.6884 42.4613C26.152 43.5379 24.761 44.0624 23.5153 44.035C22.1403 44.0049 19.4974 43.2426 17.5327 42.5896C15.1225 41.7893 13.2059 41.3662 13.3735 40.008C13.4604 39.3001 14.4148 38.5764 16.2368 37.8368C27.4551 32.8447 34.9365 29.5535 38.6807 27.9635C49.3704 23.423 51.5912 22.6353 53.0391 22.6084C53.3573 22.6084 54.0681 22.6829 54.5305 23.0648C54.8365 23.3379 55.0318 23.7176 55.0784 24.1298C55.1609 24.6392 55.1874 25.1564 55.1575 25.6718Z" fill="#102856"/>
</svg>
