<svg width="80" height="80" viewBox="0 0 80 80" fill="none" xmlns="http://www.w3.org/2000/svg">
<path d="M7.13651 6.64285L7.13701 6.64235C9.59977 4.17669 12.8681 2.85975 17.8859 2.18438C22.947 1.50319 29.5588 1.5 38.5757 1.5H41.7487C50.7661 1.5 57.3779 1.50054 62.4392 2.1796C67.4571 2.85283 70.7247 4.1681 73.1871 6.63493C75.6509 9.1032 76.9663 12.3723 77.6409 17.3882C78.3213 22.4476 78.3245 29.0563 78.3245 38.0723V38.8682C78.3245 47.8766 78.322 55.0987 77.6383 60.7687C76.9526 66.455 75.6109 70.266 73.1881 72.6885C70.7254 75.151 67.457 76.4664 62.4388 77.1409C57.3776 77.8213 50.7656 77.8245 41.7487 77.8245H38.5757C29.5589 77.8245 22.9469 77.8213 17.8856 77.1409C12.8675 76.4664 9.59902 75.151 7.13634 72.6885C4.67368 70.2261 3.3582 66.958 2.68359 61.9403C2.00319 56.8796 2 50.2682 2 41.2521V38.0794C2 29.0634 2.00319 22.4524 2.68359 17.3919C3.35818 12.3745 4.67366 9.10627 7.13651 6.64285Z" stroke="#102856" stroke-width="3" stroke-miterlimit="10"/>
<path d="M13.3633 22.5112H22.5365C22.8378 37.7415 29.6007 44.1917 34.9576 45.5223V22.5112H43.5947V35.652C48.8834 35.0856 54.4412 29.1003 56.3153 22.5166H64.9523C64.2468 25.9324 62.839 29.1668 60.8171 32.0173C58.7952 34.8679 56.2027 37.2732 53.2019 39.0828C56.5513 40.7348 59.5096 43.0739 61.8814 45.9456C64.2532 48.8173 65.9845 52.1562 66.9609 55.7417H57.4559C56.5792 52.6274 54.7963 49.8395 52.3308 47.7278C49.8652 45.616 46.8267 44.2743 43.5965 43.871V55.7417H42.5581C24.2421 55.7293 13.7973 43.26 13.3633 22.5112Z" fill="#102856"/>
</svg>
