<svg width="78" height="77" viewBox="0 0 78 77" fill="none" xmlns="http://www.w3.org/2000/svg">
<path d="M56.2239 46.0223C55.2811 45.5424 50.6018 43.2456 49.7276 42.937C48.8534 42.6114 48.2192 42.4571 47.585 43.417C46.9508 44.3768 45.1339 46.5023 44.5683 47.1536C44.0198 47.7878 43.4541 47.8735 42.5114 47.3936C36.9236 44.5997 33.2555 42.4057 29.5703 36.0808C28.5933 34.401 30.5473 34.521 32.3642 30.8872C32.6727 30.253 32.5184 29.7045 32.2785 29.2246C32.0385 28.7446 30.1359 24.0652 29.3474 22.1626C28.5761 20.3115 27.7876 20.5686 27.2049 20.5343C26.6564 20.5 26.0222 20.5 25.388 20.5C24.7538 20.5 23.7253 20.74 22.8512 21.6827C21.977 22.6426 19.5259 24.9394 19.5259 29.6188C19.5259 34.2982 22.9369 38.8233 23.3997 39.4575C23.8796 40.0917 30.1016 49.6904 39.6489 53.8213C45.6824 56.4267 48.0478 56.6495 51.0646 56.2038C52.8986 55.9296 56.6867 53.907 57.4751 51.6787C58.2636 49.4505 58.2636 47.5479 58.0236 47.1536C57.8008 46.7251 57.1666 46.4851 56.2239 46.0223Z" fill="#102856"/>
<path d="M7.34599 57.4744L7.51113 56.8715L7.19927 56.3298C4.00554 50.7819 2.32567 44.4924 2.32567 38.0521C2.32567 17.9005 18.7261 1.5 38.8778 1.5C48.6445 1.5 57.8267 5.30152 64.7266 12.2179C71.655 19.1629 75.7898 28.3388 75.7898 38.0692C75.7898 58.2022 59.0311 74.6214 38.8778 74.6214H38.8606C32.7341 74.6214 26.7253 73.0897 21.3936 70.177L20.8703 69.8912L20.2936 70.0426L2.63347 74.6789L7.34599 57.4744Z" stroke="#102856" stroke-width="3"/>
</svg>
