<svg width="45" height="61" viewBox="0 0 45 61" fill="none" xmlns="http://www.w3.org/2000/svg">
<path d="M42.6325 30.8872H25.9707V22.2802H42.6325V30.8872ZM40.1036 58.6298H25.9707V32.7578H40.1036V58.6298ZM20.8965 31.8223V22.2802H24.1034V31.8223V58.6298H20.8965V31.8223ZM4.89653 32.7578H19.0292V58.6298H4.89653V32.7578ZM2.36724 22.2802H19.0292V30.8872H2.36724V22.2802ZM9.30317 14.9338C7.7112 13.7145 7.40572 12.9595 7.36525 12.618C7.34871 12.4778 7.30467 12.105 8.07294 11.5921C8.9553 11.0027 9.8086 10.7099 10.6538 10.7099C11.0966 10.7099 11.5374 10.7907 11.9787 10.9509C13.3924 11.4648 14.8282 12.8265 16.1309 14.8896C16.9965 16.2606 17.7978 17.9402 18.4546 19.7457C17.2154 19.2363 15.4962 18.4916 13.7761 17.6228C11.9005 16.675 10.3956 15.7704 9.30317 14.9338V14.9338ZM32.277 11.1201C32.991 10.7121 33.7095 10.5089 34.4484 10.5089C34.8371 10.5089 35.2316 10.5652 35.634 10.6768C36.2357 10.8438 36.623 11.0768 36.6458 11.2849C36.6623 11.4394 36.6449 12.9064 30.9332 16.7259C29.4093 17.7447 27.8627 18.6733 26.6794 19.3568C27.6443 16.7768 29.5377 12.685 32.277 11.1201V11.1201ZM42.9253 20.41H28.583C29.6041 19.8028 30.7807 19.076 31.9583 18.2889C38.0801 14.1971 38.6247 12.2166 38.5021 11.0826C38.4228 10.3536 37.9477 9.37852 36.1332 8.87447C34.4823 8.41596 32.8729 8.62535 31.349 9.49683C27.2984 11.813 25.0062 18.2648 24.3388 20.41H23.4603C23.5045 19.23 23.619 17.0839 23.9081 14.7655C24.6113 9.12672 25.7576 6.83773 26.5956 5.91044C26.9414 5.52738 26.912 4.93628 26.5296 4.58938C26.1472 4.24293 25.5566 4.27239 25.2108 4.65545C23.728 6.29663 22.6659 9.62586 22.053 14.5512C22.0313 14.7262 22.0105 14.8999 21.9906 15.0722C21.7598 14.2632 21.4992 13.4096 21.2076 12.5363C19.141 6.34753 16.6031 2.34058 13.6642 0.627076C13.2186 0.367238 12.647 0.518588 12.3876 0.965045C12.1283 1.41105 12.2793 1.98386 12.7249 2.24369C15.2208 3.6987 17.5391 7.45518 19.4291 13.1069C20.4338 16.1111 21.069 18.9264 21.3708 20.41H20.6532C20.0712 18.5737 19.1275 16.1365 17.709 13.89C16.1612 11.4389 14.4476 9.85846 12.6156 9.19279C10.7611 8.51864 8.8843 8.80259 7.03721 10.0357C5.61411 10.9862 5.42184 12.084 5.51107 12.8381C5.64665 13.9833 6.51796 15.1561 8.17487 16.4241C9.36116 17.3317 10.9675 18.2992 12.9494 19.2997C13.7438 19.7006 14.5317 20.0738 15.2731 20.41H2.0749C1.20649 20.41 0.5 21.1177 0.5 21.9873V31.1801C0.5 32.05 1.20649 32.7578 2.0749 32.7578H3.02929V58.9223C3.02929 59.7922 3.73582 60.5 4.60423 60.5H19.9628H25.0369H40.3959C41.2642 60.5 41.9711 59.7922 41.9711 58.9223V32.7578H42.9253C43.7936 32.7578 44.5 32.05 44.5 31.1801V21.9873C44.5 21.1177 43.7936 20.41 42.9253 20.41Z" fill="#F0AB00"/>
<path fill-rule="evenodd" clip-rule="evenodd" d="M25.9707 30.8872H42.6325V22.2802H25.9707V30.8872ZM25.9707 58.6298H40.1036V32.7578H25.9707V58.6298ZM20.8965 22.2802V31.8223V58.6298H24.1034V31.8223V22.2802H20.8965ZM19.0292 32.7578H4.89653V58.6298H19.0292V32.7578ZM19.0292 22.2802H2.36724V30.8872H19.0292V22.2802ZM28.583 20.41H42.9253C43.7936 20.41 44.5 21.1177 44.5 21.9874V31.1801C44.5 32.05 43.7936 32.7578 42.9253 32.7578H41.9711V58.9223C41.9711 59.7922 41.2642 60.5 40.3959 60.5H25.0369H19.9628H4.60423C3.73582 60.5 3.02929 59.7922 3.02929 58.9223V32.7578H2.0749C1.20649 32.7578 0.5 32.05 0.5 31.1801V21.9874C0.5 21.1177 1.20649 20.41 2.0749 20.41H15.2731H20.6532H21.3708H23.4603H24.3388H28.583Z" fill="black"/>
</svg>
