<svg width="48" height="48" viewBox="0 0 48 48" fill="none" xmlns="http://www.w3.org/2000/svg">
<g clip-path="url(#clip0_21_115)">
<path d="M47.0522 43.916C45.6415 43.916 44.8891 44.5399 44.3383 44.9976C43.9129 45.3477 43.7203 45.5093 43.2053 45.5093C42.6903 45.5093 42.4977 45.3477 42.0723 44.9976C41.5214 44.5399 40.7691 43.916 39.3584 43.916C37.9477 43.916 37.1954 44.5399 36.6445 44.9976C36.2236 45.3477 36.0265 45.5093 35.516 45.5093C35.0055 45.5093 34.8129 45.3477 34.3875 44.9976C33.8366 44.5399 33.0843 43.916 31.6736 43.916C30.2629 43.916 29.5106 44.5399 28.9597 44.9976C28.5388 45.3477 28.3462 45.5093 27.8312 45.5093C27.3162 45.5093 27.1236 45.3477 26.7027 44.9976C26.1518 44.5399 25.3995 43.916 23.9888 43.916C22.5781 43.916 21.8258 44.5399 21.2749 44.9976C20.854 45.3477 20.6614 45.5093 20.1464 45.5093C19.6314 45.5093 19.4388 45.3477 19.0179 44.9976C18.467 44.5399 17.7147 43.916 16.304 43.916C14.8933 43.916 14.141 44.5399 13.5901 44.9976C13.1692 45.3477 12.9766 45.5093 12.4616 45.5093C11.9466 45.5093 11.7585 45.3477 11.3331 44.9976C10.7822 44.5399 10.0299 43.916 8.62368 43.916C7.21748 43.916 6.46065 44.5399 5.90981 44.9976C5.48885 45.3477 5.29628 45.5093 4.78128 45.5093C4.26627 45.5093 4.07818 45.3477 3.65722 44.9976C3.10638 44.5399 2.35403 43.916 0.947832 43.916C0.701525 43.916 0.5 44.118 0.5 44.3648V45.9581C0.5 46.2049 0.701525 46.4069 0.947832 46.4069C1.45836 46.4069 1.65093 46.5685 2.07189 46.9185C2.62273 47.3763 3.37508 48.0002 4.78576 48.0002C6.19643 48.0002 6.94879 47.3763 7.49962 46.9185C7.92058 46.5685 8.11315 46.4069 8.62816 46.4069C9.14316 46.4069 9.33125 46.5685 9.75669 46.9185C10.3075 47.3763 11.0599 48.0002 12.4661 48.0002C13.8723 48.0002 14.6291 47.3763 15.1799 46.9185C15.6009 46.5685 15.7935 46.4069 16.3085 46.4069C16.8235 46.4069 17.0161 46.5685 17.437 46.9185C17.9879 47.3763 18.7447 48.0002 20.1509 48.0002C21.5571 48.0002 22.3139 47.3763 22.8647 46.9185C23.2857 46.5685 23.4783 46.4069 23.9933 46.4069C24.5083 46.4069 24.6964 46.5685 25.1218 46.9185C25.6727 47.3763 26.4295 48.0002 27.8357 48.0002C29.2419 48.0002 29.9987 47.3763 30.5495 46.9185C30.9705 46.5685 31.1631 46.4069 31.6781 46.4069C32.1931 46.4069 32.3812 46.5685 32.8066 46.9185C33.3575 47.3763 34.1098 48.0002 35.5205 48.0002C36.9312 48.0002 37.6835 47.3763 38.2344 46.9185C38.6553 46.5685 38.8479 46.4069 39.3629 46.4069C39.8779 46.4069 40.0705 46.5685 40.4959 46.9185C41.0467 47.3763 41.8036 48.0002 43.2098 48.0002C44.616 48.0002 45.3728 47.3763 45.9236 46.9185C46.3491 46.5685 46.5416 46.4069 47.0566 46.4069C47.303 46.4069 47.5045 46.2049 47.5045 45.9581V44.3648C47.5045 44.118 47.303 43.916 47.0566 43.916H47.0522Z" fill="black"/>
<path d="M47.0522 38.6829C45.6415 38.6829 44.8891 39.3067 44.3383 39.7645C43.9129 40.1146 43.7203 40.2762 43.2053 40.2762C42.6903 40.2762 42.4977 40.1146 42.0723 39.7645C41.5214 39.3067 40.7691 38.6829 39.3584 38.6829C37.9477 38.6829 37.1954 39.3067 36.6445 39.7645C36.2236 40.1146 36.0265 40.2762 35.516 40.2762C35.0055 40.2762 34.8129 40.1146 34.3875 39.7645C33.8366 39.3067 33.0843 38.6829 31.6736 38.6829C30.5854 38.6829 29.8912 39.0554 29.3717 39.4369C29.4568 39.3292 29.524 39.208 29.5554 39.0689L30.2988 35.9497H33.5769C34.4412 35.9497 35.1936 35.3348 35.3593 34.4821L35.9862 31.3359C36.0086 31.2192 36.0221 31.098 36.0221 30.9769V16.8035C36.0221 16.7093 36.0131 16.615 35.9997 16.5208L35.1219 10.9511C35.0861 10.7132 34.9517 10.5023 34.7592 10.3586C34.5621 10.2195 34.3203 10.1656 34.0829 10.206C33.5635 10.2958 33.0395 10.2599 32.5603 10.0983C32.3633 10.031 32.1483 10.0355 31.9557 10.1073C31.696 10.206 31.4273 10.2554 31.1541 10.2554C29.8957 10.2554 28.8702 9.22764 28.8702 7.96649C28.8702 6.92974 29.5374 6.04559 30.5272 5.76733C30.7287 5.70899 30.9033 5.58781 31.0198 5.41277C31.5079 4.70814 32.2737 4.23241 33.1246 4.11572C33.3619 4.0843 33.5769 3.95415 33.7202 3.76116C33.8635 3.56817 33.9217 3.32581 33.8859 3.08795L33.7515 2.23521C33.6127 1.34208 32.8559 0.695801 31.9557 0.695801H18.8208C18.3327 0.695801 17.8759 0.8843 17.5355 1.22988L12.5109 6.26551C12.166 6.61109 11.9779 7.06887 11.9779 7.55359V11.732C11.9779 12.0147 12.0451 12.2975 12.1705 12.5488L13.5677 15.3584L13.5588 17.9614L12.5467 18.9757C12.3452 19.1777 12.2556 19.456 12.2914 19.7387C12.3317 20.017 12.5019 20.2638 12.7482 20.3985C13.1692 20.6318 13.5364 20.9595 13.8051 21.3455C13.9215 21.516 14.0962 21.6417 14.2977 21.7C15.2874 21.9783 15.9547 22.8624 15.9547 23.8992C15.9547 25.1603 14.9292 26.1881 13.6707 26.1881C13.5095 26.1881 13.3259 26.1612 13.1065 26.1028C12.8333 26.031 12.5467 26.0894 12.3273 26.2644C12.1078 26.4394 11.9779 26.7042 11.9824 26.9825C11.9959 27.9743 12.8109 28.7777 13.8275 28.7957L15.789 34.6975C16.0353 35.4425 16.7294 35.9452 17.5132 35.9452L17.7281 35.9676L18.476 39.2753C18.476 39.2753 18.467 39.3157 18.4581 39.3337C17.9565 38.9926 17.2937 38.6784 16.304 38.6784C14.8978 38.6784 14.141 39.3023 13.5901 39.76C13.1692 40.1101 12.9766 40.2717 12.4616 40.2717C11.9466 40.2717 11.7585 40.1101 11.3331 39.76C10.7822 39.3023 10.0299 38.6784 8.62368 38.6784C7.21748 38.6784 6.46065 39.3023 5.90981 39.76C5.48885 40.1101 5.29628 40.2717 4.78128 40.2717C4.26627 40.2717 4.07818 40.1101 3.65722 39.76C3.10638 39.3023 2.35403 38.6784 0.947832 38.6784C0.701525 38.6784 0.5 38.8804 0.5 39.1272V40.7205C0.5 40.9673 0.701525 41.1693 0.947832 41.1693C1.45836 41.1693 1.65093 41.3309 2.07189 41.6809C2.62273 42.1387 3.37508 42.7626 4.78576 42.7626C6.19643 42.7626 6.94879 42.1387 7.49962 41.6809C7.92058 41.3309 8.11315 41.1693 8.62816 41.1693C9.14316 41.1693 9.33125 41.3309 9.75222 41.6809C10.303 42.1387 11.0554 42.7626 12.4661 42.7626C13.8768 42.7626 14.6291 42.1387 15.1799 41.6809C15.6009 41.3309 15.7935 41.1693 16.3085 41.1693C16.8235 41.1693 17.0161 41.3309 17.437 41.6809C17.9879 42.1387 18.7447 42.7626 20.1509 42.7626C21.5571 42.7626 22.3139 42.1387 22.8647 41.6809C23.2857 41.3309 23.4783 41.1693 23.9933 41.1693C24.5083 41.1693 24.6964 41.3309 25.1218 41.6809C25.6727 42.1387 26.4295 42.7626 27.8357 42.7626C29.2419 42.7626 29.9987 42.1387 30.5495 41.6809C30.9705 41.3309 31.1676 41.1693 31.6781 41.1693C32.1886 41.1693 32.3812 41.3309 32.8066 41.6809C33.3575 42.1387 34.1098 42.7626 35.5205 42.7626C36.9312 42.7626 37.6835 42.1387 38.2344 41.6809C38.6553 41.3309 38.8479 41.1693 39.3629 41.1693C39.8779 41.1693 40.0705 41.3309 40.4959 41.6809C41.0467 42.1387 41.8036 42.7626 43.2098 42.7626C44.616 42.7626 45.3728 42.1387 45.9236 41.6809C46.3491 41.3309 46.5416 41.1693 47.0566 41.1693C47.303 41.1693 47.5045 40.9673 47.5045 40.7205V39.1272C47.5045 38.8804 47.303 38.6784 47.0566 38.6784L47.0522 38.6829ZM17.6968 34.1544L17.4818 34.1365L15.5203 28.2347C15.4531 28.0282 15.3501 27.8397 15.2202 27.6781C16.6981 27.0633 17.7415 25.6046 17.7415 23.9037C17.7415 22.2027 16.6891 20.6588 15.0859 20.0753C14.9247 19.8734 14.7455 19.6804 14.553 19.5053L14.8217 19.2361C15.1665 18.8905 15.3546 18.4327 15.3546 17.948V15.3628C15.3546 15.0801 15.2874 14.8018 15.162 14.546L13.7648 11.7365L13.7737 7.54012L18.8163 2.50001L31.9781 2.52245V2.55387C31.1004 2.85457 30.3122 3.4066 29.73 4.14265C28.1313 4.73058 27.0744 6.2296 27.0744 7.97098C27.0744 10.224 28.9015 12.0551 31.1496 12.0551C31.5348 12.0551 31.911 12.0013 32.2827 11.8936C32.6723 11.9968 33.0753 12.0506 33.4784 12.0551L34.2263 16.808V30.9903L33.5679 34.1634H30.2898C29.4389 34.1634 28.709 34.7424 28.5164 35.5771L27.867 38.3912C27.4147 38.8355 27.1415 39.4234 27.0699 40.0697C26.9579 39.9934 26.837 39.8947 26.6937 39.7735C26.1429 39.3157 25.3905 38.6919 23.9798 38.6919C22.5692 38.6919 21.8168 39.3157 21.266 39.7735C20.9525 40.0338 20.7644 40.1864 20.4778 40.2492C20.4509 40.1056 20.4196 39.962 20.3748 39.8184C20.3838 39.7196 20.3793 39.6209 20.3569 39.5177L19.4657 35.5771C19.2776 34.7424 18.5476 34.1589 17.6923 34.1589L17.6968 34.1544Z" fill="black"/>
<path d="M31.2974 6.38652C31.2482 6.38652 31.2034 6.37305 31.1541 6.37305C30.2764 6.37305 29.5643 7.08666 29.5643 7.96632C29.5643 8.84598 30.2764 9.55959 31.1541 9.55959C31.5616 9.55959 31.9244 9.40251 32.2065 9.15117C32.5872 9.40699 33.044 9.55959 33.5366 9.55959C34.0292 9.55959 34.4905 9.41148 34.8667 9.15117C35.1488 9.40251 35.5115 9.55959 35.9191 9.55959C36.7968 9.55959 37.5089 8.84598 37.5089 7.96632C37.5089 7.08666 36.7968 6.37305 35.9191 6.37305C35.8698 6.37305 35.825 6.38203 35.7757 6.38652C35.4533 5.453 34.5756 4.77979 33.5321 4.77979C32.4887 4.77979 31.6154 5.453 31.2885 6.38652H31.2974Z" fill="black"/>
<path d="M10.4867 4.7799C10.8942 4.7799 11.2569 4.62281 11.5391 4.37148C11.9197 4.6273 12.3765 4.7799 12.8691 4.7799C12.9184 4.7799 12.9677 4.77092 13.0169 4.76643L15.995 1.78186C15.7711 1.66517 15.5248 1.58887 15.2561 1.58887C15.2068 1.58887 15.162 1.59785 15.1128 1.60234C14.7903 0.668817 13.9126 -0.00439453 12.8691 -0.00439453C11.8257 -0.00439453 10.9524 0.668817 10.6255 1.60234C10.5762 1.60234 10.5314 1.58887 10.4822 1.58887C9.60443 1.58887 8.89238 2.30248 8.89238 3.18214C8.89238 4.0618 9.60443 4.77541 10.4822 4.77541L10.4867 4.7799Z" fill="black"/>
<path d="M8.89686 25.4922C9.30438 25.4922 9.66713 25.3351 9.94926 25.0838C10.3299 25.3396 10.7867 25.4922 11.2793 25.4922C11.7719 25.4922 12.2332 25.3441 12.6094 25.0838C12.8915 25.3351 13.2543 25.4922 13.6618 25.4922C14.5395 25.4922 15.2516 24.7786 15.2516 23.8989C15.2516 23.0193 14.5395 22.3057 13.6618 22.3057C13.6125 22.3057 13.5677 22.3146 13.5185 22.3191C13.196 21.3856 12.3183 20.7124 11.2748 20.7124C10.2314 20.7124 9.35812 21.3856 9.03121 22.3191C8.98194 22.3191 8.93716 22.3057 8.8879 22.3057C8.01015 22.3057 7.2981 23.0193 7.2981 23.8989C7.2981 24.7786 8.01015 25.4922 8.8879 25.4922H8.89686Z" fill="black"/>
<path d="M31.5885 29.168H30.975C30.7054 29.168 30.4869 29.387 30.4869 29.6572V31.8653C30.4869 32.1355 30.7054 32.3545 30.975 32.3545H31.5885C31.8581 32.3545 32.0767 32.1355 32.0767 31.8653V29.6572C32.0767 29.387 31.8581 29.168 31.5885 29.168Z" fill="black"/>
<path d="M31.5975 25.9814H30.9839C30.7144 25.9814 30.4958 26.2005 30.4958 26.4706V27.0855C30.4958 27.3557 30.7144 27.5747 30.9839 27.5747H31.5975C31.8671 27.5747 32.0856 27.3557 32.0856 27.0855V26.4706C32.0856 26.2005 31.8671 25.9814 31.5975 25.9814Z" fill="black"/>
<path d="M27.0027 25.9815H27.6118C27.8805 25.9815 28.0999 25.7616 28.0999 25.4923V21.6685C28.0999 21.5518 28.1402 21.444 28.2119 21.3543L29.6181 19.6668C29.9091 19.3122 30.4824 19.5232 30.4824 19.9809V22.3058C30.4824 22.575 30.7018 22.795 30.9705 22.795H31.5796C31.8483 22.795 32.0677 22.575 32.0677 22.3058V13.7246C32.0677 13.4553 31.8483 13.2354 31.5796 13.2354H30.9705C30.7018 13.2354 30.4824 13.4553 30.4824 13.7246V15.9551C30.4824 16.0718 30.4421 16.1795 30.3704 16.2693L26.6221 20.7753C26.5504 20.8651 26.5101 20.9728 26.5101 21.0895V25.4878C26.5101 25.7571 26.7295 25.977 26.9982 25.977L27.0027 25.9815Z" fill="black"/>
<path d="M25.4263 36.2412L26.0041 36.4342C26.2593 36.5194 26.537 36.3803 26.6221 36.1245L28.073 31.7621C28.0909 31.7127 28.0999 31.6589 28.0999 31.605V28.0639C28.0999 27.7946 27.8805 27.5747 27.6118 27.5747H27.0027C26.734 27.5747 26.5146 27.7946 26.5146 28.0639V31.3492C26.5146 31.403 26.5056 31.4524 26.4877 31.5063L25.1173 35.6218C25.0323 35.8777 25.1711 36.1559 25.4263 36.2412V36.2412Z" fill="black"/>
<path d="M20.1509 9.5596C20.1509 9.82889 20.3703 10.0488 20.639 10.0488H21.2481C21.5168 10.0488 21.7362 9.82889 21.7362 9.5596V9.17363C21.7362 8.73828 22.2647 8.51837 22.5737 8.82805L23.1827 9.43842C23.2768 9.53267 23.326 9.65385 23.326 9.78401V14.3349C23.326 14.6042 23.5455 14.8241 23.8142 14.8241H24.4232C24.6919 14.8241 24.9113 14.6042 24.9113 14.3349V9.12426C24.9113 8.9941 24.8576 8.86844 24.768 8.77868L21.875 5.87938C21.781 5.78513 21.7317 5.66395 21.7317 5.5338V4.96381C21.7317 4.69453 21.5123 4.47461 21.2436 4.47461H20.1016L20.1464 4.60476V9.5596H20.1509Z" fill="black"/>
<path d="M19.3582 31.8653V29.3789C19.3582 29.3251 19.3672 29.2757 19.3851 29.2219C19.5418 28.7461 20.2315 28.7865 20.33 29.2802L21.6646 36.0123C21.7183 36.2771 21.9736 36.4521 22.2423 36.3983L22.8379 36.2771C23.1021 36.2233 23.2768 35.9674 23.223 35.6981L20.9615 24.3568C20.957 24.3254 20.9525 24.2939 20.9525 24.2625V18.7287C20.9525 18.639 20.9301 18.5537 20.8808 18.4774L18.6372 14.7254C18.5924 14.6491 18.5656 14.5638 18.5656 14.474V11.3369C18.5656 11.0676 18.3461 10.8477 18.0774 10.8477H17.4684C17.1997 10.8477 16.9802 11.0676 16.9802 11.3369V14.9139C16.9802 15.0036 17.0026 15.0889 17.0519 15.1652L19.2955 18.9172C19.3403 18.9935 19.3672 19.0788 19.3672 19.1686V24.1817C19.3672 24.2356 19.3582 24.285 19.3403 24.3388L17.7998 28.966C17.7818 29.0154 17.7729 29.0693 17.7729 29.1231V31.8698C17.7729 32.1391 17.9923 32.359 18.261 32.359H18.8701C19.1388 32.359 19.3582 32.1391 19.3582 31.8698V31.8653Z" fill="black"/>
</g>
<defs>
<clipPath id="clip0_21_115">
<rect width="47" height="48" fill="white" transform="translate(0.5)"/>
</clipPath>
</defs>
</svg>
