<svg width="56" height="48" viewBox="0 0 56 48" fill="none" xmlns="http://www.w3.org/2000/svg">
<g clip-path="url(#clip0_18_81)">
<path d="M37.0693 21.0762C32.3717 21.0762 28.2534 17.863 27.0451 13.257L30.1044 12.4296C30.9416 15.6244 33.8064 17.8584 37.0693 17.8584C41.0428 17.8584 44.2741 14.5763 44.2741 10.5403C44.2741 6.5043 41.0428 3.22217 37.0693 3.22217C35.0464 3.22217 33.1049 4.09556 31.7427 5.61252L29.4029 3.44741C31.3671 1.25933 34.1594 0.00439453 37.0739 0.00439453C42.7942 0.00439453 47.4466 4.72993 47.4466 10.5403C47.4466 16.3507 42.7942 21.0762 37.0739 21.0762H37.0693Z" fill="#F0AB00"/>
<path d="M32.9602 13.1514L35.3452 12.5768C35.7344 12.4849 36.0693 12.2413 36.282 11.8919C36.4947 11.5472 36.5581 11.1334 36.4676 10.7335C35.8521 8.09954 34.3858 5.76896 32.1999 3.95321C31.4939 3.36482 30.5933 2.72586 29.6746 2.27077C25.7826 0.353901 21.0624 -0.312638 16.4417 0.795195C12.0202 1.85706 8.17794 4.27039 5.62549 7.59849C2.9961 11.0231 2.03667 14.9994 2.91917 18.7917C3.07757 19.4859 3.684 19.9685 4.38547 19.9685C4.50766 19.9685 4.62533 19.9547 4.73394 19.9272L18.5778 16.6037L23.1034 36.039H19.7997C19.9264 35.9747 20.0486 35.9011 20.1527 35.8046C20.4514 35.5288 20.6279 35.1564 20.6505 34.7473C20.6732 34.3382 20.5374 33.9429 20.2659 33.6441L17.3242 30.3252C16.7676 29.7 15.8127 29.6494 15.1972 30.2102C14.5817 30.7757 14.5319 31.7456 15.084 32.3708L18.0257 35.6897C18.1569 35.8368 18.3153 35.9517 18.4873 36.039H18.2474L9.88409 26.5971C9.32744 25.9674 8.37254 25.9168 7.75705 26.4822C7.45836 26.758 7.28186 27.1304 7.25924 27.5395C7.23661 27.9486 7.3769 28.3393 7.64391 28.6427L15.6543 37.6847L12.6673 41.9781C8.30013 42.709 4.37189 43.7387 0.98673 45.0304C0.611103 45.1729 0.307887 45.4579 0.144965 45.8302C-0.0224834 46.2026 -0.0360602 46.6163 0.10876 47.0024C0.249054 47.384 0.529642 47.6874 0.896217 47.8574C1.09534 47.9494 1.30805 47.9953 1.51623 47.9953C1.69725 47.9953 1.87375 47.9632 2.05025 47.8942C16.3648 42.4148 39.6581 42.4148 53.9772 47.8942C54.1492 47.9586 54.3257 47.9908 54.5067 47.9908C55.1267 47.9908 55.6969 47.5908 55.9187 46.9978C56.059 46.6163 56.0454 46.198 55.8825 45.8256C55.715 45.4533 55.4163 45.1683 55.0407 45.0258C52.3299 43.9869 49.2434 43.1135 45.8763 42.4332L41.8757 36.678C41.8304 36.6136 41.7852 36.5677 41.749 36.5401C41.6947 36.4803 41.6358 36.4252 41.5679 36.37C41.4955 36.3102 41.4231 36.2597 41.3371 36.2137C41.2512 36.1677 41.1652 36.1356 41.0747 36.108C40.9841 36.0804 40.8982 36.062 40.8212 36.0528L40.7352 36.0298H26.1899L21.5014 15.8912L29.6113 13.9421M24.2077 40.8151C21.6643 40.9116 19.1661 41.1047 16.754 41.3851L18.347 39.0913H23.8049L24.2077 40.8151V40.8151ZM41.6675 41.7069C37.3184 41.0725 32.6389 40.7416 27.9775 40.7416C27.7467 40.7416 27.5159 40.7416 27.2896 40.7416L26.9049 39.0867H39.8482L41.6675 41.7023V41.7069ZM22.9043 3.36941C27.6336 3.85208 31.5256 6.36654 33.0598 9.98424L27.2082 11.3909C26.3302 8.41213 24.968 5.75516 23.3342 3.84289C23.1939 3.682 23.0536 3.52111 22.9088 3.36941H22.9043ZM17.6138 3.71877C18.6593 3.71877 19.8812 4.47725 21.0533 5.8471C22.3884 7.41002 23.5198 9.6073 24.271 12.0896L14.4097 14.4569C13.9888 11.8965 14.0296 9.41883 14.5364 7.41002C15.0614 5.34145 15.9801 4.04515 17.1296 3.76934C17.279 3.73256 17.4419 3.71418 17.6093 3.71418L17.6138 3.71877ZM11.4816 15.1649L5.62549 16.5715C5.48519 14.1627 6.31338 11.6759 7.99691 9.48319C9.00612 8.16849 10.2959 7.0009 11.7894 6.04476C11.726 6.24702 11.6717 6.44928 11.6174 6.65614C10.9974 9.10625 10.9521 12.1034 11.4816 15.1649V15.1649Z" fill="#1F1D21"/>
</g>
<defs>
<clipPath id="clip0_18_81">
<rect width="56" height="48" fill="white"/>
</clipPath>
</defs>
</svg>
