<svg width="40" height="48" viewBox="0 0 40 48" fill="none" xmlns="http://www.w3.org/2000/svg">
<g clip-path="url(#clip0_18_109)">
<path d="M23.0154 9.22051C23.2269 9.22051 23.3 9.28135 23.3231 9.30036C23.5077 9.45245 23.7077 9.94294 23.7192 10.8631C23.7308 11.6996 23.4962 12.346 23.2615 12.9353L22 16.0608H28.1385C28.8 16.0608 29.4077 16.635 29.4115 17.2623C29.4115 17.5931 29.2962 17.9734 29.1039 18.2585L28.5423 19.0912L28.7808 20.0646C28.9115 20.6007 28.8308 21.2205 28.5692 21.6882L28.1692 22.3954L28.3115 23.1939C28.4 23.692 28.2692 24.3042 27.9808 24.7148L27.4962 25.4144L27.5923 26.2585C27.6231 26.5171 27.5846 26.7186 27.4731 26.8745C27.2385 27.2091 26.8192 27.3992 25.3654 27.3992C25.1885 27.3992 25.0154 27.3992 24.8423 27.3954H24.8154C24.6192 27.3954 24.4154 27.3916 24.2154 27.3916H24.0962C22.9462 27.3916 22.0154 27.0798 21.0308 26.749C20.5154 26.5779 19.9808 26.3992 19.4346 26.2813C18.8231 26.1521 18.1077 26.0418 17.4654 25.9429C17.1192 25.8897 16.7654 25.8365 16.4962 25.787C15.9846 25.6958 15.1 25.6654 14.75 25.6654H11.15H11.1423V18.0532H11.15C12.9615 18.0532 16.2039 17.403 17.7346 15.9582C18.15 15.5665 18.4615 15.2813 18.7385 15.0304C19.1385 14.6616 19.4885 14.346 19.9808 13.8555L20.1269 13.711C20.8423 13.0076 21.7308 12.1331 22.0154 10.962L22.0462 10.8251C22.3462 9.56652 22.6 9.26994 22.7615 9.23952C22.8539 9.22431 22.9423 9.21671 23.0192 9.21671M23.0192 6.93534C22.8154 6.93534 22.5962 6.95435 22.3615 6.99618C20.5115 7.31937 20.0308 9.33458 19.8 10.3042L19.7692 10.4334C19.6385 10.9734 19.0077 11.5931 18.5 12.095L18.3539 12.2395C17.8923 12.6958 17.5731 12.9886 17.1731 13.3536C16.8885 13.6121 16.5692 13.9049 16.1462 14.308C15.2731 15.1331 12.7462 15.7718 11.1577 15.7718C9.8577 15.7718 8.84232 16.6083 8.84232 17.673V26.0456C8.84232 27.1102 9.86155 27.9467 11.1577 27.9467H14.7577C15.1539 27.9467 15.8231 27.9848 16.0923 28.0304C16.3808 28.0836 16.7385 28.1369 17.1231 28.1939C17.7269 28.2851 18.4115 28.3916 18.9539 28.5057C19.3731 28.5969 19.8231 28.7452 20.3 28.9049C21.3654 29.2623 22.5769 29.6654 24.1039 29.6654H24.2231C24.4269 29.6654 24.6269 29.6654 24.8231 29.6692C25.0039 29.6692 25.1885 29.673 25.3731 29.673C26.85 29.673 28.4115 29.5361 29.3769 28.1673C29.6923 27.7186 30.0077 27 29.8962 25.9924C30.5231 25.0912 30.7885 23.8707 30.5962 22.787C31.1423 21.8175 31.3039 20.6045 31.0346 19.5133C31.4769 18.8593 31.7346 18.038 31.7308 17.2395C31.7192 15.3574 30.0808 13.768 28.15 13.768H25.4154C25.7269 12.9962 26.0539 12.0532 26.0385 10.8251C26.0192 9.29656 25.6077 8.18629 24.8077 7.5323C24.4462 7.23572 23.8692 6.92773 23.0231 6.92773L23.0192 6.93534Z" fill="#F0AB00"/>
<path d="M25.4769 39.5436C24.7731 39.5436 24.0577 39.4372 23.3538 39.209L21.2731 38.5436C20.4384 38.2775 19.5615 38.2775 18.7269 38.5436L16.6461 39.209C13.4384 40.2357 9.99998 38.825 8.46537 35.8592L7.46921 33.9353C7.06921 33.1634 6.44998 32.5474 5.66921 32.1558L3.72306 31.171C0.723058 29.6577 -0.700019 26.2585 0.338443 23.0874L1.01152 21.0303C1.28075 20.2052 1.28075 19.3383 1.01152 18.5132L0.338443 16.4562C-0.700019 13.2851 0.726904 9.88585 3.7269 8.36874L5.67306 7.38395C6.45383 6.98851 7.0769 6.37634 7.47306 5.60448L8.46921 3.68053C9.99998 0.714746 13.4423 -0.692098 16.6461 0.334518L18.7269 0.999917C19.5577 1.26608 20.4384 1.26608 21.2731 0.999917L23.3538 0.334518C26.5615 -0.692098 30 0.718548 31.5346 3.68433L32.5308 5.60828C32.9308 6.38015 33.55 6.99231 34.3308 7.38775L36.2769 8.37254C39.2769 9.88965 40.7038 13.2889 39.6654 16.46L38.9923 18.517C38.7231 19.3421 38.7231 20.209 38.9923 21.0341L39.6654 23.0912C40.7038 26.2623 39.2769 29.6615 36.2769 31.1786L34.3308 32.1634C33.55 32.555 32.9308 33.171 32.5308 33.9429L31.5346 35.8668C30.3384 38.1824 27.9769 39.5474 25.4769 39.5512V39.5436ZM20.0038 35.6805C20.7115 35.6805 21.4192 35.7908 22.1077 36.0113L24.1884 36.6767C26.1307 37.2965 28.2115 36.4448 29.1423 34.6501L30.1384 32.7262C30.7961 31.4524 31.8231 30.4372 33.1115 29.787L35.0577 28.8022C36.8769 27.8858 37.7384 25.825 37.1077 23.9049L36.4346 21.8478C35.9884 20.4866 35.9884 19.0493 36.4346 17.6919L37.1077 15.6349C37.7346 13.7147 36.8731 11.6577 35.0577 10.7376L33.1115 9.75657C31.8231 9.10638 30.7961 8.09117 30.1384 6.81741L29.1423 4.89345C28.2154 3.09497 26.1307 2.24326 24.1884 2.86684L22.1077 3.53224C20.7307 3.9733 19.2807 3.9733 17.9038 3.53224L15.8231 2.86684C13.8807 2.24707 11.8 3.09878 10.8692 4.89345L9.87306 6.81741C9.21537 8.09117 8.18844 9.10638 6.89998 9.75657L4.95383 10.7414C3.1346 11.6577 2.27306 13.7185 2.90383 15.6387L3.5769 17.6957C4.02306 19.057 4.02306 20.4942 3.5769 21.8516L2.90383 23.9087C2.2769 25.8288 3.13844 27.8858 4.95383 28.806L6.89998 29.7908C8.18844 30.441 9.21537 31.4562 9.87306 32.73L10.8692 34.6539C11.7961 36.4524 13.8807 37.3041 15.8231 36.6805L17.9038 36.0151C18.5923 35.7946 19.3 35.6843 20.0077 35.6843L20.0038 35.6805Z" fill="black"/>
<path d="M32.9231 48.0001C32.5962 48.0001 32.2808 47.8632 32.0577 47.6123L24.8192 39.483L26.55 37.9773L31.7692 43.8366V40.3651C31.7692 39.7339 32.2846 39.2244 32.9231 39.2244H36.2769L30.6615 32.9203L32.3923 31.4146L39.6923 39.6123C39.9923 39.9469 40.0654 40.426 39.8769 40.8366C39.6885 41.2434 39.2808 41.5058 38.8269 41.5058H34.0731V46.8556C34.0731 47.3309 33.7769 47.7568 33.3269 47.9241C33.1923 47.9735 33.0577 47.9963 32.9192 47.9963L32.9231 48.0001Z" fill="black"/>
<path d="M7.21154 48.0002C7.07692 48.0002 6.93846 47.9774 6.80385 47.928C6.35385 47.7607 6.05769 47.3348 6.05769 46.8595V41.5097H1.30385C0.849999 41.5097 0.438461 41.2474 0.253845 40.8405C0.0692301 40.4337 0.138461 39.9546 0.438461 39.6162L7.73846 31.4185L9.46923 32.9242L3.85385 39.2283H7.20769C7.84615 39.2283 8.36154 39.7378 8.36154 40.369V43.8405L13.5808 37.9812L15.3115 39.4869L8.07308 47.6162C7.85 47.8671 7.53077 48.004 7.20769 48.004L7.21154 48.0002Z" fill="black"/>
</g>
<defs>
<clipPath id="clip0_18_109">
<rect width="40" height="48" fill="white"/>
</clipPath>
</defs>
</svg>
