<svg width="54" height="48" viewBox="0 0 54 48" fill="none" xmlns="http://www.w3.org/2000/svg">
<path d="M11.2998 2.91968C12.2465 2.91968 13.0603 3.59345 13.2388 4.52508L13.3634 5.55238H47.955C49.6242 5.55238 50.957 7.22017 50.4878 8.90044L46.0492 24.7174C45.7294 25.8529 44.6914 26.6348 43.5163 26.6348H17.4408L18.1965 30.5901H43.5288C44.6208 30.5901 45.5011 31.4718 45.5011 32.5656C45.5011 33.6595 44.6208 34.5412 43.5288 34.5412H16.49C15.618 34.5412 14.8042 33.8674 14.6215 32.9358L9.66796 6.87497H5.37878C4.29092 6.87497 3.40651 5.98908 3.40651 4.8994C3.40651 3.80972 4.29092 2.92384 5.37878 2.92384H11.2998M41.5607 37.1822C43.7406 37.1822 45.5094 38.954 45.5094 41.1375C45.5094 43.321 43.7406 45.0928 41.5607 45.0928C39.3808 45.0928 37.612 43.321 37.612 41.1375C37.612 38.954 39.3808 37.1822 41.5607 37.1822ZM17.8809 37.1822C20.0608 37.1822 21.8296 38.954 21.8296 41.1375C21.8296 43.321 20.0608 45.0928 17.8809 45.0928C15.701 45.0928 13.9322 43.321 13.9322 41.1375C13.9322 38.954 15.701 37.1822 17.8809 37.1822ZM11.2998 0.00831817H5.37878C2.68819 0.00831817 0.5 2.20016 0.5 4.89524C0.5 7.59033 2.68819 9.78217 5.37878 9.78217H7.25971L11.7648 33.4848C11.9683 34.5246 12.4831 35.4354 13.1973 36.1217C11.8603 37.3735 11.0216 39.1578 11.0216 41.1333C11.0216 44.9181 14.0942 48 17.8768 48C21.6594 48 24.732 44.9223 24.732 41.1333C24.732 39.7816 24.3417 38.5214 23.6649 37.4567H35.7767C35.0999 38.5214 34.7096 39.7816 34.7096 41.1333C34.7096 44.9181 37.7822 48 41.5648 48C45.3474 48 48.42 44.9223 48.42 41.1333C48.42 39.3075 47.7059 37.648 46.5433 36.4169C47.6851 35.5227 48.42 34.1295 48.42 32.5656C48.42 31.0018 47.6643 29.5711 46.4934 28.6769C47.6145 27.9615 48.474 26.8469 48.8519 25.5077L53.2947 9.68651C53.7639 8.0104 53.4192 6.25111 52.3604 4.84949C51.3099 3.46452 49.6657 2.63686 47.9633 2.63686H15.6305C14.8042 1.05225 13.1516 0 11.2998 0V0.00831817Z" fill="black"/>
</svg>
