<svg width="58" height="48" viewBox="0 0 58 48" fill="none" xmlns="http://www.w3.org/2000/svg">
<path d="M56.4097 38.5676L48.5978 46.2927C48.4796 46.4111 48.3377 46.5053 48.1804 46.5696C48.0232 46.634 47.854 46.6672 47.683 46.6672C47.512 46.6672 47.3428 46.634 47.1856 46.5696C47.0283 46.5053 46.8863 46.4111 46.7682 46.2927L38.9445 38.5676C38.4007 38.0243 37.978 37.3808 37.7021 36.6762C37.4261 35.9715 37.3027 35.2205 37.3393 34.4688C37.376 33.717 37.5719 32.9803 37.9152 32.3034C38.2585 31.6264 38.742 31.0234 39.3363 30.531C41.5498 28.7226 44.8446 29.0303 46.8701 31.0563L47.6536 31.8404L48.4371 31.0563C50.4665 29.049 53.7574 28.7226 55.9709 30.531C56.5684 31.0202 57.0558 31.6208 57.4032 32.296C57.7507 32.9713 57.9511 33.7073 57.9921 34.4591C58.0332 35.2109 57.9141 35.9628 57.642 36.6691C57.37 37.3754 56.9507 38.0214 56.4097 38.5676V38.5676Z" fill="#FFAE00"/>
<path d="M56.4097 38.5676L48.5978 46.2927C48.4796 46.4111 48.3377 46.5053 48.1804 46.5696C48.0232 46.634 47.854 46.6672 47.683 46.6672C47.512 46.6672 47.3428 46.634 47.1856 46.5696C47.0283 46.5053 46.8863 46.4111 46.7682 46.2927L38.9445 38.5676C38.4007 38.0243 37.978 37.3808 37.7021 36.6762C37.4261 35.9715 37.3027 35.2205 37.3393 34.4688C37.376 33.717 37.5719 32.9803 37.9152 32.3034C38.2585 31.6264 38.742 31.0234 39.3363 30.531C41.5498 28.7226 44.8446 29.0303 46.8701 31.0563L47.6536 31.8404L48.4371 31.0563C50.4665 29.049 53.7574 28.7226 55.9709 30.531C56.5684 31.0202 57.0558 31.6208 57.4032 32.296C57.7507 32.9713 57.9511 33.7073 57.9921 34.4591C58.0332 35.2109 57.9141 35.9628 57.642 36.6691C57.37 37.3754 56.9507 38.0214 56.4097 38.5676V38.5676Z" fill="#FFAE00"/>
<path d="M39.3062 41.7589L34.1553 44.9577L29.4761 28.6899C29.412 28.4637 29.2957 28.2555 29.1364 28.082C28.9771 27.9084 28.7793 27.7743 28.5586 27.6903C28.3832 27.6219 28.1966 27.5865 28.0081 27.586C27.7223 27.5857 27.4422 27.6655 27.1999 27.8163L18.8771 32.9709C18.676 33.0961 18.507 33.2662 18.3834 33.4676C18.2598 33.669 18.185 33.8962 18.1649 34.1313L17.5708 40.9288L14.3465 42.9367L11.463 32.7101C11.387 32.4342 11.2358 32.1845 11.0261 31.9887L3.07467 24.9131L6.30332 22.9138L12.6994 25.3825C12.9202 25.4679 13.1579 25.501 13.3938 25.4791C13.6296 25.4572 13.8571 25.381 14.0582 25.2564L22.3592 20.0975C22.5598 19.9739 22.7286 19.8054 22.8522 19.6055C22.9758 19.4055 23.0508 19.1796 23.0712 18.9458C23.0929 18.7113 23.0597 18.4751 22.974 18.2556C22.8883 18.0362 22.7527 17.8395 22.5776 17.681L9.96448 6.33752L15.2596 3.05181L33.028 12.5873C33.2652 12.7145 33.532 12.777 33.8012 12.7686C34.0705 12.7602 34.3328 12.6812 34.5615 12.5395L43.815 6.83298C45.3894 5.98259 47.1483 5.52615 48.9397 5.50305C50.7878 5.45959 52.2076 5.9029 52.697 6.68521C53.6494 8.21072 51.644 12.6916 48.647 14.5518L39.4023 20.2801C39.1728 20.4209 38.9852 20.6199 38.8585 20.8566C38.7318 21.0934 38.6707 21.3594 38.6815 21.6274L38.9043 27.4991C39.8402 27.0056 40.8739 26.7237 41.9319 26.6733L41.7703 22.3967L50.2635 17.1334C53.3742 15.2037 57.7562 9.01042 55.2921 5.07713C54.1955 3.33866 51.9062 2.38684 48.8698 2.46942C46.53 2.49898 44.2356 3.11483 42.1984 4.26004L33.6921 9.4885L16.7057 0.361519C16.2324 0.108886 15.7006 -0.0152833 15.1637 0.00150174C14.6268 0.0182868 14.1039 0.175435 13.6475 0.457136L8.35234 3.75154C7.95111 4.00021 7.6133 4.33802 7.36542 4.73844C7.11753 5.13887 6.96633 5.59101 6.9237 6.05936C6.88121 6.52597 6.94872 6.99601 7.12089 7.4321C7.29305 7.86819 7.56513 8.25831 7.91545 8.57145L19.0257 18.5677L13.0752 22.2532L7.39555 20.0584C6.95329 19.8875 6.47714 19.8213 6.00474 19.8651C5.53234 19.9088 5.07665 20.0613 4.67371 20.3105L1.4407 22.3141C1.04632 22.5584 0.713086 22.8889 0.466301 23.2805C0.219515 23.6721 0.065661 24.1145 0.0164217 24.5741C-0.0316053 25.0333 0.0260449 25.4973 0.185003 25.931C0.343961 26.3648 0.600074 26.7568 0.933913 27.0775L0.973218 27.1166L8.64068 33.9445L11.4193 43.7972V43.8494C11.562 44.2888 11.8033 44.6901 12.125 45.0229C12.4467 45.3557 12.8404 45.6114 13.2761 45.7704C13.7116 45.9316 14.1786 45.9907 14.6408 45.9432C15.103 45.8957 15.548 45.7429 15.9412 45.4966L19.1742 43.493C19.5765 43.2435 19.915 42.9043 20.163 42.5023C20.4109 42.1002 20.5615 41.6464 20.6028 41.1765L21.1315 35.1353L27.0819 31.4497L31.2019 45.7921C31.3304 46.245 31.5637 46.6617 31.8831 47.0088C32.2024 47.356 32.5991 47.624 33.0412 47.7914C33.3921 47.9278 33.7654 47.9985 34.1421 48C34.7129 47.9997 35.2719 47.8385 35.7542 47.535L41.0538 44.2536C41.1892 44.1664 41.3177 44.069 41.4382 43.9624L39.3062 41.7589Z" fill="black"/>
</svg>
