<svg width="48" height="48" viewBox="0 0 48 48" fill="none" xmlns="http://www.w3.org/2000/svg">
<g clip-path="url(#clip0_18_70)">
<path d="M24.0024 36.1652C17.2954 36.1652 11.8394 30.7092 11.8394 24.0023C11.8394 17.2953 17.2954 11.8394 24.0024 11.8394C30.7093 11.8394 36.1653 17.2953 36.1653 24.0023C36.1653 30.7092 30.7093 36.1652 24.0024 36.1652ZM24.0024 15.1691C19.1315 15.1691 15.1691 19.1314 15.1691 24.0023C15.1691 28.8731 19.1315 32.8355 24.0024 32.8355C28.8732 32.8355 32.8356 28.8731 32.8356 24.0023C32.8356 19.1314 28.8732 15.1691 24.0024 15.1691Z" fill="black"/>
<path d="M24.0024 9.41829C23.0843 9.41829 22.3375 8.67149 22.3375 7.75344V1.66485C22.3375 0.746804 23.0843 0 24.0024 0C24.9204 0 25.6672 0.746804 25.6672 1.66485V7.75344C25.6672 8.67149 24.9204 9.41829 24.0024 9.41829Z" fill="black"/>
<path d="M24.0024 47.9998C23.0843 47.9998 22.3375 47.253 22.3375 46.335V40.2464C22.3375 39.3283 23.0843 38.5815 24.0024 38.5815C24.9204 38.5815 25.6672 39.3283 25.6672 40.2464V46.335C25.6672 47.253 24.9204 47.9998 24.0024 47.9998Z" fill="black"/>
<path d="M7.75344 25.6671H1.66485C0.746804 25.6671 0 24.9203 0 24.0023C0 23.0842 0.746804 22.3374 1.66485 22.3374H7.75344C8.67149 22.3374 9.41829 23.0842 9.41829 24.0023C9.41829 24.9203 8.67149 25.6671 7.75344 25.6671Z" fill="black"/>
<path d="M46.3351 25.6671H40.2465C39.3285 25.6671 38.5817 24.9203 38.5817 24.0023C38.5817 23.0842 39.3285 22.3374 40.2465 22.3374H46.3351C47.2532 22.3374 48 23.0842 48 24.0023C48 24.9203 47.2532 25.6671 46.3351 25.6671Z" fill="black"/>
<path d="M8.20532 41.4594C7.77721 41.4594 7.35387 41.2977 7.03041 40.9694C6.37874 40.3178 6.37874 39.2665 7.03041 38.6149L11.3352 34.31C11.9869 33.6584 13.0381 33.6584 13.6898 34.31C14.3415 34.9617 14.3415 36.0129 13.6898 36.6646L9.38498 40.9694C9.06153 41.2929 8.63342 41.4594 8.21007 41.4594H8.20532Z" fill="black"/>
<path d="M35.4898 14.1752C35.0617 14.1752 34.6384 14.0135 34.3149 13.6853C33.6633 13.0336 33.6633 11.9824 34.3149 11.3307L38.6198 7.02586C39.2714 6.37419 40.3227 6.37419 40.9743 7.02586C41.626 7.67753 41.626 8.72876 40.9743 9.38043L36.6695 13.6853C36.346 14.0087 35.9179 14.1752 35.4946 14.1752H35.4898Z" fill="black"/>
<path d="M39.7947 41.4594C39.3666 41.4594 38.9432 41.2977 38.6198 40.9694L34.3149 36.6646C33.6633 36.0129 33.6633 34.9617 34.3149 34.31C34.9666 33.6584 36.0178 33.6584 36.6695 34.31L40.9743 38.6149C41.626 39.2665 41.626 40.3178 40.9743 40.9694C40.6509 41.2929 40.2228 41.4594 39.7994 41.4594H39.7947Z" fill="black"/>
<path d="M12.5101 14.1752C12.082 14.1752 11.6587 14.0135 11.3352 13.6853L7.03041 9.38043C6.37874 8.72876 6.37874 7.67753 7.03041 7.02586C7.68208 6.37419 8.73331 6.37419 9.38498 7.02586L13.6898 11.3307C14.3415 11.9824 14.3415 13.0336 13.6898 13.6853C13.3664 14.0087 12.9382 14.1752 12.5149 14.1752H12.5101Z" fill="black"/>
</g>
<defs>
<clipPath id="clip0_18_70">
<rect width="48" height="48" fill="white"/>
</clipPath>
</defs>
</svg>
