<svg width="34" height="48" viewBox="0 0 34 48" fill="none" xmlns="http://www.w3.org/2000/svg">
<g clip-path="url(#clip0_18_103)">
<path d="M17.1591 31.6138C18.6375 31.6138 19.8389 30.4096 19.8389 28.9277C19.8389 27.4459 18.6375 26.2417 17.1591 26.2417C15.6807 26.2417 14.4792 27.4459 14.4792 28.9277C14.4792 30.4096 15.6807 31.6138 17.1591 31.6138V31.6138ZM16.5939 28.9277C16.5939 28.6164 16.8484 28.3613 17.1591 28.3613C17.4697 28.3613 17.7242 28.6164 17.7242 28.9277C17.7242 29.2391 17.4697 29.4942 17.1591 29.4942C16.8484 29.4942 16.5939 29.2391 16.5939 28.9277Z" fill="#F0AB00"/>
<path d="M20.4901 40.5572C20.2169 40.4934 19.9324 40.5421 19.6929 40.6922C18.1771 41.6488 16.1373 41.6488 14.6215 40.6922C14.1274 40.3808 13.4724 40.5309 13.1655 41.0261C13.0158 41.2662 12.9672 41.5513 13.0308 41.8251C13.0944 42.1028 13.2591 42.3353 13.4986 42.4854C14.6027 43.1794 15.8678 43.5471 17.1591 43.5471C18.4503 43.5471 19.7191 43.1794 20.8195 42.4854C21.059 42.3353 21.2237 42.099 21.2873 41.8251C21.351 41.5513 21.3023 41.2662 21.1526 41.0261C21.0029 40.786 20.7671 40.6209 20.4901 40.5572V40.5572Z" fill="black"/>
<path d="M14.3258 34.5172C14.3258 33.932 13.8504 33.4556 13.2703 33.4556H9.84568C9.26181 33.4556 8.79022 33.932 8.79022 34.5172C8.79022 35.1025 9.26555 35.5789 9.84568 35.5789H13.2703C13.8542 35.5789 14.3258 35.1025 14.3258 34.5172Z" fill="black"/>
<path d="M21.0441 35.575H24.465C25.0488 35.575 25.5242 35.0986 25.5242 34.5133C25.5242 33.9281 25.0488 33.4517 24.465 33.4517H21.0441C20.4602 33.4517 19.9849 33.9281 19.9849 34.5133C19.9849 35.0986 20.4602 35.575 21.0441 35.575Z" fill="black"/>
<path d="M32.875 29.554C32.7028 29.389 32.5044 29.2652 32.2836 29.1751C32.5306 28.0535 32.6504 26.9468 32.6504 25.8026C32.6504 20.1116 29.5402 15.5311 24.2853 13.389C24.4163 13.2989 24.5361 13.2052 24.6409 13.1001C25.0788 12.6649 25.3033 12.1097 25.3033 11.457C25.3033 9.61125 23.1849 6.88394 20.0822 5.67597C20.5126 5.07198 20.7446 4.3517 20.7446 3.59766C20.7446 1.61313 19.1353 0 17.1553 0C15.1754 0 13.566 1.61313 13.566 3.59766C13.566 4.30293 13.7793 4.98945 14.1723 5.57843C10.9199 6.72638 8.69292 9.51747 8.69292 11.457C8.69292 12.1097 8.91749 12.6612 9.35539 13.1001C9.47516 13.2202 9.61365 13.329 9.7671 13.4265C4.67693 15.5836 1.664 20.1491 1.664 25.8026C1.664 26.9018 1.7688 27.9822 1.98962 29.0851C1.66775 29.1601 1.37581 29.3177 1.12879 29.5503C0.488774 30.158 0.320349 31.0921 0.709597 31.88C1.55921 33.5906 1.99337 35.4288 1.99337 37.3458C1.99337 37.8298 1.96342 38.3212 1.90728 38.7977C1.81371 39.5817 2.19173 40.3207 2.8542 40.7147C1.9784 41.0823 1.36458 41.9489 1.36458 42.958C1.36458 44.3011 2.45373 45.3927 3.79364 45.3927C5.13355 45.3927 6.2227 44.3011 6.2227 42.958C6.2227 41.9751 5.63882 41.1311 4.80044 40.7447C5.0063 40.6321 5.19718 40.4896 5.35063 40.3057C5.43297 40.212 5.51157 40.1107 5.58643 40.0094C7.1771 44.7475 11.6198 47.9925 16.6538 47.9925H17.3462C22.384 47.9925 26.8229 44.7475 28.4136 40.0094C28.4922 40.1107 28.5708 40.212 28.6494 40.3057C28.8066 40.4896 28.9937 40.6359 29.2033 40.7447C28.3649 41.1311 27.781 41.9751 27.781 42.958C27.781 44.3011 28.8702 45.3927 30.2101 45.3927C31.55 45.3927 32.6392 44.3011 32.6392 42.958C32.6392 41.9489 32.0216 41.0823 31.1495 40.7109C31.812 40.317 32.19 39.578 32.0965 38.7939C32.0403 38.31 32.0104 37.8223 32.0104 37.3383C32.0104 35.4251 32.4408 33.5869 33.2904 31.8724C33.6797 31.0884 33.515 30.1505 32.875 29.5428V29.554ZM30.5282 42.9655C30.5282 43.1381 30.386 43.2807 30.2138 43.2807C30.0417 43.2807 29.8995 43.1381 29.8995 42.9655C29.8995 42.793 30.0417 42.6504 30.2138 42.6504C30.386 42.6504 30.5282 42.793 30.5282 42.9655ZM3.7899 42.6504C3.96206 42.6504 4.10429 42.793 4.10429 42.9655C4.10429 43.1381 3.96206 43.2807 3.7899 43.2807C3.61773 43.2807 3.4755 43.1381 3.4755 42.9655C3.4755 42.793 3.61773 42.6504 3.7899 42.6504ZM2.83549 31.4223C4.16043 32.3864 4.96513 33.9433 4.96513 35.6052C4.96513 36.6518 4.64699 37.6685 4.05938 38.52C4.08932 38.1299 4.10803 37.7397 4.10803 37.3496C4.10803 35.2825 3.68136 33.2905 2.83549 31.426V31.4223ZM17.1591 5.07198C16.3469 5.07198 15.6844 4.40797 15.6844 3.5939C15.6844 2.77984 16.3469 2.11583 17.1591 2.11583C17.9713 2.11583 18.6337 2.77984 18.6337 3.5939C18.6337 4.40797 17.9713 5.07198 17.1591 5.07198ZM29.9444 38.52C29.3568 37.6647 29.0386 36.6481 29.0386 35.6052C29.0386 33.9433 29.8396 32.3902 31.1683 31.426C30.3224 33.2943 29.8957 35.2863 29.8957 37.3496C29.8957 37.7397 29.9107 38.1299 29.9444 38.52V38.52ZM22.4925 22.0436C21.2424 22.0436 20.0298 22.3962 18.9818 23.064C17.7991 23.8181 16.2084 23.8181 15.0219 23.064C13.974 22.3962 12.7613 22.0399 11.5112 22.0399C7.89946 22.0399 4.96513 24.9848 4.96513 28.6012V30.4732C4.77424 30.2818 4.57588 30.1018 4.37003 29.9329C3.97329 28.5224 3.78241 27.1681 3.78241 25.7988C3.78241 18.7348 8.96989 14.1693 16.9981 14.1693C23.7389 14.1693 30.5395 17.7669 30.5395 25.7988C30.5395 27.1043 30.3523 28.3798 29.9631 29.6928C29.63 29.9329 29.3231 30.1955 29.0386 30.4769V28.6012C29.0386 24.981 26.1005 22.0399 22.4925 22.0399V22.0436ZM7.07979 28.6049C7.07979 26.1552 9.0672 24.1632 11.5112 24.1632C12.3571 24.1632 13.1768 24.4033 13.8879 24.8535C15.748 26.0427 18.252 26.0427 20.1159 24.8535C20.8232 24.4033 21.6467 24.1632 22.4925 24.1632C24.9365 24.1632 26.924 26.1552 26.924 28.6049V36.2804C26.924 41.5737 22.6273 45.8804 17.3462 45.8804H16.6538C11.3727 45.8804 7.07605 41.5737 7.07605 36.2804V28.6049H7.07979ZM23.1512 11.592C22.6609 12.076 20.3966 12.061 18.3755 12.046C17.4847 12.0385 16.5153 12.0385 15.6058 12.046C13.6072 12.061 11.3391 12.0797 10.8488 11.592C10.8338 11.577 10.8113 11.5583 10.8113 11.457C10.8113 10.2227 13.4912 7.19531 16.9981 7.19531C20.5051 7.19531 23.1849 10.2227 23.1849 11.457C23.1849 11.5583 23.1662 11.577 23.1475 11.592H23.1512Z" fill="black"/>
</g>
<defs>
<clipPath id="clip0_18_103">
<rect width="33" height="48" fill="white" transform="translate(0.5)"/>
</clipPath>
</defs>
</svg>
